{
.appVersion = "3032";
DisplayStrings = (
"/iGlottal-ethiopic",
"/te-ethiopic",
"/xaa-ethiopic"
);
copyright = "Copyright © 2020 by fasil fikreab. All rights reserved.";
customParameters = (
{
name = panose;
value = (
2,
0,
0,
0,
0,
0,
0,
0,
0,
0
);
},
{
name = unicodeRanges;
value = (
0,
1,
2,
3,
4,
5,
6,
7,
9,
29,
30,
31,
32,
33,
35,
36,
38,
45,
60,
62,
69
);
},
{
name = fsType;
value = (
0
);
},
{
name = glyphOrder;
value = (
.notdef,
uni0000,
uni0002,
CR,
space,
exclam,
quotedbl,
numbersign,
dollar,
percent,
ampersand,
quotesingle,
parenleft,
parenright,
asterisk,
plus,
comma,
hyphen,
period,
slash,
zero,
one,
two,
three,
four,
five,
six,
seven,
eight,
nine,
colon,
semicolon,
less,
equal,
greater,
question,
at,
A,
B,
C,
D,
E,
F,
G,
H,
I,
J,
K,
L,
M,
N,
O,
P,
Q,
R,
S,
T,
U,
V,
W,
X,
Y,
Z,
bracketleft,
backslash,
bracketright,
asciicircum,
underscore,
grave,
a,
b,
c,
d,
e,
f,
g,
h,
i,
j,
k,
l,
m,
n,
o,
p,
q,
r,
s,
t,
u,
v,
w,
x,
y,
z,
braceleft,
bar,
braceright,
asciitilde,
exclamdown,
cent,
sterling,
currency,
yen,
brokenbar,
section,
dieresis,
copyright,
ordfeminine,
guillemetleft,
logicalnot,
registered,
macron,
degree,
plusminus,
twosuperior,
threesuperior,
acute,
micro,
paragraph,
periodcentered,
cedilla,
onesuperior,
ordmasculine,
guillemetright,
onequarter,
onehalf,
threequarters,
questiondown,
AE,
multiply,
Oslash,
Thorn,
germandbls,
ae,
eth,
divide,
oslash,
thorn,
dcroat,
Hbar,
idotless,
kgreenlandic,
Lslash,
lslash,
Eng,
eng,
OE,
oe,
longs,
Schwa,
florin,
Ohorn,
ohorn,
Uhorn,
uhorn,
jdotless,
schwa,
circumflex,
caron,
firsttonechinese,
breve,
dotaccent,
ring,
ogonek,
tilde,
hungarumlaut,
lowringmod,
gravecomb,
acutecomb,
tildecomb,
hookabovecomb,
dblgravecomb,
dotbelowcomb,
tonos,
dieresistonos,
anoteleia,
Gamma,
Delta,
Theta,
Lambda,
Xi,
Pi,
Sigma,
Phi,
Psi,
Ohm,
alpha,
beta,
gamma,
delta,
epsilon,
zeta,
eta,
theta,
iota,
lambda,
xi,
pi,
rho,
sigmafinal,
sigma,
tau,
upsilon,
phi,
psi,
omega,
thetaSymbol,
UpsilonhookSymbol,
piSymbol,
"Dje-cy",
"E-cy",

glyphs = (
{
glyphname = .notdef;
layers = (
{
layerId = "A9B054E9-1A63-4AEF-9EE1-561B1DFE8422";
paths = (
{
closed = 1;
nodes = (
"808 1456 LINE",
"100 1456 LINE",
"100 0 LINE",
"808 0 LINE",
"808 0 LINE"
);
},
{
closed = 1;
nodes = (
"480 728 LINE",
"754 1371 LINE",
"754 84 LINE",
"754 84 LINE"
);
},
{
closed = 1;
nodes = (
"422 728 LINE",
"154 96 LINE",
"154 1359 LINE",
"154 1359 LINE"
);
},
{
closed = 1;
nodes = (
"451 660 LINE",
"709 54 LINE",
"194 54 LINE",
"194 54 LINE"
);
},
{
closed = 1;
nodes = (
"194 1402 LINE",
"709 1402 LINE",
"451 796 LINE",
"451 796 LINE"
);
}
);
userData = {
assembly = "PUSHB[ ]	/* 3 values pushed */
12 16 17 
SRP1[ ]	/* SetRefPoint1 */
SRP2[ ]	/* SetRefPoint2 */
IP[ ]	/* InterpolatePts */
PUSHB[ ]	/* 1 value pushed */
12 
SRP0[ ]	/* SetRefPoint0 */
PUSHB[ ]	/* 1 value pushed */
0 
MDRP[10000]	/* MoveDirectRelPt */
PUSHB[ ]	/* 1 value pushed */
12 
SRP0[ ]	/* SetRefPoint0 */
PUSHB[ ]	/* 1 value pushed */
6 
MDRP[10000]	/* MoveDirectRelPt */
PUSHB[ ]	/* 1 value pushed */
12 
SRP0[ ]	/* SetRefPoint0 */
PUSHB[ ]	/* 1 value pushed */
9 
MDRP[10000]	/* MoveDirectRelPt */
PUSHB[ ]	/* 1 value pushed */
12 
SRP0[ ]	/* SetRefPoint0 */
PUSHB[ ]	/* 1 value pushed */
13 
MDRP[10000]	/* MoveDirectRelPt */
SVTCA[0]	/* SetFreedomAndProjectionVectorToAxis */
PUSHB[ ]	/* 1 value pushed */
0 
RCVT[ ]	/* ReadCVT */
IF[ ]	/* If */
PUSHB[ ]	/* 1 value pushed */
2 
MDAP[1]	/* MoveDirectAbsPt */
ELSE[ ]	/* Else */
PUSHB[ ]	/* 2 values pushed */
2 30 
MIAP[0]	/* MoveIndirectAbsPt */
EIF[ ]	/* EndIf */
PUSHB[ ]	/* 1 value pushed */
0 
RCVT[ ]	/* ReadCVT */
IF[ ]	/* If */
PUSHB[ ]	/* 1 value pushed */
0 
MDAP[1]	/* MoveDirectAbsPt */
ELSE[ ]	/* Else */
PUSHB[ ]	/* 2 values pushed */
0 18 
MIAP[0]	/* MoveIndirectAbsPt */
EIF[ ]	/* EndIf */
PUSHB[ ]	/* 3 values pushed */
4 2 0 
SRP1[ ]	/* SetRefPoint1 */
SRP2[ ]	/* SetRefPoint2 */
IP[ ]	/* InterpolatePts */
PUSHB[ ]	/* 3 values pushed */
5 2 0 
SRP1[ ]	/* SetRefPoint1 */
SRP2[ ]	/* SetRefPoint2 */
IP[ ]	/* InterpolatePts */
PUSHB[ ]	/* 3 values pushed */
7 2 0 
SRP1[ ]	/* SetRefPoint1 */
SRP2[ ]	/* SetRefPoint2 */
IP[ ]	/* InterpolatePts */
PUSHB[ ]	/* 3 values pushed */
8 2 0 
SRP1[ ]	/* SetRefPoint1 */
SRP2[ ]	/* SetRefPoint2 */
IP[ ]	/* InterpolatePts */
PUSHB[ ]	/* 2 values pushed */
10 12 
MIRP[10100]	/* MoveIndirectRelPt */
PUSHB[ ]	/* 3 values pushed */
12 2 0 
SRP1[ ]	/* SetRefPoint1 */
SRP2[ ]	/* SetRefPoint2 */
IP[ ]	/* InterpolatePts */
PUSHB[ ]	/* 3 values pushed */
13 2 0 
SRP1[ ]	/* SetRefPoint1 */
SRP2[ ]	/* SetRefPoint2 */
IP[ ]	/* InterpolatePts */
PUSHB[ ]	/* 1 value pushed */
2 
SRP0[ ]	/* SetRefPoint0 */
PUSHB[ ]	/* 2 values pushed */
14 12 
MIRP[10100]	/* MoveIndirectRelPt */
IUP[0]	/* InterpolateUntPts */
IUP[1]	/* InterpolateUntPts */";
};
width = 908;
}
);
note = .notdef;
},
{
glyphname = exclam;
layers = (
{
layerId = "A9B054E9-1A63-4AEF-9EE1-561B1DFE8422";
paths = (
{
closed = 1;
nodes = (
"361 1456 LINE",
"167 1456 LINE",
"180 411 LINE",
"347 411 LINE",
"347 411 LINE"
);
},
{
closed = 1;
nodes = (
"160 48 OFFCURVE",
"215 -11 OFFCURVE",
"323 -11 OFFCURVE",
"379 48 OFFCURVE",
"379 138 OFFCURVE",
"323 199 OFFCURVE",
"215 199 OFFCURVE",
"160 138 OFFCURVE",
"160 93 QCURVE",
"160 93 LINE"
);
}
);
userData = {
assembly = "SVTCA[0]	/* SetFreedomAndProjectionVectorToAxis */
PUSHB[ ]	/* 1 value pushed */
0 
RCVT[ ]	/* ReadCVT */
IF[ ]	/* If */
PUSHB[ ]	/* 1 value pushed */
2 
MDAP[1]	/* MoveDirectAbsPt */
ELSE[ ]	/* Else */
PUSHB[ ]	/* 2 values pushed */
2 30 
MIAP[0]	/* MoveIndirectAbsPt */
EIF[ ]	/* EndIf */
PUSHB[ ]	/* 1 value pushed */
0 
RCVT[ ]	/* ReadCVT */
IF[ ]	/* If */
PUSHB[ ]	/* 1 value pushed */
11 
MDAP[1]	/* MoveDirectAbsPt */
ELSE[ ]	/* Else */
PUSHB[ ]	/* 2 values pushed */
11 18 
MIAP[0]	/* MoveIndirectAbsPt */
EIF[ ]	/* EndIf */
PUSHB[ ]	/* 2 values pushed */
6 5 
PUSHB[ ]	/* 1 value pushed */
10 
CALL[ ]	/* CallFunction */
IF[ ]	/* If */
POP[ ]	/* PopTopStack */
MDRP[11000]	/* MoveDirectRelPt */
ELSE[ ]	/* Else */
MIRP[10100]	/* MoveIndirectRelPt */
EIF[ ]	/* EndIf */
PUSHB[ ]	/* 3 values pushed */
1 6 2 
SRP1[ ]	/* SetRefPoint1 */
SRP2[ ]	/* SetRefPoint2 */
IP[ ]	/* InterpolatePts */
IUP[0]	/* InterpolateUntPts */
IUP[1]	/* InterpolateUntPts */";
};
width = 527;
}
);
note = uni0021;
unicode = 0021;
},
{
glyphname = quotedbl;
layers = (
{
layerId = "A9B054E9-1A63-4AEF-9EE1-561B1DFE8422";
paths = (
{
closed = 1;
nodes = (
"277 1536 LINE",
"137 1536 LINE",
"136 1042 LINE",
"247 1042 LINE",
"277 1400 LINE",
"277 1400 LINE"
);
},
{
closed = 1;
nodes = (
"547 1536 LINE",
"407 1536 LINE",
"406 1042 LINE",
"517 1042 LINE",
"547 1400 LINE",
"547 1400 LINE"
);
}
);
userData = {
assembly = "SVTCA[0]	/* SetFreedomAndProjectionVectorToAxis */
PUSHB[ ]	/* 1 value pushed */
3 
MDAP[1]	/* MoveDirectAbsPt */
PUSHB[ ]	/* 3 values pushed */
2 10 3 
SRP1[ ]	/* SetRefPoint1 */
SRP2[ ]	/* SetRefPoint2 */
IP[ ]	/* InterpolatePts */
PUSHB[ ]	/* 1 value pushed */
2 
MDAP[1]	/* MoveDirectAbsPt */
PUSHB[ ]	/* 1 value pushed */
7 
MDRP[10000]	/* MoveDirectRelPt */
PUSHB[ ]	/* 1 value pushed */
3 
SRP0[ ]	/* SetRefPoint0 */
PUSHB[ ]	/* 1 value pushed */
8 
MDRP[10000]	/* MoveDirectRelPt */
IUP[0]	/* InterpolateUntPts */
IUP[1]	/* InterpolateUntPts */";
};
width = 655;
}
);
leftKerningGroup = quotedbl;
note = uni0022;
rightKerningGroup = quotedbl;
unicode = 0022;
},
{
glyphname = numbersign;
layers = (
{
layerId = "A9B054E9-1A63-4AEF-9EE1-561B1DFE8422";
paths = (
{
closed = 1;
nodes = (
"685 0 LINE",
"829 0 LINE",
"909 410 LINE",
"1160 410 LINE",
"1160 547 LINE",
"935 547 LINE",
"1004 901 LINE",
"1235 901 LINE",
"1235 1040 LINE",
"1031 1040 LINE",
"1113 1456 LINE",
"969 1456 LINE",
"887 1040 LINE",
"623 1040 LINE",
"705 1456 LINE",
"562 1456 LINE",
"480 1040 LINE",
"195 1040 LINE",
"195 901 LINE",
"453 901 LINE",
"384 547 LINE",
"119 547 LINE",
"119 410 LINE",
"358 410 LINE",
"278 0 LINE",
"421 0 LINE",
"501 410 LINE",
"765 410 LINE",
"765 410 LINE"
);
},
{
closed = 1;
nodes = (
"596 901 LINE",
"860 901 LINE",
"791 547 LINE",
"527 547 LINE",
"527 547 LINE"
);
}
);
userData = {
assembly = "SVTCA[0]	/* SetFreedomAndProjectionVectorToAxis */
PUSHB[ ]	/* 1 value pushed */
0 
RCVT[ ]	/* ReadCVT */
IF[ ]	/* If */
PUSHB[ ]	/* 1 value pushed */
12 
MDAP[1]	/* MoveDirectAbsPt */
ELSE[ ]	/* Else */
PUSHB[ ]	/* 2 values pushed */
12 30 
MIAP[0]	/* MoveIndirectAbsPt */
EIF[ ]	/* EndIf */
PUSHB[ ]	/* 1 value pushed */
0 
RCVT[ ]	/* ReadCVT */
IF[ ]	/* If */
PUSHB[ ]	/* 1 value pushed */
16 
MDAP[1]	/* MoveDirectAbsPt */
ELSE[ ]	/* Else */
PUSHB[ ]	/* 2 values pushed */
16 30 
MIAP[0]	/* MoveIndirectAbsPt */
EIF[ ]	/* EndIf */
PUSHB[ ]	/* 1 value pushed */
0 
RCVT[ ]	/* ReadCVT */
IF[ ]	/* If */
PUSHB[ ]	/* 1 value pushed */
2 
MDAP[1]	/* MoveDirectAbsPt */
ELSE[ ]	/* Else */
PUSHB[ ]	/* 2 values pushed */
2 18 
MIAP[0]	/* MoveIndirectAbsPt */
EIF[ ]	/* EndIf */
PUSHB[ ]	/* 1 value pushed */
0 
RCVT[ ]	/* ReadCVT */
IF[ ]	/* If */
PUSHB[ ]	/* 1 value pushed */
26 
MDAP[1]	/* MoveDirectAbsPt */
ELSE[ ]	/* Else */
PUSHB[ ]	/* 2 values pushed */
26 18 
MIAP[0]	/* MoveIndirectAbsPt */
EIF[ ]	/* EndIf */
PUSHB[ ]	/* 3 values pushed */
29 12 2 
SRP1[ ]	/* SetRefPoint1 */
SRP2[ ]	/* SetRefPoint2 */
IP[ ]	/* InterpolatePts */
RUTG[ ]	/* RoundUpToGrid */
PUSHB[ ]	/* 1 value pushed */
29 
MDAP[1]	/* MoveDirectAbsPt */
RTG[ ]	/* RoundToGrid */
PUSHB[ ]	/* 2 values pushed */
0 3 
PUSHB[ ]	/* 1 value pushed */
10 
CALL[ ]	/* CallFunction */
IF[ ]	/* If */
POP[ ]	/* PopTopStack */
MDRP[11000]	/* MoveDirectRelPt */
ELSE[ ]	/* Else */
MIRP[10100]	/* MoveIndirectRelPt */
EIF[ ]	/* EndIf */
PUSHB[ ]	/* 1 value pushed */
4 
MDRP[10000]	/* MoveDirectRelPt */
PUSHB[ ]	/* 1 value pushed */
29 
SRP0[ ]	/* SetRefPoint0 */
PUSHB[ ]	/* 1 value pushed */
6 
MDRP[10000]	/* MoveDirectRelPt */
PUSHB[ ]	/* 1 value pushed */
29 
SRP0[ ]	/* SetRefPoint0 */
PUSHB[ ]	/* 1 value pushed */
11 
MDRP[10000]	/* MoveDirectRelPt */
PUSHB[ ]	/* 1 value pushed */
11 
MDAP[1]	/* MoveDirectAbsPt */
PUSHB[ ]	/* 2 values pushed */
8 3 
PUSHB[ ]	/* 1 value pushed */
10 
CALL[ ]	/* CallFunction */
IF[ ]	/* If */
POP[ ]	/* PopTopStack */
MDRP[11000]	/* MoveDirectRelPt */
ELSE[ ]	/* Else */
MIRP[10100]	/* MoveIndirectRelPt */
EIF[ ]	/* EndIf */
PUSHB[ ]	/* 1 value pushed */
11 
SRP0[ ]	/* SetRefPoint0 */
PUSHB[ ]	/* 1 value pushed */
14 
MDRP[10000]	/* MoveDirectRelPt */
PUSHB[ ]	/* 1 value pushed */
11 
SRP0[ ]	/* SetRefPoint0 */
PUSHB[ ]	/* 1 value pushed */
18 
MDRP[10000]	/* MoveDirectRelPt */
PUSHB[ ]	/* 1 value pushed */
8 
SRP0[ ]	/* SetRefPoint0 */
PUSHB[ ]	/* 1 value pushed */
20 
MDRP[10000]	/* MoveDirectRelPt */
PUSHB[ ]	/* 1 value pushed */
29 
SRP0[ ]	/* SetRefPoint0 */
PUSHB[ ]	/* 1 value pushed */
22 
MDRP[10000]	/* MoveDirectRelPt */
PUSHB[ ]	/* 1 value pushed */
0 
SRP0[ ]	/* SetRefPoint0 */
PUSHB[ ]	/* 1 value pushed */
24 
MDRP[10000]	/* MoveDirectRelPt */
PUSHB[ ]	/* 1 value pushed */
8 
SRP0[ ]	/* SetRefPoint0 */
PUSHB[ ]	/* 1 value pushed */
30 
MDRP[10000]	/* MoveDirectRelPt */
IUP[0]	/* InterpolateUntPts */
IUP[1]	/* InterpolateUntPts */";
};
width = 1261;
}
);
note = uni0023;
unicode = 0023;
},
{
glyphname = dollar;
layers = (
{
layerId = "A9B054E9-1A63-4AEF-9EE1-561B1DFE8422";
paths = (
{
closed = 1;
nodes = (
"856 266 OFFCURVE",
"706 140 OFFCURVE",
"575 140 QCURVE SMOOTH",
"441 140 OFFCURVE",
"295 290 OFFCURVE",
"295 429 QCURVE",
"110 429 LINE",
"110 231 OFFCURVE",
"321 0 OFFCURVE",
"507 -17 QCURVE",
"507 -208 LINE",
"655 -208 LINE",
"655 -17 LINE",
"838 2 OFFCURVE",
"1041 208 OFFCURVE",
"1041 377 QCURVE SMOOTH",
"1041 483 OFFCURVE",
"960 641 OFFCURVE",
"789 760 OFFCURVE",
"484 859 OFFCURVE",
"351 980 OFFCURVE",
"351 1082 QCURVE SMOOTH",
"351 1192 OFFCURVE",
"477 1315 OFFCURVE",
"596 1315 QCURVE SMOOTH",
"710 1315 OFFCURVE",
"844 1149 OFFCURVE",
"844 1008 QCURVE",
"1028 1008 LINE",
"1028 1213 OFFCURVE",
"841 1449 OFFCURVE",
"673 1472 QCURVE",
"673 1692 LINE",
"524 1692 LINE",
"524 1473 LINE",
"357 1453 OFFCURVE",
"166 1243 OFFCURVE",
"166 1079 QCURVE SMOOTH",
"166 918 OFFCURVE",
"361 709 OFFCURVE",
"574 644 QCURVE SMOOTH",
"727 593 OFFCURVE",
"856 467 OFFCURVE",
"856 375 QCURVE",
"856 375 LINE"
);
}
);
userData = {
assembly = "SVTCA[0]	/* SetFreedomAndProjectionVectorToAxis */
PUSHB[ ]	/* 1 value pushed */
0 
RCVT[ ]	/* ReadCVT */
IF[ ]	/* If */
PUSHB[ ]	/* 1 value pushed */
9 
MDAP[1]	/* MoveDirectAbsPt */
ELSE[ ]	/* Else */
PUSHB[ ]	/* 2 values pushed */
9 30 
MIAP[0]	/* MoveIndirectAbsPt */
EIF[ ]	/* EndIf */
PUSHB[ ]	/* 1 value pushed */
0 
RCVT[ ]	/* ReadCVT */
IF[ ]	/* If */
PUSHB[ ]	/* 1 value pushed */
34 
MDAP[1]	/* MoveDirectAbsPt */
ELSE[ ]	/* Else */
PUSHB[ ]	/* 2 values pushed */
34 18 
MIAP[0]	/* MoveIndirectAbsPt */
EIF[ ]	/* EndIf */
PUSHB[ ]	/* 3 values pushed */
2 34 9 
SRP1[ ]	/* SetRefPoint1 */
SRP2[ ]	/* SetRefPoint2 */
IP[ ]	/* InterpolatePts */
PUSHB[ ]	/* 1 value pushed */
9 
SRP0[ ]	/* SetRefPoint0 */
PUSHB[ ]	/* 1 value pushed */
12 
MDRP[10000]	/* MoveDirectRelPt */
PUSHB[ ]	/* 1 value pushed */
9 
SRP0[ ]	/* SetRefPoint0 */
PUSHB[ ]	/* 1 value pushed */
16 
MDRP[10000]	/* MoveDirectRelPt */
PUSHB[ ]	/* 1 value pushed */
9 
SRP0[ ]	/* SetRefPoint0 */
PUSHB[ ]	/* 2 values pushed */
19 1 
PUSHB[ ]	/* 1 value pushed */
10 
CALL[ ]	/* CallFunction */
IF[ ]	/* If */
POP[ ]	/* PopTopStack */
MDRP[11000]	/* MoveDirectRelPt */
ELSE[ ]	/* Else */
MIRP[10100]	/* MoveIndirectRelPt */
EIF[ ]	/* EndIf */
PUSHB[ ]	/* 1 value pushed */
2 
SRP0[ ]	/* SetRefPoint0 */
PUSHB[ ]	/* 2 values pushed */
25 1 
PUSHB[ ]	/* 1 value pushed */
10 
CALL[ ]	/* CallFunction */
IF[ ]	/* If */
POP[ ]	/* PopTopStack */
MDRP[11000]	/* MoveDirectRelPt */
ELSE[ ]	/* Else */
MIRP[10100]	/* MoveIndirectRelPt */
EIF[ ]	/* EndIf */
PUSHB[ ]	/* 1 value pushed */
34 
SRP0[ ]	/* SetRefPoint0 */
PUSHB[ ]	/* 1 value pushed */
31 
MDRP[10000]	/* MoveDirectRelPt */
PUSHB[ ]	/* 1 value pushed */
34 
SRP0[ ]	/* SetRefPoint0 */
PUSHB[ ]	/* 1 value pushed */
38 
MDRP[10000]	/* MoveDirectRelPt */
PUSHB[ ]	/* 1 value pushed */
34 
SRP0[ ]	/* SetRefPoint0 */
PUSHB[ ]	/* 2 values pushed */
41 1 
PUSHB[ ]	/* 1 value pushed */
10 
CALL[ ]	/* CallFunction */
IF[ ]	/* If */
POP[ ]	/* PopTopStack */
MDRP[11000]	/* MoveDirectRelPt */
ELSE[ ]	/* Else */
MIRP[10100]	/* MoveIndirectRelPt */
EIF[ ]	/* EndIf */
IUP[0]	/* InterpolateUntPts */
IUP[1]	/* InterpolateUntPts */";
};
width = 1150;
}
);
note = uni0024;
unicode = 0024;
},
{
glyphname = percent;
layers = (
{
layerId = "A9B054E9-1A63-4AEF-9EE1-561B1DFE8422";
paths = (
{
closed = 1;
nodes = (
"105 1106 LINE SMOOTH",
"105 967 OFFCURVE",
"275 800 OFFCURVE",
"405 800 QCURVE SMOOTH",
"534 800 OFFCURVE",
"701 967 OFFCURVE",
"701 1099 QCURVE SMOOTH",
"701 1170 LINE SMOOTH",
"701 1306 OFFCURVE",
"536 1477 OFFCURVE",
"403 1477 QCURVE SMOOTH",
"272 1477 OFFCURVE",
"105 1307 OFFCURVE",
"105 1176 QCURVE",
"105 1176 LINE"
);
},
{
closed = 1;
nodes = (
"243 1172 LINE SMOOTH",
"243 1254 OFFCURVE",
"329 1356 OFFCURVE",
"477 1356 OFFCURVE",
"563 1254 OFFCURVE",
"563 1176 QCURVE SMOOTH",
"563 1103 LINE SMOOTH",
"563 1018 OFFCURVE",
"476 920 OFFCURVE",
"405 920 QCURVE SMOOTH",
"331 920 OFFCURVE",
"243 1021 OFFCURVE",
"243 1099 QCURVE",
"243 1099 LINE"
);
},
{
closed = 1;
nodes = (
"814 285 LINE SMOOTH",
"814 146 OFFCURVE",
"984 -21 OFFCURVE",
"1244 -21 OFFCURVE",
"1411 148 OFFCURVE",
"1411 279 QCURVE SMOOTH",
"1411 350 LINE SMOOTH",
"1411 489 OFFCURVE",
"1243 657 OFFCURVE",
"981 657 OFFCURVE",
"814 488 OFFCURVE",
"814 357 QCURVE",
"814 357 LINE"
);
},
{
closed = 1;
nodes = (
"952 353 LINE SMOOTH",
"952 437 OFFCURVE",
"1041 536 OFFCURVE",
"1112 536 QCURVE SMOOTH",
"1185 536 OFFCURVE",
"1272 436 OFFCURVE",
"1272 357 QCURVE SMOOTH",
"1272 283 LINE SMOOTH",
"1272 198 OFFCURVE",
"1186 99 OFFCURVE",
"1114 99 QCURVE SMOOTH",
"1040 99 OFFCURVE",
"952 200 OFFCURVE",
"952 279 QCURVE",
"952 279 LINE"
);
},
{
closed = 1;
nodes = (
"1158 1248 LINE",
"1053 1314 LINE",
"342 176 LINE",
"447 110 LINE",
"447 110 LINE"
);
}
);
userData = {
assembly = "SVTCA[0]	/* SetFreedomAndProjectionVectorToAxis */
PUSHB[ ]	/* 1 value pushed */
0 
RCVT[ ]	/* ReadCVT */
IF[ ]	/* If */
PUSHB[ ]	/* 1 value pushed */
3 
MDAP[1]	/* MoveDirectAbsPt */
ELSE[ ]	/* Else */
PUSHB[ ]	/* 2 values pushed */
3 30 
MIAP[0]	/* MoveIndirectAbsPt */
EIF[ ]	/* EndIf */
PUSHB[ ]	/* 1 value pushed */
0 
RCVT[ ]	/* ReadCVT */
IF[ ]	/* If */
PUSHB[ ]	/* 1 value pushed */
35 
MDAP[1]	/* MoveDirectAbsPt */
ELSE[ ]	/* Else */
PUSHB[ ]	/* 2 values pushed */
35 18 
MIAP[0]	/* MoveIndirectAbsPt */
EIF[ ]	/* EndIf */
PUSHB[ ]	/* 1 value pushed */
3 
SRP0[ ]	/* SetRefPoint0 */
PUSHB[ ]	/* 1 value pushed */
10 
MDRP[10000]	/* MoveDirectRelPt */
PUSHB[ ]	/* 1 value pushed */
10 
MDAP[1]	/* MoveDirectAbsPt */
PUSHB[ ]	/* 2 values pushed */
17 4 
PUSHB[ ]	/* 1 value pushed */
10 
CALL[ ]	/* CallFunction */
IF[ ]	/* If */
POP[ ]	/* PopTopStack */
MDRP[11000]	/* MoveDirectRelPt */
ELSE[ ]	/* Else */
MIRP[10100]	/* MoveIndirectRelPt */
EIF[ ]	/* EndIf */
PUSHB[ ]	/* 1 value pushed */
3 
SRP0[ ]	/* SetRefPoint0 */
PUSHB[ ]	/* 2 values pushed */
24 4 
PUSHB[ ]	/* 1 value pushed */
10 
CALL[ ]	/* CallFunction */
IF[ ]	/* If */
POP[ ]	/* PopTopStack */
MDRP[11000]	/* MoveDirectRelPt */
ELSE[ ]	/* Else */
MIRP[10100]	/* MoveIndirectRelPt */
EIF[ ]	/* EndIf */
PUSHB[ ]	/* 1 value pushed */
35 
SRP0[ ]	/* SetRefPoint0 */
PUSHB[ ]	/* 1 value pushed */
29 
MDRP[10000]	/* MoveDirectRelPt */
PUSHB[ ]	/* 1 value pushed */
29 
MDAP[1]	/* MoveDirectAbsPt */
PUSHB[ ]	/* 1 value pushed */
35 
SRP0[ ]	/* SetRefPoint0 */
PUSHB[ ]	/* 2 values pushed */
42 4 
PUSHB[ ]	/* 1 value pushed */
10 
CALL[ ]	/* CallFunction */
IF[ ]	/* If */
POP[ ]	/* PopTopStack */
MDRP[11000]	/* MoveDirectRelPt */
ELSE[ ]	/* Else */
MIRP[10100]	/* MoveIndirectRelPt */
EIF[ ]	/* EndIf */
PUSHB[ ]	/* 1 value pushed */
29 
SRP0[ ]	/* SetRefPoint0 */
PUSHB[ ]	/* 2 values pushed */
49 4 
PUSHB[ ]	/* 1 value pushed */
10 
CALL[ ]	/* CallFunction */
IF[ ]	/* If */
POP[ ]	/* PopTopStack */
MDRP[11000]	/* MoveDirectRelPt */
ELSE[ ]	/* Else */
MIRP[10100]	/* MoveIndirectRelPt */
EIF[ ]	/* EndIf */
PUSHB[ ]	/* 3 values pushed */
53 35 3 
SRP1[ ]	/* SetRefPoint1 */
SRP2[ ]	/* SetRefPoint2 */
IP[ ]	/* InterpolatePts */
PUSHB[ ]	/* 1 value pushed */
53 
MDAP[1]	/* MoveDirectAbsPt */
PUSHB[ ]	/* 3 values pushed */
55 3 35 
SRP1[ ]	/* SetRefPoint1 */
SRP2[ ]	/* SetRefPoint2 */
IP[ ]	/* InterpolatePts */
PUSHB[ ]	/* 1 value pushed */
55 
MDAP[1]	/* MoveDirectAbsPt */
IUP[0]	/* InterpolateUntPts */
IUP[1]	/* InterpolateUntPts */";
};
width = 1500;
}
);
note = uni0025;
unicode = 0025;
},
{
glyphname = ampersand;
layers = (
{
layerId = "A9B054E9-1A63-4AEF-9EE1-561B1DFE8422";
paths = (
{
closed = 1;
nodes = (
"101 206 OFFCURVE",
"359 -20 OFFCURVE",
"572 -20 QCURVE SMOOTH",
"675 -20 OFFCURVE",
"874 49 OFFCURVE",
"948 115 QCURVE",
"1045 0 LINE",
"1267 0 LINE",
"1059 249 LINE",
"1182 417 OFFCURVE",
"1182 672 QCURVE",
"1015 672 LINE",
"1015 513 OFFCURVE",
"947 383 QCURVE",
"623 770 LINE",
"730 849 LINE SMOOTH",
"841 931 OFFCURVE",
"930 1080 OFFCURVE",
"930 1168 QCURVE SMOOTH",
"930 1301 OFFCURVE",
"734 1476 OFFCURVE",
"584 1476 QCURVE SMOOTH",
"416 1476 OFFCURVE",
"220 1288 OFFCURVE",
"220 1122 QCURVE SMOOTH",
"220 1051 OFFCURVE",
"286 907 OFFCURVE",
"383 789 QCURVE",
"218 672 OFFCURVE",
"101 496 OFFCURVE",
"101 391 QCURVE",
"101 391 LINE"
);
},
{
closed = 1;
nodes = (
"439 131 OFFCURVE",
"286 273 OFFCURVE",
"286 391 QCURVE SMOOTH",
"286 521 OFFCURVE",
"453 644 QCURVE SMOOTH",
"486 668 LINE",
"841 243 LINE",
"719 131 OFFCURVE",
"572 131 QCURVE",
"572 131 LINE"
);
},
{
closed = 1;
nodes = (
"405 1213 OFFCURVE",
"501 1324 OFFCURVE",
"583 1324 QCURVE SMOOTH",
"659 1324 OFFCURVE",
"759 1235 OFFCURVE",
"759 1168 QCURVE SMOOTH",
"759 1106 OFFCURVE",
"709 1019 OFFCURVE",
"641 971 QCURVE SMOOTH",
"523 888 LINE",
"405 1032 OFFCURVE",
"405 1128 QCURVE",
"405 1128 LINE"
);
}
);
userData = {
assembly = "SVTCA[0]	/* SetFreedomAndProjectionVectorToAxis */
PUSHB[ ]	/* 1 value pushed */
0 
RCVT[ ]	/* ReadCVT */
IF[ ]	/* If */
PUSHB[ ]	/* 1 value pushed */
9 
MDAP[1]	/* MoveDirectAbsPt */
ELSE[ ]	/* Else */
PUSHB[ ]	/* 2 values pushed */
9 30 
MIAP[0]	/* MoveIndirectAbsPt */
EIF[ ]	/* EndIf */
PUSHB[ ]	/* 1 value pushed */
0 
RCVT[ ]	/* ReadCVT */
IF[ ]	/* If */
PUSHB[ ]	/* 1 value pushed */
28 
MDAP[1]	/* MoveDirectAbsPt */
ELSE[ ]	/* Else */
PUSHB[ ]	/* 2 values pushed */
28 18 
MIAP[0]	/* MoveIndirectAbsPt */
EIF[ ]	/* EndIf */
PUSHB[ ]	/* 1 value pushed */
0 
RCVT[ ]	/* ReadCVT */
IF[ ]	/* If */
PUSHB[ ]	/* 1 value pushed */
24 
MDAP[1]	/* MoveDirectAbsPt */
ELSE[ ]	/* Else */
PUSHB[ ]	/* 2 values pushed */
24 18 
MIAP[0]	/* MoveIndirectAbsPt */
EIF[ ]	/* EndIf */
PUSHB[ ]	/* 3 values pushed */
34 28 9 
SRP1[ ]	/* SetRefPoint1 */
SRP2[ ]	/* SetRefPoint2 */
IP[ ]	/* InterpolatePts */
PUSHB[ ]	/* 3 values pushed */
42 9 28 
SRP1[ ]	/* SetRefPoint1 */
SRP2[ ]	/* SetRefPoint2 */
IP[ ]	/* InterpolatePts */
PUSHB[ ]	/* 3 values pushed */
3 34 42 
SRP1[ ]	/* SetRefPoint1 */
SRP2[ ]	/* SetRefPoint2 */
IP[ ]	/* InterpolatePts */
PUSHB[ ]	/* 3 values pushed */
16 42 34 
SRP1[ ]	/* SetRefPoint1 */
SRP2[ ]	/* SetRefPoint2 */
IP[ ]	/* InterpolatePts */
PUSHB[ ]	/* 3 values pushed */
17 9 28 
SRP1[ ]	/* SetRefPoint1 */
SRP2[ ]	/* SetRefPoint2 */
IP[ ]	/* InterpolatePts */
PUSHB[ ]	/* 3 values pushed */
19 28 9 
SRP1[ ]	/* SetRefPoint1 */
SRP2[ ]	/* SetRefPoint2 */
IP[ ]	/* InterpolatePts */
PUSHB[ ]	/* 3 values pushed */
25 28 9 
SRP1[ ]	/* SetRefPoint1 */
SRP2[ ]	/* SetRefPoint2 */
IP[ ]	/* InterpolatePts */
PUSHB[ ]	/* 3 values pushed */
22 17 25 
SRP1[ ]	/* SetRefPoint1 */
SRP2[ ]	/* SetRefPoint2 */
IP[ ]	/* InterpolatePts */
PUSHB[ ]	/* 1 value pushed */
28 
SRP0[ ]	/* SetRefPoint0 */
PUSHB[ ]	/* 2 values pushed */
31 1 
PUSHB[ ]	/* 1 value pushed */
10 
CALL[ ]	/* CallFunction */
IF[ ]	/* If */
POP[ ]	/* PopTopStack */
MDRP[11000]	/* MoveDirectRelPt */
ELSE[ ]	/* Else */
MIRP[10100]	/* MoveIndirectRelPt */
EIF[ ]	/* EndIf */
PUSHB[ ]	/* 3 values pushed */
33 31 17 
SRP1[ ]	/* SetRefPoint1 */
SRP2[ ]	/* SetRefPoint2 */
IP[ ]	/* InterpolatePts */
PUSHB[ ]	/* 1 value pushed */
9 
SRP0[ ]	/* SetRefPoint0 */
PUSHB[ ]	/* 2 values pushed */
49 1 
PUSHB[ ]	/* 1 value pushed */
10 
CALL[ ]	/* CallFunction */
IF[ ]	/* If */
POP[ ]	/* PopTopStack */
MDRP[11000]	/* MoveDirectRelPt */
ELSE[ ]	/* Else */
MIRP[10100]	/* MoveIndirectRelPt */
EIF[ ]	/* EndIf */
IUP[0]	/* InterpolateUntPts */
IUP[1]	/* InterpolateUntPts */";
};
width = 1273;
}
);
note = uni0026;
unicode = 0026;
},
{
glyphname = quotesingle;
layers = (
{
layerId = "A9B054E9-1A63-4AEF-9EE1-561B1DFE8422";
paths = (
{
closed = 1;
nodes = (
"253 1536 LINE",
"104 1536 LINE",
"103 1057 LINE",
"232 1057 LINE",
"253 1425 LINE",
"253 1425 LINE"
);
}
);
userData = {
assembly = "SVTCA[0]	/* SetFreedomAndProjectionVectorToAxis */
PUSHB[ ]	/* 1 value pushed */
3 
MDAP[1]	/* MoveDirectAbsPt */
PUSHB[ ]	/* 3 values pushed */
2 5 3 
SRP1[ ]	/* SetRefPoint1 */
SRP2[ ]	/* SetRefPoint2 */
IP[ ]	/* InterpolatePts */
PUSHB[ ]	/* 1 value pushed */
2 
MDAP[1]	/* MoveDirectAbsPt */
IUP[0]	/* InterpolateUntPts */
IUP[1]	/* InterpolateUntPts */";
};
width = 357;
}
);
leftKerningGroup = quotedbl;
note = uni0027;
rightKerningGroup = quotedbl;
unicode = 0027;
},
{
glyphname = parenleft;
layers = (
{
layerId = "A9B054E9-1A63-4AEF-9EE1-561B1DFE8422";
paths = (
{
closed = 1;
nodes = (
"133 118 OFFCURVE",
"369 -222 QCURVE SMOOTH",
"490 -396 OFFCURVE",
"623 -470 QCURVE",
"661 -357 LINE",
"544 -261 OFFCURVE",
"459 -91 QCURVE SMOOTH",
"318 193 OFFCURVE",
"318 579 QCURVE SMOOTH",
"319 664 LINE SMOOTH",
"328 949 OFFCURVE",
"515 1409 OFFCURVE",
"661 1521 QCURVE",
"623 1643 LINE",
"494 1573 OFFCURVE",
"254 1233 OFFCURVE",
"133 817 OFFCURVE",
"133 591 QCURVE",
"133 591 LINE"
);
}
);
userData = {
assembly = "SVTCA[0]	/* SetFreedomAndProjectionVectorToAxis */
PUSHB[ ]	/* 1 value pushed */
14 
MDAP[1]	/* MoveDirectAbsPt */
PUSHB[ ]	/* 1 value pushed */
4 
MDAP[1]	/* MoveDirectAbsPt */
IUP[0]	/* InterpolateUntPts */
IUP[1]	/* InterpolateUntPts */";
};
width = 700;
}
);
note = uni0028;
unicode = 0028;
},
{
glyphname = parenright;
layers = (
{
layerId = "A9B054E9-1A63-4AEF-9EE1-561B1DFE8422";
paths = (
{
closed = 1;
nodes = (
"567 816 OFFCURVE",
"448 1228 OFFCURVE",
"209 1570 OFFCURVE",
"77 1643 QCURVE",
"38 1530 LINE",
"136 1450 OFFCURVE",
"293 1164 OFFCURVE",
"381 803 OFFCURVE",
"381 593 QCURVE SMOOTH",
"381 561 LINE SMOOTH",
"379 258 OFFCURVE",
"192 -239 OFFCURVE",
"38 -357 QCURVE",
"77 -470 LINE",
"209 -397 OFFCURVE",
"450 -51 OFFCURVE",
"567 358 OFFCURVE",
"567 581 QCURVE",
"567 581 LINE"
);
}
);
userData = {
assembly = "SVTCA[0]	/* SetFreedomAndProjectionVectorToAxis */
PUSHB[ ]	/* 1 value pushed */
14 
MDAP[1]	/* MoveDirectAbsPt */
PUSHB[ ]	/* 1 value pushed */
4 
MDAP[1]	/* MoveDirectAbsPt */
IUP[0]	/* InterpolateUntPts */
IUP[1]	/* InterpolateUntPts */";
};
width = 712;
}
);
note = uni0029;
unicode = 0029;
},
{
glyphname = asterisk;
layers = (
{
layerId = "A9B054E9-1A63-4AEF-9EE1-561B1DFE8422";
paths = (
{
closed = 1;
nodes = (
"129 707 LINE",
"254 616 LINE",
"434 897 LINE",
"620 609 LINE",
"744 703 LINE",
"546 974 LINE",
"853 1065 LINE",
"807 1217 LINE",
"510 1107 LINE",
"520 1456 LINE",
"367 1456 LINE",
"376 1112 LINE",
"74 1224 LINE",
"28 1073 LINE",
"330 983 LINE",
"330 983 LINE"
);
}
);
userData = {
assembly = "SVTCA[0]	/* SetFreedomAndProjectionVectorToAxis */
PUSHB[ ]	/* 1 value pushed */
0 
RCVT[ ]	/* ReadCVT */
IF[ ]	/* If */
PUSHB[ ]	/* 1 value pushed */
4 
MDAP[1]	/* MoveDirectAbsPt */
ELSE[ ]	/* Else */
PUSHB[ ]	/* 2 values pushed */
4 30 
MIAP[0]	/* MoveIndirectAbsPt */
EIF[ ]	/* EndIf */
PUSHB[ ]	/* 1 value pushed */
0 
MDRP[10000]	/* MoveDirectRelPt */
RTHG[ ]	/* RoundToHalfGrid */
PUSHB[ ]	/* 1 value pushed */
0 
MDAP[1]	/* MoveDirectAbsPt */
RTG[ ]	/* RoundToGrid */
PUSHB[ ]	/* 1 value pushed */
9 
MDRP[10000]	/* MoveDirectRelPt */
RTHG[ ]	/* RoundToHalfGrid */
PUSHB[ ]	/* 1 value pushed */
9 
MDAP[1]	/* MoveDirectAbsPt */
RTG[ ]	/* RoundToGrid */
IUP[0]	/* InterpolateUntPts */
IUP[1]	/* InterpolateUntPts */";
};
width = 882;
}
);
note = uni002A;
unicode = 002A;
},
{
glyphname = plus;
layers = (
{
layerId = "A9B054E9-1A63-4AEF-9EE1-561B1DFE8422";
paths = (
{
closed = 1;
nodes = (
"670 1206 LINE",
"484 1206 LINE",
"484 781 LINE",
"78 781 LINE",
"78 606 LINE",
"484 606 LINE",
"484 146 LINE",
"670 146 LINE",
"670 606 LINE",
"1076 606 LINE",
"1076 781 LINE",
"670 781 LINE",
"670 781 LINE"
);
}
);
userData = {
assembly = "SVTCA[0]	/* SetFreedomAndProjectionVectorToAxis */
PUSHB[ ]	/* 1 value pushed */
9 
MDAP[1]	/* MoveDirectAbsPt */
PUSHB[ ]	/* 1 value pushed */
0 
MDRP[10000]	/* MoveDirectRelPt */
PUSHB[ ]	/* 1 value pushed */
9 
SRP0[ ]	/* SetRefPoint0 */
PUSHB[ ]	/* 2 values pushed */
6 1 
PUSHB[ ]	/* 1 value pushed */
10 
CALL[ ]	/* CallFunction */
IF[ ]	/* If */
POP[ ]	/* PopTopStack */
MDRP[11000]	/* MoveDirectRelPt */
ELSE[ ]	/* Else */
MIRP[10100]	/* MoveIndirectRelPt */
EIF[ ]	/* EndIf */
PUSHB[ ]	/* 1 value pushed */
3 
MDRP[10000]	/* MoveDirectRelPt */
IUP[0]	/* InterpolateUntPts */
IUP[1]	/* InterpolateUntPts */";
};
width = 1161;
}
);
note = uni002B;
unicode = 002B;
},
{
glyphname = comma;
layers = (
{
layerId = "A9B054E9-1A63-4AEF-9EE1-561B1DFE8422";
paths = (
{
closed = 1;
nodes = (
"209 -229 OFFCURVE",
"308 -27 OFFCURVE",
"308 74 QCURVE SMOOTH",
"308 219 LINE",
"127 219 LINE",
"127 52 LINE SMOOTH",
"123 -87 OFFCURVE",
"29 -218 QCURVE",
"134 -290 LINE",
"134 -290 LINE"
);
}
);
userData = {
assembly = "SVTCA[0]	/* SetFreedomAndProjectionVectorToAxis */
PUSHB[ ]	/* 1 value pushed */
9 
MDAP[1]	/* MoveDirectAbsPt */
PUSHB[ ]	/* 2 values pushed */
4 5 
PUSHB[ ]	/* 1 value pushed */
10 
CALL[ ]	/* CallFunction */
IF[ ]	/* If */
POP[ ]	/* PopTopStack */
MDRP[11000]	/* MoveDirectRelPt */
ELSE[ ]	/* Else */
MIRP[10100]	/* MoveIndirectRelPt */
EIF[ ]	/* EndIf */
PUSHB[ ]	/* 1 value pushed */
0 
MDRP[10000]	/* MoveDirectRelPt */
PUSHB[ ]	/* 1 value pushed */
0 
MDAP[1]	/* MoveDirectAbsPt */
IUP[0]	/* InterpolateUntPts */
IUP[1]	/* InterpolateUntPts */";
};
width = 402;
}
);
leftKerningGroup = comma;
note = uni002C;
rightKerningGroup = comma;
unicode = 002C;
},
{
glyphname = hyphen;
layers = (
{
layerId = "A9B054E9-1A63-4AEF-9EE1-561B1DFE8422";
paths = (
{
closed = 1;
nodes = (
"525 694 LINE",
"37 694 LINE",
"37 543 LINE",
"525 543 LINE",
"525 543 LINE"
);
}
);
userData = {
assembly = "SVTCA[0]	/* SetFreedomAndProjectionVectorToAxis */
PUSHB[ ]	/* 1 value pushed */
2 
MDAP[1]	/* MoveDirectAbsPt */
PUSHB[ ]	/* 2 values pushed */
1 1 
PUSHB[ ]	/* 1 value pushed */
10 
CALL[ ]	/* CallFunction */
IF[ ]	/* If */
POP[ ]	/* PopTopStack */
MDRP[11000]	/* MoveDirectRelPt */
ELSE[ ]	/* Else */
MIRP[10100]	/* MoveIndirectRelPt */
EIF[ ]	/* EndIf */
IUP[0]	/* InterpolateUntPts */
IUP[1]	/* InterpolateUntPts */";
};
width = 565;
}
);
leftKerningGroup = hyphen;
note = uni002D;
unicode = 002D;
},
{
glyphname = period;
layers = (
{
layerId = "A9B054E9-1A63-4AEF-9EE1-561B1DFE8422";
paths = (
{
closed = 1;
nodes = (
"144 51 OFFCURVE",
"201 -11 OFFCURVE",
"315 -11 OFFCURVE",
"374 51 OFFCURVE",
"374 97 QCURVE SMOOTH",
"374 145 OFFCURVE",
"315 209 OFFCURVE",
"201 209 OFFCURVE",
"144 145 OFFCURVE",
"144 97 QCURVE",
"144 97 LINE"
);
}
);
userData = {
assembly = "SVTCA[0]	/* SetFreedomAndProjectionVectorToAxis */
PUSHB[ ]	/* 1 value pushed */
0 
RCVT[ ]	/* ReadCVT */
IF[ ]	/* If */
PUSHB[ ]	/* 1 value pushed */
7 
MDAP[1]	/* MoveDirectAbsPt */
ELSE[ ]	/* Else */
PUSHB[ ]	/* 2 values pushed */
7 18 
MIAP[0]	/* MoveIndirectAbsPt */
EIF[ ]	/* EndIf */
PUSHB[ ]	/* 2 values pushed */
2 5 
PUSHB[ ]	/* 1 value pushed */
10 
CALL[ ]	/* CallFunction */
IF[ ]	/* If */
POP[ ]	/* PopTopStack */
MDRP[11000]	/* MoveDirectRelPt */
ELSE[ ]	/* Else */
MIRP[10100]	/* MoveIndirectRelPt */
EIF[ ]	/* EndIf */
IUP[0]	/* InterpolateUntPts */
IUP[1]	/* InterpolateUntPts */";
};
width = 539;
}
);
leftKerningGroup = comma;
note = uni002E;
rightKerningGroup = comma;
unicode = 002E;
},
{
glyphname = slash;
layers = (
{
layerId = "A9B054E9-1A63-4AEF-9EE1-561B1DFE8422";
paths = (
{
closed = 1;
nodes = (
"784 1456 LINE",
"626 1456 LINE",
"18 -125 LINE",
"177 -125 LINE",
"177 -125 LINE"
);
}
);
userData = {
assembly = "SVTCA[0]	/* SetFreedomAndProjectionVectorToAxis */
PUSHB[ ]	/* 1 value pushed */
0 
MDAP[1]	/* MoveDirectAbsPt */
PUSHB[ ]	/* 1 value pushed */
0 
RCVT[ ]	/* ReadCVT */
IF[ ]	/* If */
PUSHB[ ]	/* 1 value pushed */
2 
MDAP[1]	/* MoveDirectAbsPt */
ELSE[ ]	/* Else */
PUSHB[ ]	/* 2 values pushed */
2 30 
MIAP[0]	/* MoveIndirectAbsPt */
EIF[ ]	/* EndIf */
IUP[0]	/* InterpolateUntPts */
IUP[1]	/* InterpolateUntPts */";
};
width = 844;
}
);
note = uni002F;
unicode = 002F;
},
{
glyphname = zero;
layers = (
{
layerId = "A9B054E9-1A63-4AEF-9EE1-561B1DFE8422";
paths = (
{
closed = 1;
nodes = (
"1034 861 LINE SMOOTH",
"1031 1175 OFFCURVE",
"809 1476 OFFCURVE",
"574 1476 QCURVE SMOOTH",
"337 1476 OFFCURVE",
"115 1164 OFFCURVE",
"115 843 QCURVE SMOOTH",
"115 596 LINE SMOOTH",
"119 289 OFFCURVE",
"343 -20 OFFCURVE",
"576 -20 QCURVE SMOOTH",
"812 -20 OFFCURVE",
"1034 296 OFFCURVE",
"1034 621 QCURVE",
"1034 621 LINE"
);
},
{
closed = 1;
nodes = (
"849 571 LINE SMOOTH",
"846 343 OFFCURVE",
"713 131 OFFCURVE",
"576 131 QCURVE SMOOTH",
"437 131 OFFCURVE",
"300 356 OFFCURVE",
"300 592 QCURVE SMOOTH",
"300 888 LINE SMOOTH",
"302 1110 OFFCURVE",
"432 1324 OFFCURVE",
"574 1324 QCURVE SMOOTH",
"717 1324 OFFCURVE",
"849 1109 OFFCURVE",
"849 874 QCURVE",
"849 874 LINE"
);
}
);
userData = {
assembly = "SVTCA[0]	/* SetFreedomAndProjectionVectorToAxis */
PUSHB[ ]	/* 1 value pushed */
0 
RCVT[ ]	/* ReadCVT */
IF[ ]	/* If */
PUSHB[ ]	/* 1 value pushed */
10 
MDAP[1]	/* MoveDirectAbsPt */
ELSE[ ]	/* Else */
PUSHB[ ]	/* 2 values pushed */
10 30 
MIAP[0]	/* MoveIndirectAbsPt */
EIF[ ]	/* EndIf */
PUSHB[ ]	/* 1 value pushed */
0 
RCVT[ ]	/* ReadCVT */
IF[ ]	/* If */
PUSHB[ ]	/* 1 value pushed */
3 
MDAP[1]	/* MoveDirectAbsPt */
ELSE[ ]	/* Else */
PUSHB[ ]	/* 2 values pushed */
3 18 
MIAP[0]	/* MoveIndirectAbsPt */
EIF[ ]	/* EndIf */
PUSHB[ ]	/* 1 value pushed */
10 
SRP0[ ]	/* SetRefPoint0 */
PUSHB[ ]	/* 2 values pushed */
17 1 
PUSHB[ ]	/* 1 value pushed */
10 
CALL[ ]	/* CallFunction */
IF[ ]	/* If */
POP[ ]	/* PopTopStack */
MDRP[11000]	/* MoveDirectRelPt */
ELSE[ ]	/* Else */
MIRP[10100]	/* MoveIndirectRelPt */
EIF[ ]	/* EndIf */
PUSHB[ ]	/* 1 value pushed */
3 
SRP0[ ]	/* SetRefPoint0 */
PUSHB[ ]	/* 2 values pushed */
24 1 
PUSHB[ ]	/* 1 value pushed */
10 
CALL[ ]	/* CallFunction */
IF[ ]	/* If */
POP[ ]	/* PopTopStack */
MDRP[11000]	/* MoveDirectRelPt */
ELSE[ ]	/* Else */
MIRP[10100]	/* MoveIndirectRelPt */
EIF[ ]	/* EndIf */
IUP[0]	/* InterpolateUntPts */
IUP[1]	/* InterpolateUntPts */";
};
width = 1150;
}
);
note = uni0030;
unicode = 0030;
},
{
glyphname = one;
layers = (
{
layerId = "A9B054E9-1A63-4AEF-9EE1-561B1DFE8422";
paths = (
{
closed = 1;
nodes = (
"729 1463 LINE",
"700 1463 LINE",
"170 1264 LINE",
"170 1096 LINE",
"543 1233 LINE",
"543 0 LINE",
"729 0 LINE",
"729 0 LINE"
);
}
);
userData = {
assembly = "SVTCA[0]	/* SetFreedomAndProjectionVectorToAxis */
PUSHB[ ]	/* 1 value pushed */
0 
RCVT[ ]	/* ReadCVT */
IF[ ]	/* If */
PUSHB[ ]	/* 1 value pushed */
5 
MDAP[1]	/* MoveDirectAbsPt */
ELSE[ ]	/* Else */
PUSHB[ ]	/* 2 values pushed */
5 30 
MIAP[0]	/* MoveIndirectAbsPt */
EIF[ ]	/* EndIf */
PUSHB[ ]	/* 1 value pushed */
0 
RCVT[ ]	/* ReadCVT */
IF[ ]	/* If */
PUSHB[ ]	/* 1 value pushed */
0 
MDAP[1]	/* MoveDirectAbsPt */
ELSE[ ]	/* Else */
PUSHB[ ]	/* 2 values pushed */
0 18 
MIAP[0]	/* MoveIndirectAbsPt */
EIF[ ]	/* EndIf */
PUSHB[ ]	/* 3 values pushed */
4 0 5 
SRP1[ ]	/* SetRefPoint1 */
SRP2[ ]	/* SetRefPoint2 */
IP[ ]	/* InterpolatePts */
PUSHB[ ]	/* 1 value pushed */
4 
MDAP[1]	/* MoveDirectAbsPt */
PUSHB[ ]	/* 2 values pushed */
3 1 
PUSHB[ ]	/* 1 value pushed */
10 
CALL[ ]	/* CallFunction */
IF[ ]	/* If */
POP[ ]	/* PopTopStack */
MDRP[11000]	/* MoveDirectRelPt */
ELSE[ ]	/* Else */
MIRP[10100]	/* MoveIndirectRelPt */
EIF[ ]	/* EndIf */
PUSHB[ ]	/* 3 values pushed */
2 3 5 
SRP1[ ]	/* SetRefPoint1 */
SRP2[ ]	/* SetRefPoint2 */
IP[ ]	/* InterpolatePts */
IUP[0]	/* InterpolateUntPts */
IUP[1]	/* InterpolateUntPts */";
};
width = 1150;
}
);
note = uni0031;
unicode = 0031;
},
{
glyphname = two;
layers = (
{
layerId = "A9B054E9-1A63-4AEF-9EE1-561B1DFE8422";
paths = (
{
closed = 1;
nodes = (
"1075 151 LINE",
"344 151 LINE",
"734 574 LINE SMOOTH",
"1008 871 OFFCURVE",
"1008 1086 QCURVE SMOOTH",
"1008 1263 OFFCURVE",
"772 1476 OFFCURVE",
"569 1476 QCURVE SMOOTH",
"352 1476 OFFCURVE",
"93 1228 OFFCURVE",
"93 1027 QCURVE",
"278 1027 LINE",
"278 1167 OFFCURVE",
"431 1324 OFFCURVE",
"569 1324 QCURVE SMOOTH",
"684 1324 OFFCURVE",
"822 1178 OFFCURVE",
"822 1064 QCURVE SMOOTH",
"822 979 OFFCURVE",
"737 820 OFFCURVE",
"625 693 QCURVE SMOOTH",
"121 133 LINE",
"121 0 LINE",
"1075 0 LINE",
"1075 0 LINE"
);
}
);
userData = {
assembly = "SVTCA[0]	/* SetFreedomAndProjectionVectorToAxis */
PUSHB[ ]	/* 1 value pushed */
0 
RCVT[ ]	/* ReadCVT */
IF[ ]	/* If */
PUSHB[ ]	/* 1 value pushed */
16 
MDAP[1]	/* MoveDirectAbsPt */
ELSE[ ]	/* Else */
PUSHB[ ]	/* 2 values pushed */
16 30 
MIAP[0]	/* MoveIndirectAbsPt */
EIF[ ]	/* EndIf */
PUSHB[ ]	/* 1 value pushed */
0 
RCVT[ ]	/* ReadCVT */
IF[ ]	/* If */
PUSHB[ ]	/* 1 value pushed */
0 
MDAP[1]	/* MoveDirectAbsPt */
ELSE[ ]	/* Else */
PUSHB[ ]	/* 2 values pushed */
0 18 
MIAP[0]	/* MoveIndirectAbsPt */
EIF[ ]	/* EndIf */
PUSHB[ ]	/* 2 values pushed */
23 1 
PUSHB[ ]	/* 1 value pushed */
10 
CALL[ ]	/* CallFunction */
IF[ ]	/* If */
POP[ ]	/* PopTopStack */
MDRP[11000]	/* MoveDirectRelPt */
ELSE[ ]	/* Else */
MIRP[10100]	/* MoveIndirectRelPt */
EIF[ ]	/* EndIf */
PUSHB[ ]	/* 1 value pushed */
2 
MDRP[10000]	/* MoveDirectRelPt */
PUSHB[ ]	/* 3 values pushed */
3 16 23 
SRP1[ ]	/* SetRefPoint1 */
SRP2[ ]	/* SetRefPoint2 */
IP[ ]	/* InterpolatePts */
PUSHB[ ]	/* 1 value pushed */
16 
SRP0[ ]	/* SetRefPoint0 */
PUSHB[ ]	/* 2 values pushed */
9 1 
PUSHB[ ]	/* 1 value pushed */
10 
CALL[ ]	/* CallFunction */
IF[ ]	/* If */
POP[ ]	/* PopTopStack */
MDRP[11000]	/* MoveDirectRelPt */
ELSE[ ]	/* Else */
MIRP[10100]	/* MoveIndirectRelPt */
EIF[ ]	/* EndIf */
PUSHB[ ]	/* 1 value pushed */
16 
SRP0[ ]	/* SetRefPoint0 */
PUSHB[ ]	/* 1 value pushed */
12 
MDRP[10000]	/* MoveDirectRelPt */
PUSHB[ ]	/* 3 values pushed */
21 23 16 
SRP1[ ]	/* SetRefPoint1 */
SRP2[ ]	/* SetRefPoint2 */
IP[ ]	/* InterpolatePts */
IUP[0]	/* InterpolateUntPts */
IUP[1]	/* InterpolateUntPts */";
};
width = 1150;
}
);
note = uni0032;
unicode = 0032;
},
{
glyphname = three;
lastChange = "2020-11-28 02:12:22 +0000";
layers = (
{
layerId = "A9B054E9-1A63-4AEF-9EE1-561B1DFE8422";
paths = (
{
closed = 1;
nodes = (
"390 667 LINE",
"529 667 LINE SMOOTH",
"725 664.333 OFFCURVE",
"832 571.333 OFFCURVE",
"832 402 CURVE SMOOTH",
"832 227.333 OFFCURVE",
"734.667 131 OFFCURVE",
"556 131 CURVE SMOOTH",
"388 131 OFFCURVE",
"280 230.667 OFFCURVE",
"280 384 CURVE",
"94 384 LINE",
"94 141.333 OFFCURVE",
"282.667 -20 OFFCURVE",
"556 -20 CURVE SMOOTH",
"829.333 -20 OFFCURVE",
"1017 144.667 OFFCURVE",
"1017 406 CURVE SMOOTH",
"1017 575.333 OFFCURVE",
"926 696.333 OFFCURVE",
"766 747 CURVE",
"907.333 805.667 OFFCURVE",
"995 937.333 OFFCURVE",
"995 1064 CURVE SMOOTH",
"995 1322.667 OFFCURVE",
"829.667 1476 OFFCURVE",
"555 1476 CURVE SMOOTH",
"295 1476 OFFCURVE",
"107 1304.667 OFFCURVE",
"107 1074 CURVE",
"292 1074 LINE",
"292 1224.667 OFFCURVE",
"395 1324 OFFCURVE",
"555 1324 CURVE SMOOTH",
"725 1324 OFFCURVE",
"810 1238.667 OFFCURVE",
"810 1068 CURVE SMOOTH",
"810 916 OFFCURVE",
"703.667 820.667 OFFCURVE",
"529 818 CURVE SMOOTH",
"390 818 LINE"
);
}
);
userData = {
assembly = "SVTCA[0]	/* SetFreedomAndProjectionVectorToAxis */
PUSHB[ ]	/* 1 value pushed */
0 
RCVT[ ]	/* ReadCVT */
IF[ ]	/* If */
PUSHB[ ]	/* 1 value pushed */
13 
MDAP[1]	/* MoveDirectAbsPt */
ELSE[ ]	/* Else */
PUSHB[ ]	/* 2 values pushed */
13 30 
MIAP[0]	/* MoveIndirectAbsPt */
EIF[ ]	/* EndIf */
PUSHB[ ]	/* 1 value pushed */
0 
RCVT[ ]	/* ReadCVT */
IF[ ]	/* If */
PUSHB[ ]	/* 1 value pushed */
25 
MDAP[1]	/* MoveDirectAbsPt */
ELSE[ ]	/* Else */
PUSHB[ ]	/* 2 values pushed */
25 18 
MIAP[0]	/* MoveIndirectAbsPt */
EIF[ ]	/* EndIf */
PUSHB[ ]	/* 3 values pushed */
0 13 25 
SRP1[ ]	/* SetRefPoint1 */
SRP2[ ]	/* SetRefPoint2 */
IP[ ]	/* InterpolatePts */
PUSHB[ ]	/* 1 value pushed */
0 
MDAP[1]	/* MoveDirectAbsPt */
PUSHB[ ]	/* 3 values pushed */
207 0 1 
DELTAP1[ ]	/* DeltaExceptionP1 */
PUSHB[ ]	/* 3 values pushed */
159 0 1 
DELTAP2[ ]	/* DeltaExceptionP2 */
PUSHB[ ]	/* 3 values pushed */
47 0 1 
DELTAP1[ ]	/* DeltaExceptionP1 */
PUSHB[ ]	/* 3 values pushed */
95 0 1 
DELTAP3[ ]	/* DeltaExceptionP3 */
PUSHB[ ]	/* 1 value pushed */
13 
SRP0[ ]	/* SetRefPoint0 */
PUSHB[ ]	/* 2 values pushed */
6 1 
PUSHB[ ]	/* 1 value pushed */
10 
CALL[ ]	/* CallFunction */
IF[ ]	/* If */
POP[ ]	/* PopTopStack */
MDRP[11000]	/* MoveDirectRelPt */
ELSE[ ]	/* Else */
MIRP[10100]	/* MoveIndirectRelPt */
EIF[ ]	/* EndIf */
PUSHB[ ]	/* 1 value pushed */
13 
SRP0[ ]	/* SetRefPoint0 */
PUSHB[ ]	/* 1 value pushed */
9 
MDRP[10000]	/* MoveDirectRelPt */
PUSHB[ ]	/* 1 value pushed */
0 
SRP0[ ]	/* SetRefPoint0 */
PUSHB[ ]	/* 2 values pushed */
38 1 
PUSHB[ ]	/* 1 value pushed */
10 
CALL[ ]	/* CallFunction */
IF[ ]	/* If */
POP[ ]	/* PopTopStack */
MDRP[11000]	/* MoveDirectRelPt */
ELSE[ ]	/* Else */
MIRP[10100]	/* MoveIndirectRelPt */
EIF[ ]	/* EndIf */
PUSHB[ ]	/* 3 values pushed */
19 38 0 
SRP1[ ]	/* SetRefPoint1 */
SRP2[ ]	/* SetRefPoint2 */
IP[ ]	/* InterpolatePts */
PUSHB[ ]	/* 1 value pushed */
25 
SRP0[ ]	/* SetRefPoint0 */
PUSHB[ ]	/* 1 value pushed */
28 
MDRP[10000]	/* MoveDirectRelPt */
PUSHB[ ]	/* 1 value pushed */
25 
SRP0[ ]	/* SetRefPoint0 */
PUSHB[ ]	/* 2 values pushed */
31 1 
PUSHB[ ]	/* 1 value pushed */
10 
CALL[ ]	/* CallFunction */
IF[ ]	/* If */
POP[ ]	/* PopTopStack */
MDRP[11000]	/* MoveDirectRelPt */
ELSE[ ]	/* Else */
MIRP[10100]	/* MoveIndirectRelPt */
EIF[ ]	/* EndIf */
IUP[0]	/* InterpolateUntPts */
IUP[1]	/* InterpolateUntPts */";
};
width = 1150;
}
);
note = uni0033;
unicode = 0033;
},
{
glyphname = four;
layers = (
{
layerId = "A9B054E9-1A63-4AEF-9EE1-561B1DFE8422";
paths = (
{
closed = 1;
nodes = (
"902 1456 LINE",
"705 1456 LINE",
"53 447 LINE",
"53 338 LINE",
"716 338 LINE",
"716 0 LINE",
"902 0 LINE",
"902 338 LINE",
"1104 338 LINE",
"1104 489 LINE",
"902 489 LINE",
"902 489 LINE"
);
},
{
closed = 1;
nodes = (
"694 1163 LINE",
"716 1203 LINE",
"716 489 LINE",
"263 489 LINE",
"263 489 LINE"
);
}
);
userData = {
assembly = "SVTCA[0]	/* SetFreedomAndProjectionVectorToAxis */
PUSHB[ ]	/* 1 value pushed */
0 
RCVT[ ]	/* ReadCVT */
IF[ ]	/* If */
PUSHB[ ]	/* 1 value pushed */
9 
MDAP[1]	/* MoveDirectAbsPt */
ELSE[ ]	/* Else */
PUSHB[ ]	/* 2 values pushed */
9 30 
MIAP[0]	/* MoveIndirectAbsPt */
EIF[ ]	/* EndIf */
PUSHB[ ]	/* 1 value pushed */
0 
RCVT[ ]	/* ReadCVT */
IF[ ]	/* If */
PUSHB[ ]	/* 1 value pushed */
4 
MDAP[1]	/* MoveDirectAbsPt */
ELSE[ ]	/* Else */
PUSHB[ ]	/* 2 values pushed */
4 18 
MIAP[0]	/* MoveIndirectAbsPt */
EIF[ ]	/* EndIf */
PUSHB[ ]	/* 3 values pushed */
1 9 4 
SRP1[ ]	/* SetRefPoint1 */
SRP2[ ]	/* SetRefPoint2 */
IP[ ]	/* InterpolatePts */
PUSHB[ ]	/* 1 value pushed */
1 
MDAP[1]	/* MoveDirectAbsPt */
PUSHB[ ]	/* 2 values pushed */
2 1 
PUSHB[ ]	/* 1 value pushed */
10 
CALL[ ]	/* CallFunction */
IF[ ]	/* If */
POP[ ]	/* PopTopStack */
MDRP[11000]	/* MoveDirectRelPt */
ELSE[ ]	/* Else */
MIRP[10100]	/* MoveIndirectRelPt */
EIF[ ]	/* EndIf */
PUSHB[ ]	/* 1 value pushed */
6 
MDRP[10000]	/* MoveDirectRelPt */
PUSHB[ ]	/* 1 value pushed */
1 
SRP0[ ]	/* SetRefPoint0 */
PUSHB[ ]	/* 1 value pushed */
11 
MDRP[10000]	/* MoveDirectRelPt */
PUSHB[ ]	/* 3 values pushed */
8 6 11 
SRP1[ ]	/* SetRefPoint1 */
SRP2[ ]	/* SetRefPoint2 */
IP[ ]	/* InterpolatePts */
PUSHB[ ]	/* 3 values pushed */
13 9 4 
SRP1[ ]	/* SetRefPoint1 */
SRP2[ ]	/* SetRefPoint2 */
IP[ ]	/* InterpolatePts */
IUP[0]	/* InterpolateUntPts */
IUP[1]	/* InterpolateUntPts */";
};
width = 1150;
}
);
note = uni0034;
unicode = 0034;
},
{
glyphname = five;
layers = (
{
layerId = "A9B054E9-1A63-4AEF-9EE1-561B1DFE8422";
paths = (
{
closed = 1;
nodes = (
"354 692 LINE",
"403 732 LINE SMOOTH",
"472 785 OFFCURVE",
"593 785 QCURVE SMOOTH",
"725 785 OFFCURVE",
"884 608 OFFCURVE",
"884 462 QCURVE SMOOTH",
"884 307 OFFCURVE",
"737 131 OFFCURVE",
"608 131 QCURVE SMOOTH",
"490 131 OFFCURVE",
"346 258 OFFCURVE",
"329 383 QCURVE",
"154 383 LINE",
"171 194 OFFCURVE",
"415 -20 OFFCURVE",
"608 -20 QCURVE SMOOTH",
"826 -20 OFFCURVE",
"1069 239 OFFCURVE",
"1069 464 QCURVE SMOOTH",
"1069 688 OFFCURVE",
"835 951 OFFCURVE",
"636 951 QCURVE SMOOTH",
"500 951 OFFCURVE",
"393 888 QCURVE",
"437 1285 LINE",
"1026 1285 LINE",
"1026 1456 LINE",
"280 1456 LINE",
"206 730 LINE",
"206 730 LINE"
);
}
);
userData = {
assembly = "SVTCA[0]	/* SetFreedomAndProjectionVectorToAxis */
PUSHB[ ]	/* 1 value pushed */
0 
RCVT[ ]	/* ReadCVT */
IF[ ]	/* If */
PUSHB[ ]	/* 1 value pushed */
1 
MDAP[1]	/* MoveDirectAbsPt */
ELSE[ ]	/* Else */
PUSHB[ ]	/* 2 values pushed */
1 30 
MIAP[0]	/* MoveIndirectAbsPt */
EIF[ ]	/* EndIf */
PUSHB[ ]	/* 1 value pushed */
0 
RCVT[ ]	/* ReadCVT */
IF[ ]	/* If */
PUSHB[ ]	/* 1 value pushed */
13 
MDAP[1]	/* MoveDirectAbsPt */
ELSE[ ]	/* Else */
PUSHB[ ]	/* 2 values pushed */
13 18 
MIAP[0]	/* MoveIndirectAbsPt */
EIF[ ]	/* EndIf */
PUSHB[ ]	/* 1 value pushed */
1 
SRP0[ ]	/* SetRefPoint0 */
PUSHB[ ]	/* 2 values pushed */
4 1 
PUSHB[ ]	/* 1 value pushed */
10 
CALL[ ]	/* CallFunction */
IF[ ]	/* If */
POP[ ]	/* PopTopStack */
MDRP[11000]	/* MoveDirectRelPt */
ELSE[ ]	/* Else */
MIRP[10100]	/* MoveIndirectRelPt */
EIF[ ]	/* EndIf */
PUSHB[ ]	/* 3 values pushed */
7 13 1 
SRP1[ ]	/* SetRefPoint1 */
SRP2[ ]	/* SetRefPoint2 */
IP[ ]	/* InterpolatePts */
PUSHB[ ]	/* 1 value pushed */
7 
MDAP[1]	/* MoveDirectAbsPt */
PUSHB[ ]	/* 2 values pushed */
26 1 
PUSHB[ ]	/* 1 value pushed */
10 
CALL[ ]	/* CallFunction */
IF[ ]	/* If */
POP[ ]	/* PopTopStack */
MDRP[11000]	/* MoveDirectRelPt */
ELSE[ ]	/* Else */
MIRP[10100]	/* MoveIndirectRelPt */
EIF[ ]	/* EndIf */
PUSHB[ ]	/* 3 values pushed */
5 7 26 
SRP1[ ]	/* SetRefPoint1 */
SRP2[ ]	/* SetRefPoint2 */
IP[ ]	/* InterpolatePts */
PUSHB[ ]	/* 1 value pushed */
13 
SRP0[ ]	/* SetRefPoint0 */
PUSHB[ ]	/* 1 value pushed */
17 
MDRP[10000]	/* MoveDirectRelPt */
PUSHB[ ]	/* 1 value pushed */
13 
SRP0[ ]	/* SetRefPoint0 */
PUSHB[ ]	/* 2 values pushed */
20 1 
PUSHB[ ]	/* 1 value pushed */
10 
CALL[ ]	/* CallFunction */
IF[ ]	/* If */
POP[ ]	/* PopTopStack */
MDRP[11000]	/* MoveDirectRelPt */
ELSE[ ]	/* Else */
MIRP[10100]	/* MoveIndirectRelPt */
EIF[ ]	/* EndIf */
PUSHB[ ]	/* 1 value pushed */
7 
SRP0[ ]	/* SetRefPoint0 */
PUSHB[ ]	/* 1 value pushed */
29 
MDRP[10000]	/* MoveDirectRelPt */
IUP[0]	/* InterpolateUntPts */
IUP[1]	/* InterpolateUntPts */";
};
width = 1150;
}
);
note = uni0035;
unicode = 0035;
},
{
glyphname = six;
layers = (
{
layerId = "A9B054E9-1A63-4AEF-9EE1-561B1DFE8422";
paths = (
{
closed = 1;
nodes = (
"814 1457 LINE SMOOTH",
"475 1452 OFFCURVE",
"132 1027 OFFCURVE",
"132 625 QCURVE SMOOTH",
"132 554 LINE SMOOTH",
"132 301 OFFCURVE",
"392 -20 OFFCURVE",
"601 -20 QCURVE SMOOTH",
"807 -20 OFFCURVE",
"1052 250 OFFCURVE",
"1052 475 QCURVE SMOOTH",
"1052 687 OFFCURVE",
"825 955 OFFCURVE",
"635 955 QCURVE SMOOTH",
"436 955 OFFCURVE",
"321 823 QCURVE",
"341 1048 OFFCURVE",
"597 1296 OFFCURVE",
"813 1300 QCURVE SMOOTH",
"847 1300 LINE",
"847 1457 LINE",
"847 1457 LINE"
);
},
{
closed = 1;
nodes = (
"724 801 OFFCURVE",
"869 616 OFFCURVE",
"869 466 QCURVE SMOOTH",
"869 317 OFFCURVE",
"726 133 OFFCURVE",
"601 133 QCURVE SMOOTH",
"480 133 OFFCURVE",
"318 353 OFFCURVE",
"318 533 QCURVE SMOOTH",
"318 601 LINE",
"349 687 OFFCURVE",
"509 801 OFFCURVE",
"604 801 QCURVE",
"604 801 LINE"
);
}
);
userData = {
assembly = "SVTCA[0]	/* SetFreedomAndProjectionVectorToAxis */
PUSHB[ ]	/* 1 value pushed */
0 
RCVT[ ]	/* ReadCVT */
IF[ ]	/* If */
PUSHB[ ]	/* 1 value pushed */
0 
MDAP[1]	/* MoveDirectAbsPt */
ELSE[ ]	/* Else */
PUSHB[ ]	/* 2 values pushed */
0 30 
MIAP[0]	/* MoveIndirectAbsPt */
EIF[ ]	/* EndIf */
PUSHB[ ]	/* 1 value pushed */
0 
RCVT[ ]	/* ReadCVT */
IF[ ]	/* If */
PUSHB[ ]	/* 1 value pushed */
13 
MDAP[1]	/* MoveDirectAbsPt */
ELSE[ ]	/* Else */
PUSHB[ ]	/* 2 values pushed */
13 18 
MIAP[0]	/* MoveIndirectAbsPt */
EIF[ ]	/* EndIf */
PUSHB[ ]	/* 1 value pushed */
0 
SRP0[ ]	/* SetRefPoint0 */
PUSHB[ ]	/* 2 values pushed */
1 1 
PUSHB[ ]	/* 1 value pushed */
10 
CALL[ ]	/* CallFunction */
IF[ ]	/* If */
POP[ ]	/* PopTopStack */
MDRP[11000]	/* MoveDirectRelPt */
ELSE[ ]	/* Else */
MIRP[10100]	/* MoveIndirectRelPt */
EIF[ ]	/* EndIf */
PUSHB[ ]	/* 3 values pushed */
7 13 0 
SRP1[ ]	/* SetRefPoint1 */
SRP2[ ]	/* SetRefPoint2 */
IP[ ]	/* InterpolatePts */
PUSHB[ ]	/* 1 value pushed */
7 
MDAP[1]	/* MoveDirectAbsPt */
PUSHB[ ]	/* 2 values pushed */
21 1 
PUSHB[ ]	/* 1 value pushed */
10 
CALL[ ]	/* CallFunction */
IF[ ]	/* If */
POP[ ]	/* PopTopStack */
MDRP[11000]	/* MoveDirectRelPt */
ELSE[ ]	/* Else */
MIRP[10100]	/* MoveIndirectRelPt */
EIF[ ]	/* EndIf */
PUSHB[ ]	/* 1 value pushed */
13 
SRP0[ ]	/* SetRefPoint0 */
PUSHB[ ]	/* 2 values pushed */
28 1 
PUSHB[ ]	/* 1 value pushed */
10 
CALL[ ]	/* CallFunction */
IF[ ]	/* If */
POP[ ]	/* PopTopStack */
MDRP[11000]	/* MoveDirectRelPt */
ELSE[ ]	/* Else */
MIRP[10100]	/* MoveIndirectRelPt */
EIF[ ]	/* EndIf */
IUP[0]	/* InterpolateUntPts */
IUP[1]	/* InterpolateUntPts */";
};
width = 1150;
}
);
note = uni0036;
unicode = 0036;
},
{
glyphname = seven;
layers = (
{
layerId = "A9B054E9-1A63-4AEF-9EE1-561B1DFE8422";
paths = (
{
closed = 1;
nodes = (
"1061 1456 LINE",
"77 1456 LINE",
"77 1304 LINE",
"865 1304 LINE",
"264 0 LINE",
"458 0 LINE",
"1061 1352 LINE",
"1061 1352 LINE"
);
}
);
userData = {
assembly = "SVTCA[0]	/* SetFreedomAndProjectionVectorToAxis */
PUSHB[ ]	/* 1 value pushed */
0 
RCVT[ ]	/* ReadCVT */
IF[ ]	/* If */
PUSHB[ ]	/* 1 value pushed */
5 
MDAP[1]	/* MoveDirectAbsPt */
ELSE[ ]	/* Else */
PUSHB[ ]	/* 2 values pushed */
5 30 
MIAP[0]	/* MoveIndirectAbsPt */
EIF[ ]	/* EndIf */
PUSHB[ ]	/* 1 value pushed */
0 
RCVT[ ]	/* ReadCVT */
IF[ ]	/* If */
PUSHB[ ]	/* 1 value pushed */
1 
MDAP[1]	/* MoveDirectAbsPt */
ELSE[ ]	/* Else */
PUSHB[ ]	/* 2 values pushed */
1 18 
MIAP[0]	/* MoveIndirectAbsPt */
EIF[ ]	/* EndIf */
PUSHB[ ]	/* 1 value pushed */
5 
SRP0[ ]	/* SetRefPoint0 */
PUSHB[ ]	/* 2 values pushed */
3 1 
PUSHB[ ]	/* 1 value pushed */
10 
CALL[ ]	/* CallFunction */
IF[ ]	/* If */
POP[ ]	/* PopTopStack */
MDRP[11000]	/* MoveDirectRelPt */
ELSE[ ]	/* Else */
MIRP[10100]	/* MoveIndirectRelPt */
EIF[ ]	/* EndIf */
PUSHB[ ]	/* 3 values pushed */
0 3 5 
SRP1[ ]	/* SetRefPoint1 */
SRP2[ ]	/* SetRefPoint2 */
IP[ ]	/* InterpolatePts */
IUP[0]	/* InterpolateUntPts */
IUP[1]	/* InterpolateUntPts */";
};
width = 1150;
}
);
note = uni0037;
unicode = 0037;
},
{
glyphname = eight;
layers = (
{
layerId = "A9B054E9-1A63-4AEF-9EE1-561B1DFE8422";
paths = (
{
closed = 1;
nodes = (
"1004 1260 OFFCURVE",
"767 1476 OFFCURVE",
"575 1476 QCURVE SMOOTH",
"382 1476 OFFCURVE",
"146 1260 OFFCURVE",
"146 1076 QCURVE SMOOTH",
"146 968 OFFCURVE",
"258 798 OFFCURVE",
"355 750 QCURVE",
"241 701 OFFCURVE",
"112 511 OFFCURVE",
"112 393 QCURVE SMOOTH",
"112 205 OFFCURVE",
"365 -20 OFFCURVE",
"575 -20 QCURVE SMOOTH",
"783 -20 OFFCURVE",
"1038 204 OFFCURVE",
"1038 393 QCURVE SMOOTH",
"1038 512 OFFCURVE",
"905 700 OFFCURVE",
"791 749 QCURVE",
"889 797 OFFCURVE",
"1004 967 OFFCURVE",
"1004 1076 QCURVE",
"1004 1076 LINE"
);
},
{
closed = 1;
nodes = (
"853 274 OFFCURVE",
"705 131 OFFCURVE",
"575 131 QCURVE SMOOTH",
"444 131 OFFCURVE",
"297 273 OFFCURVE",
"297 521 OFFCURVE",
"448 673 OFFCURVE",
"698 673 OFFCURVE",
"853 519 OFFCURVE",
"853 397 QCURVE",
"853 397 LINE"
);
},
{
closed = 1;
nodes = (
"681 1324 OFFCURVE",
"819 1184 OFFCURVE",
"819 962 OFFCURVE",
"686 825 OFFCURVE",
"464 825 OFFCURVE",
"331 962 OFFCURVE",
"331 1073 QCURVE SMOOTH",
"331 1189 OFFCURVE",
"466 1324 OFFCURVE",
"575 1324 QCURVE",
"575 1324 LINE"
);
}
);
userData = {
assembly = "SVTCA[0]	/* SetFreedomAndProjectionVectorToAxis */
PUSHB[ ]	/* 1 value pushed */
0 
RCVT[ ]	/* ReadCVT */
IF[ ]	/* If */
PUSHB[ ]	/* 1 value pushed */
21 
MDAP[1]	/* MoveDirectAbsPt */
ELSE[ ]	/* Else */
PUSHB[ ]	/* 2 values pushed */
21 30 
MIAP[0]	/* MoveIndirectAbsPt */
EIF[ ]	/* EndIf */
PUSHB[ ]	/* 1 value pushed */
0 
RCVT[ ]	/* ReadCVT */
IF[ ]	/* If */
PUSHB[ ]	/* 1 value pushed */
9 
MDAP[1]	/* MoveDirectAbsPt */
ELSE[ ]	/* Else */
PUSHB[ ]	/* 2 values pushed */
9 18 
MIAP[0]	/* MoveIndirectAbsPt */
EIF[ ]	/* EndIf */
PUSHB[ ]	/* 3 values pushed */
39 9 21 
SRP1[ ]	/* SetRefPoint1 */
SRP2[ ]	/* SetRefPoint2 */
IP[ ]	/* InterpolatePts */
PUSHB[ ]	/* 1 value pushed */
39 
MDAP[1]	/* MoveDirectAbsPt */
PUSHB[ ]	/* 3 values pushed */
207 39 1 
DELTAP1[ ]	/* DeltaExceptionP1 */
PUSHB[ ]	/* 2 values pushed */
26 1 
PUSHB[ ]	/* 1 value pushed */
10 
CALL[ ]	/* CallFunction */
IF[ ]	/* If */
POP[ ]	/* PopTopStack */
MDRP[11000]	/* MoveDirectRelPt */
ELSE[ ]	/* Else */
MIRP[10100]	/* MoveIndirectRelPt */
EIF[ ]	/* EndIf */
PUSHB[ ]	/* 3 values pushed */
3 26 39 
SRP1[ ]	/* SetRefPoint1 */
SRP2[ ]	/* SetRefPoint2 */
IP[ ]	/* InterpolatePts */
PUSHB[ ]	/* 3 values pushed */
15 39 26 
SRP1[ ]	/* SetRefPoint1 */
SRP2[ ]	/* SetRefPoint2 */
IP[ ]	/* InterpolatePts */
PUSHB[ ]	/* 1 value pushed */
9 
SRP0[ ]	/* SetRefPoint0 */
PUSHB[ ]	/* 2 values pushed */
31 1 
PUSHB[ ]	/* 1 value pushed */
10 
CALL[ ]	/* CallFunction */
IF[ ]	/* If */
POP[ ]	/* PopTopStack */
MDRP[11000]	/* MoveDirectRelPt */
ELSE[ ]	/* Else */
MIRP[10100]	/* MoveIndirectRelPt */
EIF[ ]	/* EndIf */
PUSHB[ ]	/* 1 value pushed */
21 
SRP0[ ]	/* SetRefPoint0 */
PUSHB[ ]	/* 2 values pushed */
34 1 
PUSHB[ ]	/* 1 value pushed */
10 
CALL[ ]	/* CallFunction */
IF[ ]	/* If */
POP[ ]	/* PopTopStack */
MDRP[11000]	/* MoveDirectRelPt */
ELSE[ ]	/* Else */
MIRP[10100]	/* MoveIndirectRelPt */
EIF[ ]	/* EndIf */
IUP[0]	/* InterpolateUntPts */
IUP[1]	/* InterpolateUntPts */";
};
width = 1150;
}
);
note = uni0038;
unicode = 0038;
},
{
glyphname = nine;
layers = (
{
layerId = "A9B054E9-1A63-4AEF-9EE1-561B1DFE8422";
paths = (
{
closed = 1;
nodes = (
"819 390 OFFCURVE",
"573 159 OFFCURVE",
"344 155 QCURVE SMOOTH",
"305 155 LINE",
"305 -1 LINE",
"341 -1 LINE SMOOTH",
"680 4 OFFCURVE",
"1016 395 OFFCURVE",
"1016 820 QCURVE SMOOTH",
"1016 874 LINE SMOOTH",
"1016 1153 OFFCURVE",
"767 1476 OFFCURVE",
"551 1476 QCURVE SMOOTH",
"415 1476 OFFCURVE",
"211 1352 OFFCURVE",
"100 1118 OFFCURVE",
"100 972 QCURVE SMOOTH",
"100 836 OFFCURVE",
"202 611 OFFCURVE",
"389 487 OFFCURVE",
"515 487 QCURVE SMOOTH",
"611 487 OFFCURVE",
"772 571 OFFCURVE",
"830 640 QCURVE",
"830 640 LINE"
);
},
{
closed = 1;
nodes = (
"425 640 OFFCURVE",
"282 833 OFFCURVE",
"282 982 QCURVE SMOOTH",
"282 1135 OFFCURVE",
"430 1322 OFFCURVE",
"552 1322 QCURVE SMOOTH",
"673 1322 OFFCURVE",
"831 1094 OFFCURVE",
"831 912 QCURVE SMOOTH",
"831 838 LINE",
"795 754 OFFCURVE",
"638 640 OFFCURVE",
"545 640 QCURVE",
"545 640 LINE"
);
}
);
userData = {
assembly = "SVTCA[0]	/* SetFreedomAndProjectionVectorToAxis */
PUSHB[ ]	/* 1 value pushed */
0 
RCVT[ ]	/* ReadCVT */
IF[ ]	/* If */
PUSHB[ ]	/* 1 value pushed */
11 
MDAP[1]	/* MoveDirectAbsPt */
ELSE[ ]	/* Else */
PUSHB[ ]	/* 2 values pushed */
11 30 
MIAP[0]	/* MoveIndirectAbsPt */
EIF[ ]	/* EndIf */
PUSHB[ ]	/* 1 value pushed */
0 
RCVT[ ]	/* ReadCVT */
IF[ ]	/* If */
PUSHB[ ]	/* 1 value pushed */
19 
MDAP[1]	/* MoveDirectAbsPt */
ELSE[ ]	/* Else */
PUSHB[ ]	/* 2 values pushed */
19 18 
MIAP[0]	/* MoveIndirectAbsPt */
EIF[ ]	/* EndIf */
PUSHB[ ]	/* 3 values pushed */
3 19 11 
SRP1[ ]	/* SetRefPoint1 */
SRP2[ ]	/* SetRefPoint2 */
IP[ ]	/* InterpolatePts */
PUSHB[ ]	/* 1 value pushed */
3 
MDAP[1]	/* MoveDirectAbsPt */
PUSHB[ ]	/* 3 values pushed */
0 3 11 
SRP1[ ]	/* SetRefPoint1 */
SRP2[ ]	/* SetRefPoint2 */
IP[ ]	/* InterpolatePts */
PUSHB[ ]	/* 1 value pushed */
19 
SRP0[ ]	/* SetRefPoint0 */
PUSHB[ ]	/* 2 values pushed */
20 1 
PUSHB[ ]	/* 1 value pushed */
10 
CALL[ ]	/* CallFunction */
IF[ ]	/* If */
POP[ ]	/* PopTopStack */
MDRP[11000]	/* MoveDirectRelPt */
ELSE[ ]	/* Else */
MIRP[10100]	/* MoveIndirectRelPt */
EIF[ ]	/* EndIf */
PUSHB[ ]	/* 1 value pushed */
3 
SRP0[ ]	/* SetRefPoint0 */
PUSHB[ ]	/* 2 values pushed */
24 1 
PUSHB[ ]	/* 1 value pushed */
10 
CALL[ ]	/* CallFunction */
IF[ ]	/* If */
POP[ ]	/* PopTopStack */
MDRP[11000]	/* MoveDirectRelPt */
ELSE[ ]	/* Else */
MIRP[10100]	/* MoveIndirectRelPt */
EIF[ ]	/* EndIf */
PUSHB[ ]	/* 1 value pushed */
11 
SRP0[ ]	/* SetRefPoint0 */
PUSHB[ ]	/* 2 values pushed */
31 1 
PUSHB[ ]	/* 1 value pushed */
10 
CALL[ ]	/* CallFunction */
IF[ ]	/* If */
POP[ ]	/* PopTopStack */
MDRP[11000]	/* MoveDirectRelPt */
ELSE[ ]	/* Else */
MIRP[10100]	/* MoveIndirectRelPt */
EIF[ ]	/* EndIf */
IUP[0]	/* InterpolateUntPts */
IUP[1]	/* InterpolateUntPts */";
};
width = 1150;
}
);
note = uni0039;
unicode = 0039;
},
{
glyphname = less;
layers = (
{
layerId = "A9B054E9-1A63-4AEF-9EE1-561B1DFE8422";
paths = (
{
closed = 1;
nodes = (
"890 902 LINE",
"890 1098 LINE",
"72 720 LINE",
"72 574 LINE",
"890 195 LINE",
"890 391 LINE",
"264 644 LINE",
"264 644 LINE"
);
}
);
userData = {
assembly = "SVTCA[0]	/* SetFreedomAndProjectionVectorToAxis */
PUSHB[ ]	/* 1 value pushed */
0 
RCVT[ ]	/* ReadCVT */
IF[ ]	/* If */
PUSHB[ ]	/* 1 value pushed */
5 
MDAP[1]	/* MoveDirectAbsPt */
ELSE[ ]	/* Else */
PUSHB[ ]	/* 2 values pushed */
5 26 
MIAP[0]	/* MoveIndirectAbsPt */
EIF[ ]	/* EndIf */
PUSHB[ ]	/* 1 value pushed */
2 
MDRP[10000]	/* MoveDirectRelPt */
PUSHB[ ]	/* 1 value pushed */
2 
MDAP[1]	/* MoveDirectAbsPt */
IUP[0]	/* InterpolateUntPts */
IUP[1]	/* InterpolateUntPts */";
};
width = 1041;
}
);
note = uni003C;
unicode = 003C;
},
{
glyphname = equal;
layers = (
{
layerId = "A9B054E9-1A63-4AEF-9EE1-561B1DFE8422";
paths = (
{
closed = 1;
nodes = (
"986 975 LINE",
"152 975 LINE",
"152 814 LINE",
"986 814 LINE",
"986 814 LINE"
);
},
{
closed = 1;
nodes = (
"986 559 LINE",
"152 559 LINE",
"152 399 LINE",
"986 399 LINE",
"986 399 LINE"
);
}
);
userData = {
assembly = "SVTCA[0]	/* SetFreedomAndProjectionVectorToAxis */
PUSHB[ ]	/* 1 value pushed */
7 
MDAP[1]	/* MoveDirectAbsPt */
PUSHB[ ]	/* 1 value pushed */
3 
MDRP[10000]	/* MoveDirectRelPt */
PUSHB[ ]	/* 1 value pushed */
3 
MDAP[1]	/* MoveDirectAbsPt */
PUSHB[ ]	/* 2 values pushed */
0 1 
PUSHB[ ]	/* 1 value pushed */
10 
CALL[ ]	/* CallFunction */
IF[ ]	/* If */
POP[ ]	/* PopTopStack */
MDRP[11000]	/* MoveDirectRelPt */
ELSE[ ]	/* Else */
MIRP[10100]	/* MoveIndirectRelPt */
EIF[ ]	/* EndIf */
PUSHB[ ]	/* 1 value pushed */
7 
SRP0[ ]	/* SetRefPoint0 */
PUSHB[ ]	/* 2 values pushed */
4 1 
PUSHB[ ]	/* 1 value pushed */
10 
CALL[ ]	/* CallFunction */
IF[ ]	/* If */
POP[ ]	/* PopTopStack */
MDRP[11000]	/* MoveDirectRelPt */
ELSE[ ]	/* Else */
MIRP[10100]	/* MoveIndirectRelPt */
EIF[ ]	/* EndIf */
IUP[0]	/* InterpolateUntPts */
IUP[1]	/* InterpolateUntPts */";
};
width = 1124;
}
);
note = uni003D;
unicode = 003D;
},
{
glyphname = greater;
layers = (
{
layerId = "A9B054E9-1A63-4AEF-9EE1-561B1DFE8422";
paths = (
{
closed = 1;
nodes = (
"134 388 LINE",
"134 196 LINE",
"988 575 LINE",
"988 721 LINE",
"134 1099 LINE",
"134 909 LINE",
"795 650 LINE",
"795 650 LINE"
);
}
);
userData = {
assembly = "SVTCA[0]	/* SetFreedomAndProjectionVectorToAxis */
PUSHB[ ]	/* 1 value pushed */
0 
RCVT[ ]	/* ReadCVT */
IF[ ]	/* If */
PUSHB[ ]	/* 1 value pushed */
2 
MDAP[1]	/* MoveDirectAbsPt */
ELSE[ ]	/* Else */
PUSHB[ ]	/* 2 values pushed */
2 26 
MIAP[0]	/* MoveIndirectAbsPt */
EIF[ ]	/* EndIf */
PUSHB[ ]	/* 1 value pushed */
5 
MDRP[10000]	/* MoveDirectRelPt */
PUSHB[ ]	/* 1 value pushed */
5 
MDAP[1]	/* MoveDirectAbsPt */
IUP[0]	/* InterpolateUntPts */
IUP[1]	/* InterpolateUntPts */";
};
width = 1070;
}
);
note = uni003E;
unicode = 003E;
},
{
glyphname = question;
layers = (
{
layerId = "A9B054E9-1A63-4AEF-9EE1-561B1DFE8422";
paths = (
{
closed = 1;
nodes = (
"542 410 LINE",
"542 562 OFFCURVE",
"615 643 QCURVE",
"724 751 LINE SMOOTH",
"886 921 OFFCURVE",
"886 1096 QCURVE SMOOTH",
"886 1273 OFFCURVE",
"675 1476 OFFCURVE",
"486 1476 QCURVE SMOOTH",
"304 1476 OFFCURVE",
"77 1277 OFFCURVE",
"75 1115 QCURVE",
"260 1115 LINE",
"260 1206 OFFCURVE",
"384 1314 OFFCURVE",
"486 1314 QCURVE SMOOTH",
"591 1314 OFFCURVE",
"701 1195 OFFCURVE",
"701 1090 QCURVE SMOOTH",
"701 981 OFFCURVE",
"617 886 QCURVE",
"486 751 LINE SMOOTH",
"409 667 OFFCURVE",
"359 529 OFFCURVE",
"357 410 QCURVE",
"357 410 LINE"
);
},
{
closed = 1;
nodes = (
"349 48 OFFCURVE",
"404 -11 OFFCURVE",
"512 -11 OFFCURVE",
"568 48 OFFCURVE",
"568 138 OFFCURVE",
"512 199 OFFCURVE",
"404 199 OFFCURVE",
"349 138 OFFCURVE",
"349 93 QCURVE",
"349 93 LINE"
);
}
);
userData = {
assembly = "SVTCA[0]	/* SetFreedomAndProjectionVectorToAxis */
PUSHB[ ]	/* 1 value pushed */
0 
RCVT[ ]	/* ReadCVT */
IF[ ]	/* If */
PUSHB[ ]	/* 1 value pushed */
16 
MDAP[1]	/* MoveDirectAbsPt */
ELSE[ ]	/* Else */
PUSHB[ ]	/* 2 values pushed */
16 30 
MIAP[0]	/* MoveIndirectAbsPt */
EIF[ ]	/* EndIf */
PUSHB[ ]	/* 1 value pushed */
0 
RCVT[ ]	/* ReadCVT */
IF[ ]	/* If */
PUSHB[ ]	/* 1 value pushed */
32 
MDAP[1]	/* MoveDirectAbsPt */
ELSE[ ]	/* Else */
PUSHB[ ]	/* 2 values pushed */
32 18 
MIAP[0]	/* MoveIndirectAbsPt */
EIF[ ]	/* EndIf */
PUSHB[ ]	/* 2 values pushed */
27 5 
PUSHB[ ]	/* 1 value pushed */
10 
CALL[ ]	/* CallFunction */
IF[ ]	/* If */
POP[ ]	/* PopTopStack */
MDRP[11000]	/* MoveDirectRelPt */
ELSE[ ]	/* Else */
MIRP[10100]	/* MoveIndirectRelPt */
EIF[ ]	/* EndIf */
PUSHB[ ]	/* 3 values pushed */
0 27 16 
SRP1[ ]	/* SetRefPoint1 */
SRP2[ ]	/* SetRefPoint2 */
IP[ ]	/* InterpolatePts */
PUSHB[ ]	/* 3 values pushed */
4 16 0 
SRP1[ ]	/* SetRefPoint1 */
SRP2[ ]	/* SetRefPoint2 */
IP[ ]	/* InterpolatePts */
PUSHB[ ]	/* 1 value pushed */
16 
SRP0[ ]	/* SetRefPoint0 */
PUSHB[ ]	/* 2 values pushed */
9 1 
PUSHB[ ]	/* 1 value pushed */
10 
CALL[ ]	/* CallFunction */
IF[ ]	/* If */
POP[ ]	/* PopTopStack */
MDRP[11000]	/* MoveDirectRelPt */
ELSE[ ]	/* Else */
MIRP[10100]	/* MoveIndirectRelPt */
EIF[ ]	/* EndIf */
PUSHB[ ]	/* 1 value pushed */
16 
SRP0[ ]	/* SetRefPoint0 */
PUSHB[ ]	/* 1 value pushed */
12 
MDRP[10000]	/* MoveDirectRelPt */
PUSHB[ ]	/* 3 values pushed */
21 0 16 
SRP1[ ]	/* SetRefPoint1 */
SRP2[ ]	/* SetRefPoint2 */
IP[ ]	/* InterpolatePts */
IUP[0]	/* InterpolateUntPts */
IUP[1]	/* InterpolateUntPts */";
};
width = 967;
}
);
note = uni003F;
unicode = 003F;
},
{
glyphname = at;
layers = (
{
layerId = "A9B054E9-1A63-4AEF-9EE1-561B1DFE8422";
paths = (
{
closed = 1;
nodes = (
"1750 785 OFFCURVE",
"1576 1207 OFFCURVE",
"1220 1431 OFFCURVE",
"971 1431 QCURVE SMOOTH",
"732 1431 OFFCURVE",
"352 1192 OFFCURVE",
"130 753 OFFCURVE",
"118 478 QCURVE SMOOTH",
"106 195 OFFCURVE",
"285 -228 OFFCURVE",
"645 -453 OFFCURVE",
"895 -453 QCURVE SMOOTH",
"1000 -453 OFFCURVE",
"1205 -403 OFFCURVE",
"1267 -364 QCURVE",
"1230 -249 LINE",
"1170 -284 OFFCURVE",
"989 -328 OFFCURVE",
"899 -328 QCURVE SMOOTH",
"690 -328 OFFCURVE",
"395 -135 OFFCURVE",
"251 230 OFFCURVE",
"263 478 QCURVE SMOOTH",
"274 724 OFFCURVE",
"454 1100 OFFCURVE",
"766 1299 OFFCURVE",
"967 1299 QCURVE SMOOTH",
"1301 1299 OFFCURVE",
"1628 891 OFFCURVE",
"1609 502 QCURVE SMOOTH",
"1603 322 OFFCURVE",
"1463 98 OFFCURVE",
"1350 98 QCURVE SMOOTH",
"1203 98 OFFCURVE",
"1222 329 QCURVE SMOOTH",
"1274 883 LINE",
"1194 946 OFFCURVE",
"1066 989 OFFCURVE",
"985 989 QCURVE SMOOTH",
"880 989 OFFCURVE",
"689 841 OFFCURVE",
"568 582 OFFCURVE",
"553 417 QCURVE SMOOTH",
"534 212 OFFCURVE",
"680 -20 OFFCURVE",
"822 -20 QCURVE SMOOTH",
"896 -20 OFFCURVE",
"1035 63 OFFCURVE",
"1089 148 QCURVE",
"1142 -20 OFFCURVE",
"1329 -20 QCURVE SMOOTH",
"1510 -20 OFFCURVE",
"1726 260 OFFCURVE",
"1738 502 QCURVE",
"1738 502 LINE"
);
},
{
closed = 1;
nodes = (
"731 623 OFFCURVE",
"884 861 OFFCURVE",
"1001 861 QCURVE SMOOTH",
"1065 861 OFFCURVE",
"1121 832 QCURVE",
"1075 329 LINE",
"1074 320 LINE",
"1038 225 OFFCURVE",
"927 123 OFFCURVE",
"867 123 QCURVE SMOOTH",
"779 123 OFFCURVE",
"698 275 OFFCURVE",
"712 417 QCURVE",
"712 417 LINE"
);
}
);
userData = {
assembly = "SVTCA[0]	/* SetFreedomAndProjectionVectorToAxis */
PUSHB[ ]	/* 1 value pushed */
50 
MDAP[1]	/* MoveDirectAbsPt */
PUSHB[ ]	/* 1 value pushed */
0 
RCVT[ ]	/* ReadCVT */
IF[ ]	/* If */
PUSHB[ ]	/* 1 value pushed */
8 
MDAP[1]	/* MoveDirectAbsPt */
ELSE[ ]	/* Else */
PUSHB[ ]	/* 2 values pushed */
8 18 
MIAP[0]	/* MoveIndirectAbsPt */
EIF[ ]	/* EndIf */
PUSHB[ ]	/* 1 value pushed */
3 
MDRP[10000]	/* MoveDirectRelPt */
PUSHB[ ]	/* 3 values pushed */
15 50 8 
SRP1[ ]	/* SetRefPoint1 */
SRP2[ ]	/* SetRefPoint2 */
IP[ ]	/* InterpolatePts */
PUSHB[ ]	/* 1 value pushed */
15 
MDAP[1]	/* MoveDirectAbsPt */
PUSHB[ ]	/* 3 values pushed */
5 8 15 
SRP1[ ]	/* SetRefPoint1 */
SRP2[ ]	/* SetRefPoint2 */
IP[ ]	/* InterpolatePts */
PUSHB[ ]	/* 1 value pushed */
8 
SRP0[ ]	/* SetRefPoint0 */
PUSHB[ ]	/* 2 values pushed */
57 2 
PUSHB[ ]	/* 1 value pushed */
10 
CALL[ ]	/* CallFunction */
IF[ ]	/* If */
POP[ ]	/* PopTopStack */
MDRP[11000]	/* MoveDirectRelPt */
ELSE[ ]	/* Else */
MIRP[10100]	/* MoveIndirectRelPt */
EIF[ ]	/* EndIf */
PUSHB[ ]	/* 1 value pushed */
21 
MDRP[10000]	/* MoveDirectRelPt */
PUSHB[ ]	/* 1 value pushed */
50 
SRP0[ ]	/* SetRefPoint0 */
PUSHB[ ]	/* 2 values pushed */
27 2 
PUSHB[ ]	/* 1 value pushed */
10 
CALL[ ]	/* CallFunction */
IF[ ]	/* If */
POP[ ]	/* PopTopStack */
MDRP[11000]	/* MoveDirectRelPt */
ELSE[ ]	/* Else */
MIRP[10100]	/* MoveIndirectRelPt */
EIF[ ]	/* EndIf */
PUSHB[ ]	/* 1 value pushed */
8 
SRP0[ ]	/* SetRefPoint0 */
PUSHB[ ]	/* 1 value pushed */
42 
MDRP[10000]	/* MoveDirectRelPt */
PUSHB[ ]	/* 1 value pushed */
42 
MDAP[1]	/* MoveDirectAbsPt */
PUSHB[ ]	/* 2 values pushed */
35 2 
PUSHB[ ]	/* 1 value pushed */
10 
CALL[ ]	/* CallFunction */
IF[ ]	/* If */
POP[ ]	/* PopTopStack */
MDRP[11000]	/* MoveDirectRelPt */
ELSE[ ]	/* Else */
MIRP[10100]	/* MoveIndirectRelPt */
EIF[ ]	/* EndIf */
PUSHB[ ]	/* 1 value pushed */
15 
SRP0[ ]	/* SetRefPoint0 */
PUSHB[ ]	/* 2 values pushed */
64 2 
PUSHB[ ]	/* 1 value pushed */
10 
CALL[ ]	/* CallFunction */
IF[ ]	/* If */
POP[ ]	/* PopTopStack */
MDRP[11000]	/* MoveDirectRelPt */
ELSE[ ]	/* Else */
MIRP[10100]	/* MoveIndirectRelPt */
EIF[ ]	/* EndIf */
IUP[0]	/* InterpolateUntPts */
IUP[1]	/* InterpolateUntPts */";
};
width = 1839;
}
);
note = uni0040;
unicode = 0040;
},
{
glyphname = A;
lastChange = "2020-11-28 02:58:44 +0000";
layers = (
{
layerId = "A9B054E9-1A63-4AEF-9EE1-561B1DFE8422";
paths = (
{
closed = 1;
nodes = (
"1112 0 LINE",
"1309 0 LINE",
"752 1456 LINE",
"584 1456 LINE",
"28 0 LINE",
"226 0 LINE",
"363 380 LINE",
"973 380 LINE"
);
},
{
closed = 1;
nodes = (
"668 1219 LINE",
"916 538 LINE",
"421 538 LINE"
);
}
);
userData = {
assembly = "PUSHB[ ]	/* 3 values pushed */
10 11 12 
SRP1[ ]	/* SetRefPoint1 */
SRP2[ ]	/* SetRefPoint2 */
IP[ ]	/* InterpolatePts */
PUSHB[ ]	/* 1 value pushed */
10 
SRP0[ ]	/* SetRefPoint0 */
PUSHB[ ]	/* 1 value pushed */
4 
MDRP[10000]	/* MoveDirectRelPt */
SVTCA[0]	/* SetFreedomAndProjectionVectorToAxis */
PUSHB[ ]	/* 1 value pushed */
0 
RCVT[ ]	/* ReadCVT */
IF[ ]	/* If */
PUSHB[ ]	/* 1 value pushed */
4 
MDAP[1]	/* MoveDirectAbsPt */
ELSE[ ]	/* Else */
PUSHB[ ]	/* 2 values pushed */
4 30 
MIAP[0]	/* MoveIndirectAbsPt */
EIF[ ]	/* EndIf */
PUSHB[ ]	/* 1 value pushed */
0 
RCVT[ ]	/* ReadCVT */
IF[ ]	/* If */
PUSHB[ ]	/* 1 value pushed */
2 
MDAP[1]	/* MoveDirectAbsPt */
ELSE[ ]	/* Else */
PUSHB[ ]	/* 2 values pushed */
2 18 
MIAP[0]	/* MoveIndirectAbsPt */
EIF[ ]	/* EndIf */
PUSHB[ ]	/* 1 value pushed */
0 
RCVT[ ]	/* ReadCVT */
IF[ ]	/* If */
PUSHB[ ]	/* 1 value pushed */
6 
MDAP[1]	/* MoveDirectAbsPt */
ELSE[ ]	/* Else */
PUSHB[ ]	/* 2 values pushed */
6 18 
MIAP[0]	/* MoveIndirectAbsPt */
EIF[ ]	/* EndIf */
PUSHB[ ]	/* 3 values pushed */
8 4 2 
SRP1[ ]	/* SetRefPoint1 */
SRP2[ ]	/* SetRefPoint2 */
IP[ ]	/* InterpolatePts */
PUSHB[ ]	/* 1 value pushed */
8 
MDAP[1]	/* MoveDirectAbsPt */
PUSHB[ ]	/* 2 values pushed */
0 1 
PUSHB[ ]	/* 1 value pushed */
10 
CALL[ ]	/* CallFunction */
IF[ ]	/* If */
POP[ ]	/* PopTopStack */
MDRP[11000]	/* MoveDirectRelPt */
ELSE[ ]	/* Else */
MIRP[10100]	/* MoveIndirectRelPt */
EIF[ ]	/* EndIf */
PUSHB[ ]	/* 3 values pushed */
10 4 2 
SRP1[ ]	/* SetRefPoint1 */
SRP2[ ]	/* SetRefPoint2 */
IP[ ]	/* InterpolatePts */
IUP[0]	/* InterpolateUntPts */
IUP[1]	/* InterpolateUntPts */";
};
width = 1336;
}
);
leftKerningGroup = A;
note = uni0041;
rightKerningGroup = A;
unicode = 0041;
},
{
glyphname = B;
layers = (
{
layerId = "A9B054E9-1A63-4AEF-9EE1-561B1DFE8422";
paths = (
{
closed = 1;
nodes = (
"674 0 LINE SMOOTH",
"906 0 OFFCURVE",
"1160 224 OFFCURVE",
"1160 420 QCURVE SMOOTH",
"1160 548 OFFCURVE",
"1023 733 OFFCURVE",
"905 766 QCURVE",
"1005 809 OFFCURVE",
"1121 966 OFFCURVE",
"1121 1068 QCURVE SMOOTH",
"1121 1260 OFFCURVE",
"882 1456 OFFCURVE",
"645 1456 QCURVE SMOOTH",
"169 1456 LINE",
"169 0 LINE",
"169 0 LINE"
);
},
{
closed = 1;
nodes = (
"681 681 LINE SMOOTH",
"967 681 OFFCURVE",
"967 418 QCURVE SMOOTH",
"967 296 OFFCURVE",
"812 157 OFFCURVE",
"678 157 QCURVE SMOOTH",
"361 157 LINE",
"361 681 LINE",
"361 681 LINE"
);
},
{
closed = 1;
nodes = (
"361 1298 LINE",
"645 1298 LINE SMOOTH",
"788 1298 OFFCURVE",
"928 1189 OFFCURVE",
"928 1069 QCURVE SMOOTH",
"928 961 OFFCURVE",
"777 835 OFFCURVE",
"651 835 QCURVE SMOOTH",
"361 835 LINE",
"361 835 LINE"
);
}
);
userData = {
assembly = "SVTCA[0]	/* SetFreedomAndProjectionVectorToAxis */
PUSHB[ ]	/* 1 value pushed */
0 
RCVT[ ]	/* ReadCVT */
IF[ ]	/* If */
PUSHB[ ]	/* 1 value pushed */
1 
MDAP[1]	/* MoveDirectAbsPt */
ELSE[ ]	/* Else */
PUSHB[ ]	/* 2 values pushed */
1 30 
MIAP[0]	/* MoveIndirectAbsPt */
EIF[ ]	/* EndIf */
PUSHB[ ]	/* 1 value pushed */
0 
RCVT[ ]	/* ReadCVT */
IF[ ]	/* If */
PUSHB[ ]	/* 1 value pushed */
0 
MDAP[1]	/* MoveDirectAbsPt */
ELSE[ ]	/* Else */
PUSHB[ ]	/* 2 values pushed */
0 18 
MIAP[0]	/* MoveIndirectAbsPt */
EIF[ ]	/* EndIf */
PUSHB[ ]	/* 3 values pushed */
23 0 1 
SRP1[ ]	/* SetRefPoint1 */
SRP2[ ]	/* SetRefPoint2 */
IP[ ]	/* InterpolatePts */
PUSHB[ ]	/* 1 value pushed */
23 
MDAP[1]	/* MoveDirectAbsPt */
PUSHB[ ]	/* 2 values pushed */
15 1 
PUSHB[ ]	/* 1 value pushed */
10 
CALL[ ]	/* CallFunction */
IF[ ]	/* If */
POP[ ]	/* PopTopStack */
MDRP[11000]	/* MoveDirectRelPt */
ELSE[ ]	/* Else */
MIRP[10100]	/* MoveIndirectRelPt */
EIF[ ]	/* EndIf */
PUSHB[ ]	/* 3 values pushed */
8 15 23 
SRP1[ ]	/* SetRefPoint1 */
SRP2[ ]	/* SetRefPoint2 */
IP[ ]	/* InterpolatePts */
PUSHB[ ]	/* 1 value pushed */
0 
SRP0[ ]	/* SetRefPoint0 */
PUSHB[ ]	/* 2 values pushed */
16 1 
PUSHB[ ]	/* 1 value pushed */
10 
CALL[ ]	/* CallFunction */
IF[ ]	/* If */
POP[ ]	/* PopTopStack */
MDRP[11000]	/* MoveDirectRelPt */
ELSE[ ]	/* Else */
MIRP[10100]	/* MoveIndirectRelPt */
EIF[ ]	/* EndIf */
PUSHB[ ]	/* 1 value pushed */
1 
SRP0[ ]	/* SetRefPoint0 */
PUSHB[ ]	/* 2 values pushed */
31 1 
PUSHB[ ]	/* 1 value pushed */
10 
CALL[ ]	/* CallFunction */
IF[ ]	/* If */
POP[ ]	/* PopTopStack */
MDRP[11000]	/* MoveDirectRelPt */
ELSE[ ]	/* Else */
MIRP[10100]	/* MoveIndirectRelPt */
EIF[ ]	/* EndIf */
IUP[0]	/* InterpolateUntPts */
IUP[1]	/* InterpolateUntPts */";
};
width = 1275;
}
);
note = uni0042;
rightKerningGroup = B;
unicode = 0042;
},
{
glyphname = C;
layers = (
{
layerId = "A9B054E9-1A63-4AEF-9EE1-561B1DFE8422";
paths = (
{
closed = 1;
nodes = (
"1047 462 LINE",
"1019 282 OFFCURVE",
"848 137 OFFCURVE",
"688 137 QCURVE SMOOTH",
"510 137 OFFCURVE",
"312 417 OFFCURVE",
"312 654 QCURVE SMOOTH",
"312 795 LINE SMOOTH",
"312 1046 OFFCURVE",
"521 1318 OFFCURVE",
"705 1318 QCURVE SMOOTH",
"855 1318 OFFCURVE",
"1022 1162 OFFCURVE",
"1047 988 QCURVE",
"1240 988 LINE",
"1217 1217 OFFCURVE",
"937 1476 OFFCURVE",
"705 1476 QCURVE SMOOTH",
"530 1476 OFFCURVE",
"264 1311 OFFCURVE",
"119 1003 OFFCURVE",
"119 800 QCURVE SMOOTH",
"119 660 LINE SMOOTH",
"119 350 OFFCURVE",
"430 -20 OFFCURVE",
"688 -20 QCURVE SMOOTH",
"926 -20 OFFCURVE",
"1213 231 OFFCURVE",
"1240 462 QCURVE",
"1240 462 LINE"
);
}
);
userData = {
assembly = "SVTCA[0]	/* SetFreedomAndProjectionVectorToAxis */
PUSHB[ ]	/* 1 value pushed */
0 
RCVT[ ]	/* ReadCVT */
IF[ ]	/* If */
PUSHB[ ]	/* 1 value pushed */
11 
MDAP[1]	/* MoveDirectAbsPt */
ELSE[ ]	/* Else */
PUSHB[ ]	/* 2 values pushed */
11 30 
MIAP[0]	/* MoveIndirectAbsPt */
EIF[ ]	/* EndIf */
PUSHB[ ]	/* 1 value pushed */
0 
RCVT[ ]	/* ReadCVT */
IF[ ]	/* If */
PUSHB[ ]	/* 1 value pushed */
3 
MDAP[1]	/* MoveDirectAbsPt */
ELSE[ ]	/* Else */
PUSHB[ ]	/* 2 values pushed */
3 18 
MIAP[0]	/* MoveIndirectAbsPt */
EIF[ ]	/* EndIf */
PUSHB[ ]	/* 1 value pushed */
11 
SRP0[ ]	/* SetRefPoint0 */
PUSHB[ ]	/* 1 value pushed */
15 
MDRP[10000]	/* MoveDirectRelPt */
PUSHB[ ]	/* 1 value pushed */
11 
SRP0[ ]	/* SetRefPoint0 */
PUSHB[ ]	/* 2 values pushed */
18 1 
PUSHB[ ]	/* 1 value pushed */
10 
CALL[ ]	/* CallFunction */
IF[ ]	/* If */
POP[ ]	/* PopTopStack */
MDRP[11000]	/* MoveDirectRelPt */
ELSE[ ]	/* Else */
MIRP[10100]	/* MoveIndirectRelPt */
EIF[ ]	/* EndIf */
PUSHB[ ]	/* 1 value pushed */
3 
SRP0[ ]	/* SetRefPoint0 */
PUSHB[ ]	/* 2 values pushed */
25 1 
PUSHB[ ]	/* 1 value pushed */
10 
CALL[ ]	/* CallFunction */
IF[ ]	/* If */
POP[ ]	/* PopTopStack */
MDRP[11000]	/* MoveDirectRelPt */
ELSE[ ]	/* Else */
MIRP[10100]	/* MoveIndirectRelPt */
EIF[ ]	/* EndIf */
PUSHB[ ]	/* 1 value pushed */
3 
SRP0[ ]	/* SetRefPoint0 */
PUSHB[ ]	/* 1 value pushed */
28 
MDRP[10000]	/* MoveDirectRelPt */
IUP[0]	/* InterpolateUntPts */
IUP[1]	/* InterpolateUntPts */";
};
width = 1333;
}
);
leftKerningGroup = C;
note = uni0043;
rightKerningGroup = C;
unicode = 0043;
},
{
glyphname = D;
layers = (
{
layerId = "A9B054E9-1A63-4AEF-9EE1-561B1DFE8422";
paths = (
{
closed = 1;
nodes = (
"572 0 LINE SMOOTH",
"768 2 OFFCURVE",
"1063 168 OFFCURVE",
"1222 478 OFFCURVE",
"1222 684 QCURVE SMOOTH",
"1222 777 LINE SMOOTH",
"1221 978 OFFCURVE",
"1062 1288 OFFCURVE",
"770 1456 OFFCURVE",
"580 1456 QCURVE SMOOTH",
"169 1456 LINE",
"169 0 LINE",
"169 0 LINE"
);
},
{
closed = 1;
nodes = (
"585 1298 LINE SMOOTH",
"799 1296 OFFCURVE",
"1032 1021 OFFCURVE",
"1032 773 QCURVE SMOOTH",
"1032 688 LINE SMOOTH",
"1032 433 OFFCURVE",
"785 157 OFFCURVE",
"563 157 QCURVE SMOOTH",
"361 157 LINE",
"361 1298 LINE",
"361 1298 LINE"
);
}
);
userData = {
assembly = "SVTCA[0]	/* SetFreedomAndProjectionVectorToAxis */
PUSHB[ ]	/* 1 value pushed */
0 
RCVT[ ]	/* ReadCVT */
IF[ ]	/* If */
PUSHB[ ]	/* 1 value pushed */
1 
MDAP[1]	/* MoveDirectAbsPt */
ELSE[ ]	/* Else */
PUSHB[ ]	/* 2 values pushed */
1 30 
MIAP[0]	/* MoveIndirectAbsPt */
EIF[ ]	/* EndIf */
PUSHB[ ]	/* 1 value pushed */
0 
RCVT[ ]	/* ReadCVT */
IF[ ]	/* If */
PUSHB[ ]	/* 1 value pushed */
0 
MDAP[1]	/* MoveDirectAbsPt */
ELSE[ ]	/* Else */
PUSHB[ ]	/* 2 values pushed */
0 18 
MIAP[0]	/* MoveIndirectAbsPt */
EIF[ ]	/* EndIf */
PUSHB[ ]	/* 1 value pushed */
1 
SRP0[ ]	/* SetRefPoint0 */
PUSHB[ ]	/* 2 values pushed */
12 1 
PUSHB[ ]	/* 1 value pushed */
10 
CALL[ ]	/* CallFunction */
IF[ ]	/* If */
POP[ ]	/* PopTopStack */
MDRP[11000]	/* MoveDirectRelPt */
ELSE[ ]	/* Else */
MIRP[10100]	/* MoveIndirectRelPt */
EIF[ ]	/* EndIf */
PUSHB[ ]	/* 1 value pushed */
0 
SRP0[ ]	/* SetRefPoint0 */
PUSHB[ ]	/* 2 values pushed */
13 1 
PUSHB[ ]	/* 1 value pushed */
10 
CALL[ ]	/* CallFunction */
IF[ ]	/* If */
POP[ ]	/* PopTopStack */
MDRP[11000]	/* MoveDirectRelPt */
ELSE[ ]	/* Else */
MIRP[10100]	/* MoveIndirectRelPt */
EIF[ ]	/* EndIf */
IUP[0]	/* InterpolateUntPts */
IUP[1]	/* InterpolateUntPts */";
};
width = 1343;
}
);
note = uni0044;
rightKerningGroup = D;
unicode = 0044;
},
{
glyphname = E;
layers = (
{
layerId = "A9B054E9-1A63-4AEF-9EE1-561B1DFE8422";
paths = (
{
closed = 1;
nodes = (
"992 830 LINE",
"361 830 LINE",
"361 1298 LINE",
"1084 1298 LINE",
"1084 1456 LINE",
"169 1456 LINE",
"169 0 LINE",
"1094 0 LINE",
"1094 157 LINE",
"361 157 LINE",
"361 673 LINE",
"992 673 LINE",
"992 673 LINE"
);
}
);
userData = {
assembly = "SVTCA[0]	/* SetFreedomAndProjectionVectorToAxis */
PUSHB[ ]	/* 1 value pushed */
0 
RCVT[ ]	/* ReadCVT */
IF[ ]	/* If */
PUSHB[ ]	/* 1 value pushed */
6 
MDAP[1]	/* MoveDirectAbsPt */
ELSE[ ]	/* Else */
PUSHB[ ]	/* 2 values pushed */
6 30 
MIAP[0]	/* MoveIndirectAbsPt */
EIF[ ]	/* EndIf */
PUSHB[ ]	/* 1 value pushed */
0 
RCVT[ ]	/* ReadCVT */
IF[ ]	/* If */
PUSHB[ ]	/* 1 value pushed */
4 
MDAP[1]	/* MoveDirectAbsPt */
ELSE[ ]	/* Else */
PUSHB[ ]	/* 2 values pushed */
4 18 
MIAP[0]	/* MoveIndirectAbsPt */
EIF[ ]	/* EndIf */
PUSHB[ ]	/* 3 values pushed */
11 4 6 
SRP1[ ]	/* SetRefPoint1 */
SRP2[ ]	/* SetRefPoint2 */
IP[ ]	/* InterpolatePts */
PUSHB[ ]	/* 1 value pushed */
11 
MDAP[1]	/* MoveDirectAbsPt */
PUSHB[ ]	/* 2 values pushed */
0 1 
PUSHB[ ]	/* 1 value pushed */
10 
CALL[ ]	/* CallFunction */
IF[ ]	/* If */
POP[ ]	/* PopTopStack */
MDRP[11000]	/* MoveDirectRelPt */
ELSE[ ]	/* Else */
MIRP[10100]	/* MoveIndirectRelPt */
EIF[ ]	/* EndIf */
PUSHB[ ]	/* 1 value pushed */
4 
SRP0[ ]	/* SetRefPoint0 */
PUSHB[ ]	/* 2 values pushed */
2 1 
PUSHB[ ]	/* 1 value pushed */
10 
CALL[ ]	/* CallFunction */
IF[ ]	/* If */
POP[ ]	/* PopTopStack */
MDRP[11000]	/* MoveDirectRelPt */
ELSE[ ]	/* Else */
MIRP[10100]	/* MoveIndirectRelPt */
EIF[ ]	/* EndIf */
PUSHB[ ]	/* 1 value pushed */
6 
SRP0[ ]	/* SetRefPoint0 */
PUSHB[ ]	/* 2 values pushed */
8 1 
PUSHB[ ]	/* 1 value pushed */
10 
CALL[ ]	/* CallFunction */
IF[ ]	/* If */
POP[ ]	/* PopTopStack */
MDRP[11000]	/* MoveDirectRelPt */
ELSE[ ]	/* Else */
MIRP[10100]	/* MoveIndirectRelPt */
EIF[ ]	/* EndIf */
IUP[0]	/* InterpolateUntPts */
IUP[1]	/* InterpolateUntPts */";
};
width = 1164;
}
);
note = uni0045;
rightKerningGroup = E;
unicode = 0045;
},
{
glyphname = F;
layers = (
{
layerId = "A9B054E9-1A63-4AEF-9EE1-561B1DFE8422";
paths = (
{
closed = 1;
nodes = (
"972 800 LINE",
"361 800 LINE",
"361 1298 LINE",
"1071 1298 LINE",
"1071 1456 LINE",
"169 1456 LINE",
"169 0 LINE",
"361 0 LINE",
"361 643 LINE",
"972 643 LINE",
"972 643 LINE"
);
}
);
userData = {
assembly = "SVTCA[0]	/* SetFreedomAndProjectionVectorToAxis */
PUSHB[ ]	/* 1 value pushed */
0 
RCVT[ ]	/* ReadCVT */
IF[ ]	/* If */
PUSHB[ ]	/* 1 value pushed */
4 
MDAP[1]	/* MoveDirectAbsPt */
ELSE[ ]	/* Else */
PUSHB[ ]	/* 2 values pushed */
4 30 
MIAP[0]	/* MoveIndirectAbsPt */
EIF[ ]	/* EndIf */
PUSHB[ ]	/* 1 value pushed */
0 
RCVT[ ]	/* ReadCVT */
IF[ ]	/* If */
PUSHB[ ]	/* 1 value pushed */
2 
MDAP[1]	/* MoveDirectAbsPt */
ELSE[ ]	/* Else */
PUSHB[ ]	/* 2 values pushed */
2 18 
MIAP[0]	/* MoveIndirectAbsPt */
EIF[ ]	/* EndIf */
PUSHB[ ]	/* 3 values pushed */
9 2 4 
SRP1[ ]	/* SetRefPoint1 */
SRP2[ ]	/* SetRefPoint2 */
IP[ ]	/* InterpolatePts */
PUSHB[ ]	/* 1 value pushed */
9 
MDAP[1]	/* MoveDirectAbsPt */
PUSHB[ ]	/* 2 values pushed */
0 1 
PUSHB[ ]	/* 1 value pushed */
10 
CALL[ ]	/* CallFunction */
IF[ ]	/* If */
POP[ ]	/* PopTopStack */
MDRP[11000]	/* MoveDirectRelPt */
ELSE[ ]	/* Else */
MIRP[10100]	/* MoveIndirectRelPt */
EIF[ ]	/* EndIf */
PUSHB[ ]	/* 1 value pushed */
4 
SRP0[ ]	/* SetRefPoint0 */
PUSHB[ ]	/* 2 values pushed */
6 1 
PUSHB[ ]	/* 1 value pushed */
10 
CALL[ ]	/* CallFunction */
IF[ ]	/* If */
POP[ ]	/* PopTopStack */
MDRP[11000]	/* MoveDirectRelPt */
ELSE[ ]	/* Else */
MIRP[10100]	/* MoveIndirectRelPt */
EIF[ ]	/* EndIf */
IUP[0]	/* InterpolateUntPts */
IUP[1]	/* InterpolateUntPts */";
};
width = 1132;
}
);
note = uni0046;
unicode = 0046;
},
{
glyphname = G;
layers = (
{
layerId = "A9B054E9-1A63-4AEF-9EE1-561B1DFE8422";
paths = (
{
closed = 1;
nodes = (
"1244 725 LINE",
"716 725 LINE",
"716 569 LINE",
"1053 569 LINE",
"1053 242 LINE",
"1000 185 OFFCURVE",
"838 137 OFFCURVE",
"730 137 QCURVE SMOOTH",
"539 137 OFFCURVE",
"315 426 OFFCURVE",
"315 671 QCURVE SMOOTH",
"315 790 LINE SMOOTH",
"316 1047 OFFCURVE",
"515 1318 OFFCURVE",
"708 1318 QCURVE SMOOTH",
"998 1318 OFFCURVE",
"1052 1029 QCURVE",
"1244 1029 LINE",
"1213 1243 OFFCURVE",
"935 1476 OFFCURVE",
"707 1476 QCURVE SMOOTH",
"429 1476 OFFCURVE",
"122 1114 OFFCURVE",
"122 785 QCURVE SMOOTH",
"122 658 LINE SMOOTH",
"124 455 OFFCURVE",
"275 147 OFFCURVE",
"551 -20 OFFCURVE",
"729 -20 QCURVE SMOOTH",
"905 -20 OFFCURVE",
"1170 85 OFFCURVE",
"1244 191 QCURVE",
"1244 191 LINE"
);
}
);
userData = {
assembly = "SVTCA[0]	/* SetFreedomAndProjectionVectorToAxis */
PUSHB[ ]	/* 1 value pushed */
0 
RCVT[ ]	/* ReadCVT */
IF[ ]	/* If */
PUSHB[ ]	/* 1 value pushed */
11 
MDAP[1]	/* MoveDirectAbsPt */
ELSE[ ]	/* Else */
PUSHB[ ]	/* 2 values pushed */
11 30 
MIAP[0]	/* MoveIndirectAbsPt */
EIF[ ]	/* EndIf */
PUSHB[ ]	/* 1 value pushed */
0 
RCVT[ ]	/* ReadCVT */
IF[ ]	/* If */
PUSHB[ ]	/* 1 value pushed */
3 
MDAP[1]	/* MoveDirectAbsPt */
ELSE[ ]	/* Else */
PUSHB[ ]	/* 2 values pushed */
3 18 
MIAP[0]	/* MoveIndirectAbsPt */
EIF[ ]	/* EndIf */
PUSHB[ ]	/* 1 value pushed */
11 
SRP0[ ]	/* SetRefPoint0 */
PUSHB[ ]	/* 1 value pushed */
15 
MDRP[10000]	/* MoveDirectRelPt */
PUSHB[ ]	/* 1 value pushed */
11 
SRP0[ ]	/* SetRefPoint0 */
PUSHB[ ]	/* 2 values pushed */
17 1 
PUSHB[ ]	/* 1 value pushed */
10 
CALL[ ]	/* CallFunction */
IF[ ]	/* If */
POP[ ]	/* PopTopStack */
MDRP[11000]	/* MoveDirectRelPt */
ELSE[ ]	/* Else */
MIRP[10100]	/* MoveIndirectRelPt */
EIF[ ]	/* EndIf */
PUSHB[ ]	/* 1 value pushed */
3 
SRP0[ ]	/* SetRefPoint0 */
PUSHB[ ]	/* 2 values pushed */
24 1 
PUSHB[ ]	/* 1 value pushed */
10 
CALL[ ]	/* CallFunction */
IF[ ]	/* If */
POP[ ]	/* PopTopStack */
MDRP[11000]	/* MoveDirectRelPt */
ELSE[ ]	/* Else */
MIRP[10100]	/* MoveIndirectRelPt */
EIF[ ]	/* EndIf */
PUSHB[ ]	/* 3 values pushed */
30 3 11 
SRP1[ ]	/* SetRefPoint1 */
SRP2[ ]	/* SetRefPoint2 */
IP[ ]	/* InterpolatePts */
PUSHB[ ]	/* 1 value pushed */
30 
MDAP[1]	/* MoveDirectAbsPt */
PUSHB[ ]	/* 5 values pushed */
191 30 207 30 2 
DELTAP1[ ]	/* DeltaExceptionP1 */
PUSHB[ ]	/* 5 values pushed */
15 30 31 30 2 
DELTAP1[ ]	/* DeltaExceptionP1 */
PUSHB[ ]	/* 5 values pushed */
63 30 79 30 2 
DELTAP1[ ]	/* DeltaExceptionP1 */
PUSHB[ ]	/* 2 values pushed */
29 1 
PUSHB[ ]	/* 1 value pushed */
10 
CALL[ ]	/* CallFunction */
IF[ ]	/* If */
POP[ ]	/* PopTopStack */
MDRP[11000]	/* MoveDirectRelPt */
ELSE[ ]	/* Else */
MIRP[10100]	/* MoveIndirectRelPt */
EIF[ ]	/* EndIf */
IUP[0]	/* InterpolateUntPts */
IUP[1]	/* InterpolateUntPts */";
};
width = 1395;
}
);
leftKerningGroup = C;
note = uni0047;
unicode = 0047;
},
{
glyphname = H;
layers = (
{
layerId = "A9B054E9-1A63-4AEF-9EE1-561B1DFE8422";
paths = (
{
closed = 1;
nodes = (
"1288 1456 LINE",
"1095 1456 LINE",
"1095 830 LINE",
"361 830 LINE",
"361 1456 LINE",
"169 1456 LINE",
"169 0 LINE",
"361 0 LINE",
"361 673 LINE",
"1095 673 LINE",
"1095 0 LINE",
"1288 0 LINE",
"1288 0 LINE"
);
}
);
userData = {
assembly = "SVTCA[0]	/* SetFreedomAndProjectionVectorToAxis */
PUSHB[ ]	/* 1 value pushed */
0 
RCVT[ ]	/* ReadCVT */
IF[ ]	/* If */
PUSHB[ ]	/* 1 value pushed */
6 
MDAP[1]	/* MoveDirectAbsPt */
ELSE[ ]	/* Else */
PUSHB[ ]	/* 2 values pushed */
6 30 
MIAP[0]	/* MoveIndirectAbsPt */
EIF[ ]	/* EndIf */
PUSHB[ ]	/* 1 value pushed */
0 
RCVT[ ]	/* ReadCVT */
IF[ ]	/* If */
PUSHB[ ]	/* 1 value pushed */
10 
MDAP[1]	/* MoveDirectAbsPt */
ELSE[ ]	/* Else */
PUSHB[ ]	/* 2 values pushed */
10 30 
MIAP[0]	/* MoveIndirectAbsPt */
EIF[ ]	/* EndIf */
PUSHB[ ]	/* 1 value pushed */
0 
RCVT[ ]	/* ReadCVT */
IF[ ]	/* If */
PUSHB[ ]	/* 1 value pushed */
0 
MDAP[1]	/* MoveDirectAbsPt */
ELSE[ ]	/* Else */
PUSHB[ ]	/* 2 values pushed */
0 18 
MIAP[0]	/* MoveIndirectAbsPt */
EIF[ ]	/* EndIf */
PUSHB[ ]	/* 1 value pushed */
0 
RCVT[ ]	/* ReadCVT */
IF[ ]	/* If */
PUSHB[ ]	/* 1 value pushed */
4 
MDAP[1]	/* MoveDirectAbsPt */
ELSE[ ]	/* Else */
PUSHB[ ]	/* 2 values pushed */
4 18 
MIAP[0]	/* MoveIndirectAbsPt */
EIF[ ]	/* EndIf */
PUSHB[ ]	/* 1 value pushed */
0 
SRP0[ ]	/* SetRefPoint0 */
PUSHB[ ]	/* 1 value pushed */
9 
MDRP[10000]	/* MoveDirectRelPt */
PUSHB[ ]	/* 1 value pushed */
9 
MDAP[1]	/* MoveDirectAbsPt */
PUSHB[ ]	/* 3 values pushed */
239 9 1 
DELTAP1[ ]	/* DeltaExceptionP1 */
PUSHB[ ]	/* 5 values pushed */
207 9 223 9 2 
DELTAP2[ ]	/* DeltaExceptionP2 */
PUSHB[ ]	/* 3 values pushed */
143 9 1 
DELTAP2[ ]	/* DeltaExceptionP2 */
PUSHB[ ]	/* 3 values pushed */
47 9 1 
DELTAP1[ ]	/* DeltaExceptionP1 */
PUSHB[ ]	/* 3 values pushed */
159 9 1 
DELTAP3[ ]	/* DeltaExceptionP3 */
PUSHB[ ]	/* 2 values pushed */
2 1 
PUSHB[ ]	/* 1 value pushed */
10 
CALL[ ]	/* CallFunction */
IF[ ]	/* If */
POP[ ]	/* PopTopStack */
MDRP[11000]	/* MoveDirectRelPt */
ELSE[ ]	/* Else */
MIRP[10100]	/* MoveIndirectRelPt */
EIF[ ]	/* EndIf */
IUP[0]	/* InterpolateUntPts */
IUP[1]	/* InterpolateUntPts */";
};
width = 1460;
}
);
note = uni0048;
rightKerningGroup = H;
unicode = 0048;
},
{
glyphname = I;
layers = (
{
layerId = "A9B054E9-1A63-4AEF-9EE1-561B1DFE8422";
paths = (
{
closed = 1;
nodes = (
"375 1456 LINE",
"183 1456 LINE",
"183 0 LINE",
"375 0 LINE",
"375 0 LINE"
);
}
);
userData = {
assembly = "SVTCA[0]	/* SetFreedomAndProjectionVectorToAxis */
PUSHB[ ]	/* 1 value pushed */
0 
RCVT[ ]	/* ReadCVT */
IF[ ]	/* If */
PUSHB[ ]	/* 1 value pushed */
2 
MDAP[1]	/* MoveDirectAbsPt */
ELSE[ ]	/* Else */
PUSHB[ ]	/* 2 values pushed */
2 30 
MIAP[0]	/* MoveIndirectAbsPt */
EIF[ ]	/* EndIf */
PUSHB[ ]	/* 1 value pushed */
0 
RCVT[ ]	/* ReadCVT */
IF[ ]	/* If */
PUSHB[ ]	/* 1 value pushed */
0 
MDAP[1]	/* MoveDirectAbsPt */
ELSE[ ]	/* Else */
PUSHB[ ]	/* 2 values pushed */
0 18 
MIAP[0]	/* MoveIndirectAbsPt */
EIF[ ]	/* EndIf */
IUP[0]	/* InterpolateUntPts */
IUP[1]	/* InterpolateUntPts */";
};
width = 557;
}
);
note = uni0049;
rightKerningGroup = H;
unicode = 0049;
},
{
glyphname = J;
layers = (
{
layerId = "A9B054E9-1A63-4AEF-9EE1-561B1DFE8422";
paths = (
{
closed = 1;
nodes = (
"779 422 LINE SMOOTH",
"778 287 OFFCURVE",
"631 137 OFFCURVE",
"512 137 QCURVE SMOOTH",
"382 137 OFFCURVE",
"245 277 OFFCURVE",
"245 402 QCURVE",
"53 402 LINE",
"53 202 OFFCURVE",
"295 -20 OFFCURVE",
"512 -20 QCURVE SMOOTH",
"721 -20 OFFCURVE",
"972 216 OFFCURVE",
"972 425 QCURVE SMOOTH",
"972 1456 LINE",
"779 1456 LINE",
"779 1456 LINE"
);
}
);
userData = {
assembly = "SVTCA[0]	/* SetFreedomAndProjectionVectorToAxis */
PUSHB[ ]	/* 1 value pushed */
0 
RCVT[ ]	/* ReadCVT */
IF[ ]	/* If */
PUSHB[ ]	/* 1 value pushed */
0 
MDAP[1]	/* MoveDirectAbsPt */
ELSE[ ]	/* Else */
PUSHB[ ]	/* 2 values pushed */
0 30 
MIAP[0]	/* MoveIndirectAbsPt */
EIF[ ]	/* EndIf */
PUSHB[ ]	/* 1 value pushed */
0 
RCVT[ ]	/* ReadCVT */
IF[ ]	/* If */
PUSHB[ ]	/* 1 value pushed */
5 
MDAP[1]	/* MoveDirectAbsPt */
ELSE[ ]	/* Else */
PUSHB[ ]	/* 2 values pushed */
5 18 
MIAP[0]	/* MoveIndirectAbsPt */
EIF[ ]	/* EndIf */
PUSHB[ ]	/* 1 value pushed */
9 
MDRP[10000]	/* MoveDirectRelPt */
PUSHB[ ]	/* 1 value pushed */
5 
SRP0[ ]	/* SetRefPoint0 */
PUSHB[ ]	/* 2 values pushed */
12 1 
PUSHB[ ]	/* 1 value pushed */
10 
CALL[ ]	/* CallFunction */
IF[ ]	/* If */
POP[ ]	/* PopTopStack */
MDRP[11000]	/* MoveDirectRelPt */
ELSE[ ]	/* Else */
MIRP[10100]	/* MoveIndirectRelPt */
EIF[ ]	/* EndIf */
IUP[0]	/* InterpolateUntPts */
IUP[1]	/* InterpolateUntPts */";
};
width = 1130;
}
);
leftKerningGroup = J;
note = uni004A;
rightKerningGroup = J;
unicode = 004A;
},
{
glyphname = K;
layers = (
{
layerId = "A9B054E9-1A63-4AEF-9EE1-561B1DFE8422";
paths = (
{
closed = 1;
nodes = (
"1055 0 LINE",
"1285 0 LINE",
"667 813 LINE",
"1240 1456 LINE",
"1008 1456 LINE",
"361 736 LINE",
"361 1456 LINE",
"169 1456 LINE",
"169 0 LINE",
"361 0 LINE",
"361 492 LINE",
"539 677 LINE",
"539 677 LINE"
);
}
);
userData = {
assembly = "SVTCA[0]	/* SetFreedomAndProjectionVectorToAxis */
PUSHB[ ]	/* 1 value pushed */
0 
RCVT[ ]	/* ReadCVT */
IF[ ]	/* If */
PUSHB[ ]	/* 1 value pushed */
5 
MDAP[1]	/* MoveDirectAbsPt */
ELSE[ ]	/* Else */
PUSHB[ ]	/* 2 values pushed */
5 30 
MIAP[0]	/* MoveIndirectAbsPt */
EIF[ ]	/* EndIf */
PUSHB[ ]	/* 1 value pushed */
0 
RCVT[ ]	/* ReadCVT */
IF[ ]	/* If */
PUSHB[ ]	/* 1 value pushed */
7 
MDAP[1]	/* MoveDirectAbsPt */
ELSE[ ]	/* Else */
PUSHB[ ]	/* 2 values pushed */
7 30 
MIAP[0]	/* MoveIndirectAbsPt */
EIF[ ]	/* EndIf */
PUSHB[ ]	/* 1 value pushed */
0 
RCVT[ ]	/* ReadCVT */
IF[ ]	/* If */
PUSHB[ ]	/* 1 value pushed */
2 
MDAP[1]	/* MoveDirectAbsPt */
ELSE[ ]	/* Else */
PUSHB[ ]	/* 2 values pushed */
2 18 
MIAP[0]	/* MoveIndirectAbsPt */
EIF[ ]	/* EndIf */
PUSHB[ ]	/* 1 value pushed */
0 
RCVT[ ]	/* ReadCVT */
IF[ ]	/* If */
PUSHB[ ]	/* 1 value pushed */
11 
MDAP[1]	/* MoveDirectAbsPt */
ELSE[ ]	/* Else */
PUSHB[ ]	/* 2 values pushed */
11 18 
MIAP[0]	/* MoveIndirectAbsPt */
EIF[ ]	/* EndIf */
PUSHB[ ]	/* 3 values pushed */
0 2 5 
SRP1[ ]	/* SetRefPoint1 */
SRP2[ ]	/* SetRefPoint2 */
IP[ ]	/* InterpolatePts */
NPUSHB[ ]	/* 17 values pushed */
74 0 90 0 106 0 122 0 138 0 154 0 170 0 186 0 8 
DELTAP1[ ]	/* DeltaExceptionP1 */
PUSHB[ ]	/* 3 values pushed */
57 0 1 
DELTAP1[ ]	/* DeltaExceptionP1 */
PUSHB[ ]	/* 3 values pushed */
6 5 2 
SRP1[ ]	/* SetRefPoint1 */
SRP2[ ]	/* SetRefPoint2 */
IP[ ]	/* InterpolatePts */
NPUSHB[ ]	/* 19 values pushed */
54 6 70 6 86 6 102 6 118 6 134 6 150 6 166 6 182 6 9 
DELTAP1[ ]	/* DeltaExceptionP1 */
IUP[0]	/* InterpolateUntPts */
IUP[1]	/* InterpolateUntPts */";
};
width = 1284;
}
);
note = uni004B;
rightKerningGroup = K;
unicode = 004B;
},
{
glyphname = L;
layers = (
{
layerId = "A9B054E9-1A63-4AEF-9EE1-561B1DFE8422";
paths = (
{
closed = 1;
nodes = (
"362 1456 LINE",
"169 1456 LINE",
"169 0 LINE",
"1052 0 LINE",
"1052 157 LINE",
"362 157 LINE",
"362 157 LINE"
);
}
);
userData = {
assembly = "SVTCA[0]	/* SetFreedomAndProjectionVectorToAxis */
PUSHB[ ]	/* 1 value pushed */
0 
RCVT[ ]	/* ReadCVT */
IF[ ]	/* If */
PUSHB[ ]	/* 1 value pushed */
4 
MDAP[1]	/* MoveDirectAbsPt */
ELSE[ ]	/* Else */
PUSHB[ ]	/* 2 values pushed */
4 30 
MIAP[0]	/* MoveIndirectAbsPt */
EIF[ ]	/* EndIf */
PUSHB[ ]	/* 1 value pushed */
0 
RCVT[ ]	/* ReadCVT */
IF[ ]	/* If */
PUSHB[ ]	/* 1 value pushed */
2 
MDAP[1]	/* MoveDirectAbsPt */
ELSE[ ]	/* Else */
PUSHB[ ]	/* 2 values pushed */
2 18 
MIAP[0]	/* MoveIndirectAbsPt */
EIF[ ]	/* EndIf */
PUSHB[ ]	/* 2 values pushed */
0 1 
PUSHB[ ]	/* 1 value pushed */
10 
CALL[ ]	/* CallFunction */
IF[ ]	/* If */
POP[ ]	/* PopTopStack */
MDRP[11000]	/* MoveDirectRelPt */
ELSE[ ]	/* Else */
MIRP[10100]	/* MoveIndirectRelPt */
EIF[ ]	/* EndIf */
IUP[0]	/* InterpolateUntPts */
IUP[1]	/* InterpolateUntPts */";
};
width = 1102;
}
);
note = uni004C;
rightKerningGroup = L;
unicode = 004C;
},
{
glyphname = M;
layers = (
{
layerId = "A9B054E9-1A63-4AEF-9EE1-561B1DFE8422";
paths = (
{
closed = 1;
nodes = (
"169 1456 LINE",
"169 0 LINE",
"361 0 LINE",
"361 567 LINE",
"342 1176 LINE",
"819 0 LINE",
"966 0 LINE",
"1444 1179 LINE",
"1426 567 LINE",
"1426 0 LINE",
"1618 0 LINE",
"1618 1456 LINE",
"1369 1456 LINE",
"893 268 LINE",
"417 1456 LINE",
"417 1456 LINE"
);
}
);
userData = {
assembly = "SVTCA[0]	/* SetFreedomAndProjectionVectorToAxis */
PUSHB[ ]	/* 1 value pushed */
0 
RCVT[ ]	/* ReadCVT */
IF[ ]	/* If */
PUSHB[ ]	/* 1 value pushed */
0 
MDAP[1]	/* MoveDirectAbsPt */
ELSE[ ]	/* Else */
PUSHB[ ]	/* 2 values pushed */
0 30 
MIAP[0]	/* MoveIndirectAbsPt */
EIF[ ]	/* EndIf */
PUSHB[ ]	/* 1 value pushed */
0 
RCVT[ ]	/* ReadCVT */
IF[ ]	/* If */
PUSHB[ ]	/* 1 value pushed */
2 
MDAP[1]	/* MoveDirectAbsPt */
ELSE[ ]	/* Else */
PUSHB[ ]	/* 2 values pushed */
2 30 
MIAP[0]	/* MoveIndirectAbsPt */
EIF[ ]	/* EndIf */
PUSHB[ ]	/* 1 value pushed */
0 
RCVT[ ]	/* ReadCVT */
IF[ ]	/* If */
PUSHB[ ]	/* 1 value pushed */
4 
MDAP[1]	/* MoveDirectAbsPt */
ELSE[ ]	/* Else */
PUSHB[ ]	/* 2 values pushed */
4 18 
MIAP[0]	/* MoveIndirectAbsPt */
EIF[ ]	/* EndIf */
PUSHB[ ]	/* 1 value pushed */
0 
RCVT[ ]	/* ReadCVT */
IF[ ]	/* If */
PUSHB[ ]	/* 1 value pushed */
8 
MDAP[1]	/* MoveDirectAbsPt */
ELSE[ ]	/* Else */
PUSHB[ ]	/* 2 values pushed */
8 18 
MIAP[0]	/* MoveIndirectAbsPt */
EIF[ ]	/* EndIf */
PUSHB[ ]	/* 1 value pushed */
0 
RCVT[ ]	/* ReadCVT */
IF[ ]	/* If */
PUSHB[ ]	/* 1 value pushed */
12 
MDAP[1]	/* MoveDirectAbsPt */
ELSE[ ]	/* Else */
PUSHB[ ]	/* 2 values pushed */
12 18 
MIAP[0]	/* MoveIndirectAbsPt */
EIF[ ]	/* EndIf */
PUSHB[ ]	/* 3 values pushed */
1 0 4 
SRP1[ ]	/* SetRefPoint1 */
SRP2[ ]	/* SetRefPoint2 */
IP[ ]	/* InterpolatePts */
PUSHB[ ]	/* 3 values pushed */
7 0 4 
SRP1[ ]	/* SetRefPoint1 */
SRP2[ ]	/* SetRefPoint2 */
IP[ ]	/* InterpolatePts */
PUSHB[ ]	/* 3 values pushed */
10 0 4 
SRP1[ ]	/* SetRefPoint1 */
SRP2[ ]	/* SetRefPoint2 */
IP[ ]	/* InterpolatePts */
IUP[0]	/* InterpolateUntPts */
IUP[1]	/* InterpolateUntPts */";
};
width = 1788;
}
);
note = uni004D;
rightKerningGroup = H;
unicode = 004D;
},
{
glyphname = N;
layers = (
{
layerId = "A9B054E9-1A63-4AEF-9EE1-561B1DFE8422";
paths = (
{
closed = 1;
nodes = (
"1288 1456 LINE",
"1097 1456 LINE",
"1097 329 LINE",
"362 1456 LINE",
"169 1456 LINE",
"169 0 LINE",
"362 0 LINE",
"362 1122 LINE",
"1095 0 LINE",
"1288 0 LINE",
"1288 0 LINE"
);
}
);
userData = {
assembly = "PUSHB[ ]	/* 3 values pushed */
1 10 11 
SRP1[ ]	/* SetRefPoint1 */
SRP2[ ]	/* SetRefPoint2 */
IP[ ]	/* InterpolatePts */
SVTCA[0]	/* SetFreedomAndProjectionVectorToAxis */
PUSHB[ ]	/* 1 value pushed */
0 
RCVT[ ]	/* ReadCVT */
IF[ ]	/* If */
PUSHB[ ]	/* 1 value pushed */
5 
MDAP[1]	/* MoveDirectAbsPt */
ELSE[ ]	/* Else */
PUSHB[ ]	/* 2 values pushed */
5 30 
MIAP[0]	/* MoveIndirectAbsPt */
EIF[ ]	/* EndIf */
PUSHB[ ]	/* 1 value pushed */
0 
RCVT[ ]	/* ReadCVT */
IF[ ]	/* If */
PUSHB[ ]	/* 1 value pushed */
8 
MDAP[1]	/* MoveDirectAbsPt */
ELSE[ ]	/* Else */
PUSHB[ ]	/* 2 values pushed */
8 30 
MIAP[0]	/* MoveIndirectAbsPt */
EIF[ ]	/* EndIf */
PUSHB[ ]	/* 1 value pushed */
0 
RCVT[ ]	/* ReadCVT */
IF[ ]	/* If */
PUSHB[ ]	/* 1 value pushed */
0 
MDAP[1]	/* MoveDirectAbsPt */
ELSE[ ]	/* Else */
PUSHB[ ]	/* 2 values pushed */
0 18 
MIAP[0]	/* MoveIndirectAbsPt */
EIF[ ]	/* EndIf */
PUSHB[ ]	/* 1 value pushed */
0 
RCVT[ ]	/* ReadCVT */
IF[ ]	/* If */
PUSHB[ ]	/* 1 value pushed */
3 
MDAP[1]	/* MoveDirectAbsPt */
ELSE[ ]	/* Else */
PUSHB[ ]	/* 2 values pushed */
3 18 
MIAP[0]	/* MoveIndirectAbsPt */
EIF[ ]	/* EndIf */
PUSHB[ ]	/* 3 values pushed */
2 5 0 
SRP1[ ]	/* SetRefPoint1 */
SRP2[ ]	/* SetRefPoint2 */
IP[ ]	/* InterpolatePts */
PUSHB[ ]	/* 3 values pushed */
7 5 0 
SRP1[ ]	/* SetRefPoint1 */
SRP2[ ]	/* SetRefPoint2 */
IP[ ]	/* InterpolatePts */
IUP[0]	/* InterpolateUntPts */
IUP[1]	/* InterpolateUntPts */";
};
width = 1460;
}
);
note = uni004E;
rightKerningGroup = H;
unicode = 004E;
},
{
glyphname = O;
layers = (
{
layerId = "A9B054E9-1A63-4AEF-9EE1-561B1DFE8422";
paths = (
{
closed = 1;
nodes = (
"1289 773 LINE SMOOTH",
"1289 986 OFFCURVE",
"1145 1307 OFFCURVE",
"878 1476 OFFCURVE",
"703 1476 QCURVE SMOOTH",
"531 1476 OFFCURVE",
"264 1305 OFFCURVE",
"118 983 OFFCURVE",
"118 773 QCURVE SMOOTH",
"118 668 LINE SMOOTH",
"120 462 OFFCURVE",
"267 149 OFFCURVE",
"533 -20 OFFCURVE",
"705 -20 QCURVE SMOOTH",
"881 -20 OFFCURVE",
"1145 148 OFFCURVE",
"1289 467 OFFCURVE",
"1289 681 QCURVE",
"1289 681 LINE"
);
},
{
closed = 1;
nodes = (
"1098 667 LINE SMOOTH",
"1095 414 OFFCURVE",
"891 143 OFFCURVE",
"705 143 QCURVE SMOOTH",
"520 143 OFFCURVE",
"309 430 OFFCURVE",
"309 681 QCURVE SMOOTH",
"309 788 LINE SMOOTH",
"312 1034 OFFCURVE",
"521 1311 OFFCURVE",
"703 1311 QCURVE SMOOTH",
"890 1311 OFFCURVE",
"1098 1034 OFFCURVE",
"1098 775 QCURVE",
"1098 775 LINE"
);
}
);
userData = {
assembly = "SVTCA[0]	/* SetFreedomAndProjectionVectorToAxis */
PUSHB[ ]	/* 1 value pushed */
0 
RCVT[ ]	/* ReadCVT */
IF[ ]	/* If */
PUSHB[ ]	/* 1 value pushed */
13 
MDAP[1]	/* MoveDirectAbsPt */
ELSE[ ]	/* Else */
PUSHB[ ]	/* 2 values pushed */
13 30 
MIAP[0]	/* MoveIndirectAbsPt */
EIF[ ]	/* EndIf */
PUSHB[ ]	/* 1 value pushed */
0 
RCVT[ ]	/* ReadCVT */
IF[ ]	/* If */
PUSHB[ ]	/* 1 value pushed */
4 
MDAP[1]	/* MoveDirectAbsPt */
ELSE[ ]	/* Else */
PUSHB[ ]	/* 2 values pushed */
4 18 
MIAP[0]	/* MoveIndirectAbsPt */
EIF[ ]	/* EndIf */
PUSHB[ ]	/* 1 value pushed */
13 
SRP0[ ]	/* SetRefPoint0 */
PUSHB[ ]	/* 2 values pushed */
21 1 
PUSHB[ ]	/* 1 value pushed */
10 
CALL[ ]	/* CallFunction */
IF[ ]	/* If */
POP[ ]	/* PopTopStack */
MDRP[11000]	/* MoveDirectRelPt */
ELSE[ ]	/* Else */
MIRP[10100]	/* MoveIndirectRelPt */
EIF[ ]	/* EndIf */
PUSHB[ ]	/* 1 value pushed */
4 
SRP0[ ]	/* SetRefPoint0 */
PUSHB[ ]	/* 2 values pushed */
28 1 
PUSHB[ ]	/* 1 value pushed */
10 
CALL[ ]	/* CallFunction */
IF[ ]	/* If */
POP[ ]	/* PopTopStack */
MDRP[11000]	/* MoveDirectRelPt */
ELSE[ ]	/* Else */
MIRP[10100]	/* MoveIndirectRelPt */
EIF[ ]	/* EndIf */
IUP[0]	/* InterpolateUntPts */
IUP[1]	/* InterpolateUntPts */";
};
width = 1408;
}
);
leftKerningGroup = C;
note = uni004F;
rightKerningGroup = D;
unicode = 004F;
},
{
glyphname = P;
layers = (
{
layerId = "A9B054E9-1A63-4AEF-9EE1-561B1DFE8422";
paths = (
{
closed = 1;
nodes = (
"704 570 LINE SMOOTH",
"951 570 OFFCURVE",
"1216 799 OFFCURVE",
"1216 1011 QCURVE SMOOTH",
"1216 1212 OFFCURVE",
"945 1456 OFFCURVE",
"706 1456 QCURVE SMOOTH",
"169 1456 LINE",
"169 0 LINE",
"361 0 LINE",
"361 570 LINE",
"361 570 LINE"
);
},
{
closed = 1;
nodes = (
"361 1298 LINE",
"717 1298 LINE SMOOTH",
"860 1295 OFFCURVE",
"1024 1139 OFFCURVE",
"1024 1009 QCURVE SMOOTH",
"1024 872 OFFCURVE",
"860 727 OFFCURVE",
"706 727 QCURVE SMOOTH",
"361 727 LINE",
"361 727 LINE"
);
}
);
userData = {
assembly = "PUSHB[ ]	/* 3 values pushed */
10 20 21 
SRP1[ ]	/* SetRefPoint1 */
SRP2[ ]	/* SetRefPoint2 */
IP[ ]	/* InterpolatePts */
PUSHB[ ]	/* 1 value pushed */
10 
SRP0[ ]	/* SetRefPoint0 */
PUSHB[ ]	/* 1 value pushed */
12 
MDRP[10000]	/* MoveDirectRelPt */
SVTCA[0]	/* SetFreedomAndProjectionVectorToAxis */
PUSHB[ ]	/* 1 value pushed */
0 
RCVT[ ]	/* ReadCVT */
IF[ ]	/* If */
PUSHB[ ]	/* 1 value pushed */
3 
MDAP[1]	/* MoveDirectAbsPt */
ELSE[ ]	/* Else */
PUSHB[ ]	/* 2 values pushed */
3 30 
MIAP[0]	/* MoveIndirectAbsPt */
EIF[ ]	/* EndIf */
PUSHB[ ]	/* 1 value pushed */
0 
RCVT[ ]	/* ReadCVT */
IF[ ]	/* If */
PUSHB[ ]	/* 1 value pushed */
1 
MDAP[1]	/* MoveDirectAbsPt */
ELSE[ ]	/* Else */
PUSHB[ ]	/* 2 values pushed */
1 18 
MIAP[0]	/* MoveIndirectAbsPt */
EIF[ ]	/* EndIf */
PUSHB[ ]	/* 3 values pushed */
11 3 1 
SRP1[ ]	/* SetRefPoint1 */
SRP2[ ]	/* SetRefPoint2 */
IP[ ]	/* InterpolatePts */
PUSHB[ ]	/* 1 value pushed */
11 
MDAP[1]	/* MoveDirectAbsPt */
PUSHB[ ]	/* 2 values pushed */
0 1 
PUSHB[ ]	/* 1 value pushed */
10 
CALL[ ]	/* CallFunction */
IF[ ]	/* If */
POP[ ]	/* PopTopStack */
MDRP[11000]	/* MoveDirectRelPt */
ELSE[ ]	/* Else */
MIRP[10100]	/* MoveIndirectRelPt */
EIF[ ]	/* EndIf */
PUSHB[ ]	/* 1 value pushed */
3 
SRP0[ ]	/* SetRefPoint0 */
PUSHB[ ]	/* 2 values pushed */
18 1 
PUSHB[ ]	/* 1 value pushed */
10 
CALL[ ]	/* CallFunction */
IF[ ]	/* If */
POP[ ]	/* PopTopStack */
MDRP[11000]	/* MoveDirectRelPt */
ELSE[ ]	/* Else */
MIRP[10100]	/* MoveIndirectRelPt */
EIF[ ]	/* EndIf */
IUP[0]	/* InterpolateUntPts */
IUP[1]	/* InterpolateUntPts */";
};
width = 1292;
}
);
note = uni0050;
rightKerningGroup = P;
unicode = 0050;
},
{
glyphname = Q;
layers = (
{
layerId = "A9B054E9-1A63-4AEF-9EE1-561B1DFE8422";
paths = (
{
closed = 1;
nodes = (
"1281 774 LINE SMOOTH",
"1281 987 OFFCURVE",
"1137 1306 OFFCURVE",
"870 1476 OFFCURVE",
"694 1476 QCURVE SMOOTH",
"522 1476 OFFCURVE",
"255 1305 OFFCURVE",
"109 983 OFFCURVE",
"109 773 QCURVE SMOOTH",
"109 668 LINE SMOOTH",
"111 462 OFFCURVE",
"258 149 OFFCURVE",
"524 -20 OFFCURVE",
"696 -20 QCURVE SMOOTH",
"776 -20 OFFCURVE",
"848 -2 QCURVE",
"1155 -246 LINE",
"1286 -125 LINE",
"1026 79 LINE",
"1147 165 OFFCURVE",
"1281 470 OFFCURVE",
"1281 681 QCURVE",
"1281 681 LINE"
);
},
{
closed = 1;
nodes = (
"1089 667 LINE SMOOTH",
"1086 414 OFFCURVE",
"882 143 OFFCURVE",
"510 143 OFFCURVE",
"301 431 OFFCURVE",
"301 681 QCURVE SMOOTH",
"301 788 LINE SMOOTH",
"304 1034 OFFCURVE",
"513 1311 OFFCURVE",
"694 1311 QCURVE SMOOTH",
"884 1311 OFFCURVE",
"1089 1032 OFFCURVE",
"1089 775 QCURVE",
"1089 775 LINE"
);
}
);
userData = {
assembly = "PUSHB[ ]	/* 3 values pushed */
8 35 36 
SRP1[ ]	/* SetRefPoint1 */
SRP2[ ]	/* SetRefPoint2 */
IP[ ]	/* InterpolatePts */
PUSHB[ ]	/* 1 value pushed */
8 
SRP0[ ]	/* SetRefPoint0 */
PUSHB[ ]	/* 1 value pushed */
25 
MDRP[10000]	/* MoveDirectRelPt */
SVTCA[0]	/* SetFreedomAndProjectionVectorToAxis */
PUSHB[ ]	/* 1 value pushed */
0 
RCVT[ ]	/* ReadCVT */
IF[ ]	/* If */
PUSHB[ ]	/* 1 value pushed */
17 
MDAP[1]	/* MoveDirectAbsPt */
ELSE[ ]	/* Else */
PUSHB[ ]	/* 2 values pushed */
17 30 
MIAP[0]	/* MoveIndirectAbsPt */
EIF[ ]	/* EndIf */
PUSHB[ ]	/* 1 value pushed */
0 
RCVT[ ]	/* ReadCVT */
IF[ ]	/* If */
PUSHB[ ]	/* 1 value pushed */
8 
MDAP[1]	/* MoveDirectAbsPt */
ELSE[ ]	/* Else */
PUSHB[ ]	/* 2 values pushed */
8 18 
MIAP[0]	/* MoveIndirectAbsPt */
EIF[ ]	/* EndIf */
PUSHB[ ]	/* 3 values pushed */
3 8 17 
SRP1[ ]	/* SetRefPoint1 */
SRP2[ ]	/* SetRefPoint2 */
IP[ ]	/* InterpolatePts */
PUSHB[ ]	/* 1 value pushed */
17 
SRP0[ ]	/* SetRefPoint0 */
PUSHB[ ]	/* 2 values pushed */
25 1 
PUSHB[ ]	/* 1 value pushed */
10 
CALL[ ]	/* CallFunction */
IF[ ]	/* If */
POP[ ]	/* PopTopStack */
MDRP[11000]	/* MoveDirectRelPt */
ELSE[ ]	/* Else */
MIRP[10100]	/* MoveIndirectRelPt */
EIF[ ]	/* EndIf */
PUSHB[ ]	/* 1 value pushed */
8 
SRP0[ ]	/* SetRefPoint0 */
PUSHB[ ]	/* 2 values pushed */
32 1 
PUSHB[ ]	/* 1 value pushed */
10 
CALL[ ]	/* CallFunction */
IF[ ]	/* If */
POP[ ]	/* PopTopStack */
MDRP[11000]	/* MoveDirectRelPt */
ELSE[ ]	/* Else */
MIRP[10100]	/* MoveIndirectRelPt */
EIF[ ]	/* EndIf */
IUP[0]	/* InterpolateUntPts */
IUP[1]	/* InterpolateUntPts */";
};
width = 1408;
}
);
leftKerningGroup = C;
note = uni0051;
unicode = 0051;
},
{
glyphname = R;
layers = (
{
layerId = "A9B054E9-1A63-4AEF-9EE1-561B1DFE8422";
paths = (
{
closed = 1;
nodes = (
"1019 0 LINE",
"1225 0 LINE",
"1225 12 LINE",
"883 630 LINE",
"1014 680 OFFCURVE",
"1161 882 OFFCURVE",
"1161 1018 QCURVE SMOOTH",
"1161 1232 OFFCURVE",
"896 1456 OFFCURVE",
"650 1456 QCURVE SMOOTH",
"168 1456 LINE",
"168 0 LINE",
"361 0 LINE",
"361 589 LINE",
"703 589 LINE",
"703 589 LINE"
);
},
{
closed = 1;
nodes = (
"361 1298 LINE",
"655 1298 LINE SMOOTH",
"807 1297 OFFCURVE",
"968 1153 OFFCURVE",
"968 1018 QCURVE SMOOTH",
"968 894 OFFCURVE",
"799 746 OFFCURVE",
"656 746 QCURVE SMOOTH",
"361 746 LINE",
"361 746 LINE"
);
}
);
userData = {
assembly = "PUSHB[ ]	/* 3 values pushed */
5 24 25 
SRP1[ ]	/* SetRefPoint1 */
SRP2[ ]	/* SetRefPoint2 */
IP[ ]	/* InterpolatePts */
PUSHB[ ]	/* 1 value pushed */
5 
SRP0[ ]	/* SetRefPoint0 */
PUSHB[ ]	/* 1 value pushed */
22 
MDRP[10000]	/* MoveDirectRelPt */
SVTCA[0]	/* SetFreedomAndProjectionVectorToAxis */
PUSHB[ ]	/* 1 value pushed */
0 
RCVT[ ]	/* ReadCVT */
IF[ ]	/* If */
PUSHB[ ]	/* 1 value pushed */
4 
MDAP[1]	/* MoveDirectAbsPt */
ELSE[ ]	/* Else */
PUSHB[ ]	/* 2 values pushed */
4 30 
MIAP[0]	/* MoveIndirectAbsPt */
EIF[ ]	/* EndIf */
PUSHB[ ]	/* 1 value pushed */
0 
RCVT[ ]	/* ReadCVT */
IF[ ]	/* If */
PUSHB[ ]	/* 1 value pushed */
2 
MDAP[1]	/* MoveDirectAbsPt */
ELSE[ ]	/* Else */
PUSHB[ ]	/* 2 values pushed */
2 18 
MIAP[0]	/* MoveIndirectAbsPt */
EIF[ ]	/* EndIf */
PUSHB[ ]	/* 1 value pushed */
0 
RCVT[ ]	/* ReadCVT */
IF[ ]	/* If */
PUSHB[ ]	/* 1 value pushed */
13 
MDAP[1]	/* MoveDirectAbsPt */
ELSE[ ]	/* Else */
PUSHB[ ]	/* 2 values pushed */
13 18 
MIAP[0]	/* MoveIndirectAbsPt */
EIF[ ]	/* EndIf */
PUSHB[ ]	/* 3 values pushed */
16 4 2 
SRP1[ ]	/* SetRefPoint1 */
SRP2[ ]	/* SetRefPoint2 */
IP[ ]	/* InterpolatePts */
PUSHB[ ]	/* 1 value pushed */
16 
MDAP[1]	/* MoveDirectAbsPt */
PUSHB[ ]	/* 2 values pushed */
0 1 
PUSHB[ ]	/* 1 value pushed */
10 
CALL[ ]	/* CallFunction */
IF[ ]	/* If */
POP[ ]	/* PopTopStack */
MDRP[11000]	/* MoveDirectRelPt */
ELSE[ ]	/* Else */
MIRP[10100]	/* MoveIndirectRelPt */
EIF[ ]	/* EndIf */
PUSHB[ ]	/* 3 values pushed */
11 0 4 
SRP1[ ]	/* SetRefPoint1 */
SRP2[ ]	/* SetRefPoint2 */
IP[ ]	/* InterpolatePts */
PUSHB[ ]	/* 1 value pushed */
4 
SRP0[ ]	/* SetRefPoint0 */
PUSHB[ ]	/* 2 values pushed */
22 1 
PUSHB[ ]	/* 1 value pushed */
10 
CALL[ ]	/* CallFunction */
IF[ ]	/* If */
POP[ ]	/* PopTopStack */
MDRP[11000]	/* MoveDirectRelPt */
ELSE[ ]	/* Else */
MIRP[10100]	/* MoveIndirectRelPt */
EIF[ ]	/* EndIf */
IUP[0]	/* InterpolateUntPts */
IUP[1]	/* InterpolateUntPts */";
};
width = 1261;
}
);
note = uni0052;
unicode = 0052;
},
{
glyphname = S;
layers = (
{
layerId = "A9B054E9-1A63-4AEF-9EE1-561B1DFE8422";
paths = (
{
closed = 1;
nodes = (
"795 592 OFFCURVE",
"945 475 OFFCURVE",
"945 261 OFFCURVE",
"783 137 OFFCURVE",
"631 137 QCURVE SMOOTH",
"468 137 OFFCURVE",
"273 290 OFFCURVE",
"273 422 QCURVE",
"80 422 LINE",
"80 295 OFFCURVE",
"221 95 OFFCURVE",
"481 -20 OFFCURVE",
"631 -20 QCURVE SMOOTH",
"862 -20 OFFCURVE",
"1138 193 OFFCURVE",
"1138 370 QCURVE SMOOTH",
"1138 481 OFFCURVE",
"1039 645 OFFCURVE",
"834 768 OFFCURVE",
"471 870 OFFCURVE",
"320 993 OFFCURVE",
"320 1082 QCURVE SMOOTH",
"320 1193 OFFCURVE",
"479 1318 OFFCURVE",
"621 1318 QCURVE SMOOTH",
"774 1318 OFFCURVE",
"942 1167 OFFCURVE",
"942 1035 QCURVE",
"1135 1035 LINE",
"1135 1156 OFFCURVE",
"1006 1360 OFFCURVE",
"771 1476 OFFCURVE",
"621 1476 QCURVE SMOOTH",
"401 1476 OFFCURVE",
"126 1251 OFFCURVE",
"126 1079 QCURVE SMOOTH",
"126 927 OFFCURVE",
"351 720 OFFCURVE",
"598 649 QCURVE",
"598 649 LINE"
);
}
);
userData = {
assembly = "PUSHB[ ]	/* 3 values pushed */
0 39 40 
SRP1[ ]	/* SetRefPoint1 */
SRP2[ ]	/* SetRefPoint2 */
IP[ ]	/* InterpolatePts */
SVTCA[0]	/* SetFreedomAndProjectionVectorToAxis */
PUSHB[ ]	/* 1 value pushed */
0 
RCVT[ ]	/* ReadCVT */
IF[ ]	/* If */
PUSHB[ ]	/* 1 value pushed */
6 
MDAP[1]	/* MoveDirectAbsPt */
ELSE[ ]	/* Else */
PUSHB[ ]	/* 2 values pushed */
6 30 
MIAP[0]	/* MoveIndirectAbsPt */
EIF[ ]	/* EndIf */
PUSHB[ ]	/* 1 value pushed */
0 
RCVT[ ]	/* ReadCVT */
IF[ ]	/* If */
PUSHB[ ]	/* 1 value pushed */
26 
MDAP[1]	/* MoveDirectAbsPt */
ELSE[ ]	/* Else */
PUSHB[ ]	/* 2 values pushed */
26 18 
MIAP[0]	/* MoveIndirectAbsPt */
EIF[ ]	/* EndIf */
PUSHB[ ]	/* 1 value pushed */
6 
SRP0[ ]	/* SetRefPoint0 */
PUSHB[ ]	/* 1 value pushed */
11 
MDRP[10000]	/* MoveDirectRelPt */
PUSHB[ ]	/* 1 value pushed */
6 
SRP0[ ]	/* SetRefPoint0 */
PUSHB[ ]	/* 2 values pushed */
14 1 
PUSHB[ ]	/* 1 value pushed */
10 
CALL[ ]	/* CallFunction */
IF[ ]	/* If */
POP[ ]	/* PopTopStack */
MDRP[11000]	/* MoveDirectRelPt */
ELSE[ ]	/* Else */
MIRP[10100]	/* MoveIndirectRelPt */
EIF[ ]	/* EndIf */
PUSHB[ ]	/* 3 values pushed */
38 26 6 
SRP1[ ]	/* SetRefPoint1 */
SRP2[ ]	/* SetRefPoint2 */
IP[ ]	/* InterpolatePts */
PUSHB[ ]	/* 1 value pushed */
38 
SRP0[ ]	/* SetRefPoint0 */
PUSHB[ ]	/* 2 values pushed */
20 1 
PUSHB[ ]	/* 1 value pushed */
10 
CALL[ ]	/* CallFunction */
IF[ ]	/* If */
POP[ ]	/* PopTopStack */
MDRP[11000]	/* MoveDirectRelPt */
ELSE[ ]	/* Else */
MIRP[10100]	/* MoveIndirectRelPt */
EIF[ ]	/* EndIf */
PUSHB[ ]	/* 1 value pushed */
26 
SRP0[ ]	/* SetRefPoint0 */
PUSHB[ ]	/* 1 value pushed */
31 
MDRP[10000]	/* MoveDirectRelPt */
PUSHB[ ]	/* 1 value pushed */
26 
SRP0[ ]	/* SetRefPoint0 */
PUSHB[ ]	/* 2 values pushed */
34 1 
PUSHB[ ]	/* 1 value pushed */
10 
CALL[ ]	/* CallFunction */
IF[ ]	/* If */
POP[ ]	/* PopTopStack */
MDRP[11000]	/* MoveDirectRelPt */
ELSE[ ]	/* Else */
MIRP[10100]	/* MoveIndirectRelPt */
EIF[ ]	/* EndIf */
IUP[0]	/* InterpolateUntPts */
IUP[1]	/* InterpolateUntPts */";
};
width = 1215;
}
);
leftKerningGroup = S;
note = uni0053;
unicode = 0053;
},
{
glyphname = T;
layers = (
{
layerId = "A9B054E9-1A63-4AEF-9EE1-561B1DFE8422";
paths = (
{
closed = 1;
nodes = (
"1175 1456 LINE",
"49 1456 LINE",
"49 1298 LINE",
"516 1298 LINE",
"516 0 LINE",
"707 0 LINE",
"707 1298 LINE",
"1175 1298 LINE",
"1175 1298 LINE"
);
}
);
userData = {
assembly = "SVTCA[0]	/* SetFreedomAndProjectionVectorToAxis */
PUSHB[ ]	/* 1 value pushed */
0 
RCVT[ ]	/* ReadCVT */
IF[ ]	/* If */
PUSHB[ ]	/* 1 value pushed */
6 
MDAP[1]	/* MoveDirectAbsPt */
ELSE[ ]	/* Else */
PUSHB[ ]	/* 2 values pushed */
6 30 
MIAP[0]	/* MoveIndirectAbsPt */
EIF[ ]	/* EndIf */
PUSHB[ ]	/* 1 value pushed */
0 
RCVT[ ]	/* ReadCVT */
IF[ ]	/* If */
PUSHB[ ]	/* 1 value pushed */
2 
MDAP[1]	/* MoveDirectAbsPt */
ELSE[ ]	/* Else */
PUSHB[ ]	/* 2 values pushed */
2 18 
MIAP[0]	/* MoveIndirectAbsPt */
EIF[ ]	/* EndIf */
PUSHB[ ]	/* 1 value pushed */
6 
SRP0[ ]	/* SetRefPoint0 */
PUSHB[ ]	/* 2 values pushed */
0 1 
PUSHB[ ]	/* 1 value pushed */
10 
CALL[ ]	/* CallFunction */
IF[ ]	/* If */
POP[ ]	/* PopTopStack */
MDRP[11000]	/* MoveDirectRelPt */
ELSE[ ]	/* Else */
MIRP[10100]	/* MoveIndirectRelPt */
EIF[ ]	/* EndIf */
PUSHB[ ]	/* 1 value pushed */
4 
MDRP[10000]	/* MoveDirectRelPt */
IUP[0]	/* InterpolateUntPts */
IUP[1]	/* InterpolateUntPts */";
};
width = 1222;
}
);
leftKerningGroup = T;
note = uni0054;
rightKerningGroup = T;
unicode = 0054;
},
{
glyphname = U;
layers = (
{
layerId = "A9B054E9-1A63-4AEF-9EE1-561B1DFE8422";
paths = (
{
closed = 1;
nodes = (
"1001 1456 LINE",
"1001 469 LINE SMOOTH",
"1001 311 OFFCURVE",
"828 137 OFFCURVE",
"665 137 QCURVE SMOOTH",
"504 137 OFFCURVE",
"330 312 OFFCURVE",
"330 470 QCURVE SMOOTH",
"330 1456 LINE",
"140 1456 LINE",
"140 464 LINE SMOOTH",
"142 238 OFFCURVE",
"426 -20 OFFCURVE",
"665 -20 QCURVE SMOOTH",
"716 -18 LINE SMOOTH",
"936 -2 OFFCURVE",
"1193 260 OFFCURVE",
"1194 466 QCURVE SMOOTH",
"1194 1456 LINE",
"1194 1456 LINE"
);
}
);
userData = {
assembly = "PUSHB[ ]	/* 3 values pushed */
5 19 20 
SRP1[ ]	/* SetRefPoint1 */
SRP2[ ]	/* SetRefPoint2 */
IP[ ]	/* InterpolatePts */
SVTCA[0]	/* SetFreedomAndProjectionVectorToAxis */
PUSHB[ ]	/* 1 value pushed */
0 
RCVT[ ]	/* ReadCVT */
IF[ ]	/* If */
PUSHB[ ]	/* 1 value pushed */
0 
MDAP[1]	/* MoveDirectAbsPt */
ELSE[ ]	/* Else */
PUSHB[ ]	/* 2 values pushed */
0 30 
MIAP[0]	/* MoveIndirectAbsPt */
EIF[ ]	/* EndIf */
PUSHB[ ]	/* 1 value pushed */
0 
RCVT[ ]	/* ReadCVT */
IF[ ]	/* If */
PUSHB[ ]	/* 1 value pushed */
9 
MDAP[1]	/* MoveDirectAbsPt */
ELSE[ ]	/* Else */
PUSHB[ ]	/* 2 values pushed */
9 30 
MIAP[0]	/* MoveIndirectAbsPt */
EIF[ ]	/* EndIf */
PUSHB[ ]	/* 1 value pushed */
0 
RCVT[ ]	/* ReadCVT */
IF[ ]	/* If */
PUSHB[ ]	/* 1 value pushed */
5 
MDAP[1]	/* MoveDirectAbsPt */
ELSE[ ]	/* Else */
PUSHB[ ]	/* 2 values pushed */
5 18 
MIAP[0]	/* MoveIndirectAbsPt */
EIF[ ]	/* EndIf */
PUSHB[ ]	/* 2 values pushed */
14 1 
PUSHB[ ]	/* 1 value pushed */
10 
CALL[ ]	/* CallFunction */
IF[ ]	/* If */
POP[ ]	/* PopTopStack */
MDRP[11000]	/* MoveDirectRelPt */
ELSE[ ]	/* Else */
MIRP[10100]	/* MoveIndirectRelPt */
EIF[ ]	/* EndIf */
IUP[0]	/* InterpolateUntPts */
IUP[1]	/* InterpolateUntPts */";
};
width = 1328;
}
);
leftKerningGroup = U;
note = uni0055;
rightKerningGroup = J;
unicode = 0055;
},
{
glyphname = V;
layers = (
{
layerId = "A9B054E9-1A63-4AEF-9EE1-561B1DFE8422";
paths = (
{
closed = 1;
nodes = (
"237 1456 LINE",
"28 1456 LINE",
"567 0 LINE",
"737 0 LINE",
"1277 1456 LINE",
"1067 1456 LINE",
"651 255 LINE",
"651 255 LINE"
);
}
);
userData = {
assembly = "PUSHB[ ]	/* 3 values pushed */
0 7 8 
SRP1[ ]	/* SetRefPoint1 */
SRP2[ ]	/* SetRefPoint2 */
IP[ ]	/* InterpolatePts */
SVTCA[0]	/* SetFreedomAndProjectionVectorToAxis */
PUSHB[ ]	/* 1 value pushed */
0 
RCVT[ ]	/* ReadCVT */
IF[ ]	/* If */
PUSHB[ ]	/* 1 value pushed */
1 
MDAP[1]	/* MoveDirectAbsPt */
ELSE[ ]	/* Else */
PUSHB[ ]	/* 2 values pushed */
1 30 
MIAP[0]	/* MoveIndirectAbsPt */
EIF[ ]	/* EndIf */
PUSHB[ ]	/* 1 value pushed */
0 
RCVT[ ]	/* ReadCVT */
IF[ ]	/* If */
PUSHB[ ]	/* 1 value pushed */
5 
MDAP[1]	/* MoveDirectAbsPt */
ELSE[ ]	/* Else */
PUSHB[ ]	/* 2 values pushed */
5 30 
MIAP[0]	/* MoveIndirectAbsPt */
EIF[ ]	/* EndIf */
PUSHB[ ]	/* 1 value pushed */
0 
RCVT[ ]	/* ReadCVT */
IF[ ]	/* If */
PUSHB[ ]	/* 1 value pushed */
3 
MDAP[1]	/* MoveDirectAbsPt */
ELSE[ ]	/* Else */
PUSHB[ ]	/* 2 values pushed */
3 18 
MIAP[0]	/* MoveIndirectAbsPt */
EIF[ ]	/* EndIf */
PUSHB[ ]	/* 3 values pushed */
0 1 3 
SRP1[ ]	/* SetRefPoint1 */
SRP2[ ]	/* SetRefPoint2 */
IP[ ]	/* InterpolatePts */
IUP[0]	/* InterpolateUntPts */
IUP[1]	/* InterpolateUntPts */";
};
width = 1303;
}
);
leftKerningGroup = V;
note = uni0056;
rightKerningGroup = V;
unicode = 0056;
},
{
glyphname = W;
layers = (
{
layerId = "A9B054E9-1A63-4AEF-9EE1-561B1DFE8422";
paths = (
{
closed = 1;
nodes = (
"253 1456 LINE",
"61 1456 LINE",
"413 0 LINE",
"588 0 LINE",
"899 1061 LINE",
"922 1172 LINE",
"945 1061 LINE",
"1245 0 LINE",
"1420 0 LINE",
"1773 1456 LINE",
"1580 1456 LINE",
"1354 460 LINE",
"1323 264 LINE",
"1283 440 LINE",
"1002 1456 LINE",
"840 1456 LINE",
"552 440 LINE",
"511 267 LINE",
"483 459 LINE",
"483 459 LINE"
);
}
);
userData = {
assembly = "SVTCA[0]	/* SetFreedomAndProjectionVectorToAxis */
PUSHB[ ]	/* 1 value pushed */
0 
RCVT[ ]	/* ReadCVT */
IF[ ]	/* If */
PUSHB[ ]	/* 1 value pushed */
3 
MDAP[1]	/* MoveDirectAbsPt */
ELSE[ ]	/* Else */
PUSHB[ ]	/* 2 values pushed */
3 30 
MIAP[0]	/* MoveIndirectAbsPt */
EIF[ ]	/* EndIf */
PUSHB[ ]	/* 1 value pushed */
0 
RCVT[ ]	/* ReadCVT */
IF[ ]	/* If */
PUSHB[ ]	/* 1 value pushed */
8 
MDAP[1]	/* MoveDirectAbsPt */
ELSE[ ]	/* Else */
PUSHB[ ]	/* 2 values pushed */
8 30 
MIAP[0]	/* MoveIndirectAbsPt */
EIF[ ]	/* EndIf */
PUSHB[ ]	/* 1 value pushed */
0 
RCVT[ ]	/* ReadCVT */
IF[ ]	/* If */
PUSHB[ ]	/* 1 value pushed */
17 
MDAP[1]	/* MoveDirectAbsPt */
ELSE[ ]	/* Else */
PUSHB[ ]	/* 2 values pushed */
17 30 
MIAP[0]	/* MoveIndirectAbsPt */
EIF[ ]	/* EndIf */
PUSHB[ ]	/* 1 value pushed */
0 
RCVT[ ]	/* ReadCVT */
IF[ ]	/* If */
PUSHB[ ]	/* 1 value pushed */
10 
MDAP[1]	/* MoveDirectAbsPt */
ELSE[ ]	/* Else */
PUSHB[ ]	/* 2 values pushed */
10 18 
MIAP[0]	/* MoveIndirectAbsPt */
EIF[ ]	/* EndIf */
PUSHB[ ]	/* 1 value pushed */
0 
RCVT[ ]	/* ReadCVT */
IF[ ]	/* If */
PUSHB[ ]	/* 1 value pushed */
15 
MDAP[1]	/* MoveDirectAbsPt */
ELSE[ ]	/* Else */
PUSHB[ ]	/* 2 values pushed */
15 18 
MIAP[0]	/* MoveIndirectAbsPt */
EIF[ ]	/* EndIf */
PUSHB[ ]	/* 3 values pushed */
1 3 10 
SRP1[ ]	/* SetRefPoint1 */
SRP2[ ]	/* SetRefPoint2 */
IP[ ]	/* InterpolatePts */
PUSHB[ ]	/* 3 values pushed */
6 3 10 
SRP1[ ]	/* SetRefPoint1 */
SRP2[ ]	/* SetRefPoint2 */
IP[ ]	/* InterpolatePts */
PUSHB[ ]	/* 3 values pushed */
13 3 10 
SRP1[ ]	/* SetRefPoint1 */
SRP2[ ]	/* SetRefPoint2 */
IP[ ]	/* InterpolatePts */
IUP[0]	/* InterpolateUntPts */
IUP[1]	/* InterpolateUntPts */";
};
width = 1817;
}
);
leftKerningGroup = W;
note = uni0057;
rightKerningGroup = W;
unicode = 0057;
},
{
glyphname = X;
layers = (
{
layerId = "A9B054E9-1A63-4AEF-9EE1-561B1DFE8422";
paths = (
{
closed = 1;
nodes = (
"293 1456 LINE",
"68 1456 LINE",
"529 734 LINE",
"57 0 LINE",
"284 0 LINE",
"644 568 LINE",
"1002 0 LINE",
"1230 0 LINE",
"759 734 LINE",
"1219 1456 LINE",
"993 1456 LINE",
"644 898 LINE",
"644 898 LINE"
);
}
);
userData = {
assembly = "SVTCA[0]	/* SetFreedomAndProjectionVectorToAxis */
PUSHB[ ]	/* 1 value pushed */
0 
RCVT[ ]	/* ReadCVT */
IF[ ]	/* If */
PUSHB[ ]	/* 1 value pushed */
1 
MDAP[1]	/* MoveDirectAbsPt */
ELSE[ ]	/* Else */
PUSHB[ ]	/* 2 values pushed */
1 30 
MIAP[0]	/* MoveIndirectAbsPt */
EIF[ ]	/* EndIf */
PUSHB[ ]	/* 1 value pushed */
0 
RCVT[ ]	/* ReadCVT */
IF[ ]	/* If */
PUSHB[ ]	/* 1 value pushed */
10 
MDAP[1]	/* MoveDirectAbsPt */
ELSE[ ]	/* Else */
PUSHB[ ]	/* 2 values pushed */
10 30 
MIAP[0]	/* MoveIndirectAbsPt */
EIF[ ]	/* EndIf */
PUSHB[ ]	/* 1 value pushed */
0 
RCVT[ ]	/* ReadCVT */
IF[ ]	/* If */
PUSHB[ ]	/* 1 value pushed */
4 
MDAP[1]	/* MoveDirectAbsPt */
ELSE[ ]	/* Else */
PUSHB[ ]	/* 2 values pushed */
4 18 
MIAP[0]	/* MoveIndirectAbsPt */
EIF[ ]	/* EndIf */
PUSHB[ ]	/* 1 value pushed */
0 
RCVT[ ]	/* ReadCVT */
IF[ ]	/* If */
PUSHB[ ]	/* 1 value pushed */
7 
MDAP[1]	/* MoveDirectAbsPt */
ELSE[ ]	/* Else */
PUSHB[ ]	/* 2 values pushed */
7 18 
MIAP[0]	/* MoveIndirectAbsPt */
EIF[ ]	/* EndIf */
PUSHB[ ]	/* 3 values pushed */
0 1 4 
SRP1[ ]	/* SetRefPoint1 */
SRP2[ ]	/* SetRefPoint2 */
IP[ ]	/* InterpolatePts */
NPUSHB[ ]	/* 9 values pushed */
134 0 150 0 166 0 182 0 4 
DELTAP1[ ]	/* DeltaExceptionP1 */
PUSHB[ ]	/* 3 values pushed */
6 1 4 
SRP1[ ]	/* SetRefPoint1 */
SRP2[ ]	/* SetRefPoint2 */
IP[ ]	/* InterpolatePts */
NPUSHB[ ]	/* 9 values pushed */
137 6 153 6 169 6 185 6 4 
DELTAP1[ ]	/* DeltaExceptionP1 */
PUSHB[ ]	/* 3 values pushed */
3 0 6 
SRP1[ ]	/* SetRefPoint1 */
SRP2[ ]	/* SetRefPoint2 */
IP[ ]	/* InterpolatePts */
PUSHB[ ]	/* 3 values pushed */
9 6 0 
SRP1[ ]	/* SetRefPoint1 */
SRP2[ ]	/* SetRefPoint2 */
IP[ ]	/* InterpolatePts */
IUP[0]	/* InterpolateUntPts */
IUP[1]	/* InterpolateUntPts */";
};
width = 1284;
}
);
leftKerningGroup = X;
note = uni0058;
rightKerningGroup = X;
unicode = 0058;
},
{
glyphname = Y;
layers = (
{
layerId = "A9B054E9-1A63-4AEF-9EE1-561B1DFE8422";
paths = (
{
closed = 1;
nodes = (
"235 1456 LINE",
"15 1456 LINE",
"517 543 LINE",
"517 0 LINE",
"709 0 LINE",
"709 543 LINE",
"1211 1456 LINE",
"993 1456 LINE",
"613 725 LINE",
"613 725 LINE"
);
}
);
userData = {
assembly = "SVTCA[0]	/* SetFreedomAndProjectionVectorToAxis */
PUSHB[ ]	/* 1 value pushed */
0 
RCVT[ ]	/* ReadCVT */
IF[ ]	/* If */
PUSHB[ ]	/* 1 value pushed */
1 
MDAP[1]	/* MoveDirectAbsPt */
ELSE[ ]	/* Else */
PUSHB[ ]	/* 2 values pushed */
1 30 
MIAP[0]	/* MoveIndirectAbsPt */
EIF[ ]	/* EndIf */
PUSHB[ ]	/* 1 value pushed */
0 
RCVT[ ]	/* ReadCVT */
IF[ ]	/* If */
PUSHB[ ]	/* 1 value pushed */
7 
MDAP[1]	/* MoveDirectAbsPt */
ELSE[ ]	/* Else */
PUSHB[ ]	/* 2 values pushed */
7 30 
MIAP[0]	/* MoveIndirectAbsPt */
EIF[ ]	/* EndIf */
PUSHB[ ]	/* 1 value pushed */
0 
RCVT[ ]	/* ReadCVT */
IF[ ]	/* If */
PUSHB[ ]	/* 1 value pushed */
4 
MDAP[1]	/* MoveDirectAbsPt */
ELSE[ ]	/* Else */
PUSHB[ ]	/* 2 values pushed */
4 18 
MIAP[0]	/* MoveIndirectAbsPt */
EIF[ ]	/* EndIf */
PUSHB[ ]	/* 3 values pushed */
0 1 4 
SRP1[ ]	/* SetRefPoint1 */
SRP2[ ]	/* SetRefPoint2 */
IP[ ]	/* InterpolatePts */
IUP[0]	/* InterpolateUntPts */
IUP[1]	/* InterpolateUntPts */";
};
width = 1230;
}
);
leftKerningGroup = Y;
note = uni0059;
rightKerningGroup = Y;
unicode = 0059;
},
{
glyphname = Z;
layers = (
{
layerId = "A9B054E9-1A63-4AEF-9EE1-561B1DFE8422";
paths = (
{
closed = 1;
nodes = (
"1114 1315 LINE",
"1114 1456 LINE",
"99 1456 LINE",
"99 1298 LINE",
"884 1298 LINE",
"86 144 LINE",
"86 0 LINE",
"1146 0 LINE",
"1146 157 LINE",
"313 157 LINE",
"313 157 LINE"
);
}
);
userData = {
assembly = "SVTCA[0]	/* SetFreedomAndProjectionVectorToAxis */
PUSHB[ ]	/* 1 value pushed */
0 
RCVT[ ]	/* ReadCVT */
IF[ ]	/* If */
PUSHB[ ]	/* 1 value pushed */
7 
MDAP[1]	/* MoveDirectAbsPt */
ELSE[ ]	/* Else */
PUSHB[ ]	/* 2 values pushed */
7 30 
MIAP[0]	/* MoveIndirectAbsPt */
EIF[ ]	/* EndIf */
PUSHB[ ]	/* 1 value pushed */
0 
RCVT[ ]	/* ReadCVT */
IF[ ]	/* If */
PUSHB[ ]	/* 1 value pushed */
2 
MDAP[1]	/* MoveDirectAbsPt */
ELSE[ ]	/* Else */
PUSHB[ ]	/* 2 values pushed */
2 18 
MIAP[0]	/* MoveIndirectAbsPt */
EIF[ ]	/* EndIf */
PUSHB[ ]	/* 2 values pushed */
0 1 
PUSHB[ ]	/* 1 value pushed */
10 
CALL[ ]	/* CallFunction */
IF[ ]	/* If */
POP[ ]	/* PopTopStack */
MDRP[11000]	/* MoveDirectRelPt */
ELSE[ ]	/* Else */
MIRP[10100]	/* MoveIndirectRelPt */
EIF[ ]	/* EndIf */
PUSHB[ ]	/* 3 values pushed */
4 0 2 
SRP1[ ]	/* SetRefPoint1 */
SRP2[ ]	/* SetRefPoint2 */
IP[ ]	/* InterpolatePts */
PUSHB[ ]	/* 1 value pushed */
7 
SRP0[ ]	/* SetRefPoint0 */
PUSHB[ ]	/* 2 values pushed */
5 1 
PUSHB[ ]	/* 1 value pushed */
10 
CALL[ ]	/* CallFunction */
IF[ ]	/* If */
POP[ ]	/* PopTopStack */
MDRP[11000]	/* MoveDirectRelPt */
ELSE[ ]	/* Else */
MIRP[10100]	/* MoveIndirectRelPt */
EIF[ ]	/* EndIf */
PUSHB[ ]	/* 3 values pushed */
9 5 7 
SRP1[ ]	/* SetRefPoint1 */
SRP2[ ]	/* SetRefPoint2 */
IP[ ]	/* InterpolatePts */
IUP[0]	/* InterpolateUntPts */
IUP[1]	/* InterpolateUntPts */";
};
width = 1226;
}
);
leftKerningGroup = Z;
note = uni005A;
rightKerningGroup = Z;
unicode = 005A;
},
{
glyphname = bracketleft;
layers = (
{
layerId = "A9B054E9-1A63-4AEF-9EE1-561B1DFE8422";
paths = (
{
closed = 1;
nodes = (
"523 1664 LINE",
"146 1664 LINE",
"146 -312 LINE",
"523 -312 LINE",
"523 -160 LINE",
"332 -160 LINE",
"332 1512 LINE",
"523 1512 LINE",
"523 1512 LINE"
);
}
);
userData = {
assembly = "SVTCA[0]	/* SetFreedomAndProjectionVectorToAxis */
PUSHB[ ]	/* 1 value pushed */
4 
MDAP[1]	/* MoveDirectAbsPt */
PUSHB[ ]	/* 1 value pushed */
7 
MDAP[1]	/* MoveDirectAbsPt */
PUSHB[ ]	/* 2 values pushed */
0 1 
PUSHB[ ]	/* 1 value pushed */
10 
CALL[ ]	/* CallFunction */
IF[ ]	/* If */
POP[ ]	/* PopTopStack */
MDRP[11000]	/* MoveDirectRelPt */
ELSE[ ]	/* Else */
MIRP[10100]	/* MoveIndirectRelPt */
EIF[ ]	/* EndIf */
PUSHB[ ]	/* 1 value pushed */
4 
SRP0[ ]	/* SetRefPoint0 */
PUSHB[ ]	/* 2 values pushed */
3 1 
PUSHB[ ]	/* 1 value pushed */
10 
CALL[ ]	/* CallFunction */
IF[ ]	/* If */
POP[ ]	/* PopTopStack */
MDRP[11000]	/* MoveDirectRelPt */
ELSE[ ]	/* Else */
MIRP[10100]	/* MoveIndirectRelPt */
EIF[ ]	/* EndIf */
IUP[0]	/* InterpolateUntPts */
IUP[1]	/* InterpolateUntPts */";
};
width = 543;
}
);
note = uni005B;
unicode = 005B;
},
{
glyphname = backslash;
layers = (
{
layerId = "A9B054E9-1A63-4AEF-9EE1-561B1DFE8422";
paths = (
{
closed = 1;
nodes = (
"648 -125 LINE",
"824 -125 LINE",
"216 1456 LINE",
"40 1456 LINE",
"40 1456 LINE"
);
}
);
userData = {
assembly = "SVTCA[0]	/* SetFreedomAndProjectionVectorToAxis */
PUSHB[ ]	/* 1 value pushed */
2 
MDAP[1]	/* MoveDirectAbsPt */
PUSHB[ ]	/* 1 value pushed */
0 
RCVT[ ]	/* ReadCVT */
IF[ ]	/* If */
PUSHB[ ]	/* 1 value pushed */
0 
MDAP[1]	/* MoveDirectAbsPt */
ELSE[ ]	/* Else */
PUSHB[ ]	/* 2 values pushed */
0 30 
MIAP[0]	/* MoveIndirectAbsPt */
EIF[ ]	/* EndIf */
IUP[0]	/* InterpolateUntPts */
IUP[1]	/* InterpolateUntPts */";
};
width = 840;
}
);
note = uni005C;
unicode = 005C;
},
{
glyphname = bracketright;
layers = (
{
layerId = "A9B054E9-1A63-4AEF-9EE1-561B1DFE8422";
paths = (
{
closed = 1;
nodes = (
"9 1512 LINE",
"202 1512 LINE",
"202 -160 LINE",
"9 -160 LINE",
"9 -312 LINE",
"387 -312 LINE",
"387 1664 LINE",
"9 1664 LINE",
"9 1664 LINE"
);
}
);
userData = {
assembly = "SVTCA[0]	/* SetFreedomAndProjectionVectorToAxis */
PUSHB[ ]	/* 1 value pushed */
2 
MDAP[1]	/* MoveDirectAbsPt */
PUSHB[ ]	/* 1 value pushed */
1 
MDAP[1]	/* MoveDirectAbsPt */
PUSHB[ ]	/* 1 value pushed */
2 
SRP0[ ]	/* SetRefPoint0 */
PUSHB[ ]	/* 2 values pushed */
5 1 
PUSHB[ ]	/* 1 value pushed */
10 
CALL[ ]	/* CallFunction */
IF[ ]	/* If */
POP[ ]	/* PopTopStack */
MDRP[11000]	/* MoveDirectRelPt */
ELSE[ ]	/* Else */
MIRP[10100]	/* MoveIndirectRelPt */
EIF[ ]	/* EndIf */
PUSHB[ ]	/* 1 value pushed */
1 
SRP0[ ]	/* SetRefPoint0 */
PUSHB[ ]	/* 2 values pushed */
6 1 
PUSHB[ ]	/* 1 value pushed */
10 
CALL[ ]	/* CallFunction */
IF[ ]	/* If */
POP[ ]	/* PopTopStack */
MDRP[11000]	/* MoveDirectRelPt */
ELSE[ ]	/* Else */
MIRP[10100]	/* MoveIndirectRelPt */
EIF[ ]	/* EndIf */
IUP[0]	/* InterpolateUntPts */
IUP[1]	/* InterpolateUntPts */";
};
width = 543;
}
);
note = uni005D;
unicode = 005D;
},
{
glyphname = asciicircum;
layers = (
{
layerId = "A9B054E9-1A63-4AEF-9EE1-561B1DFE8422";
paths = (
{
closed = 1;
nodes = (
"617 729 LINE",
"788 729 LINE",
"490 1456 LINE",
"363 1456 LINE",
"64 729 LINE",
"236 729 LINE",
"426 1211 LINE",
"426 1211 LINE"
);
}
);
userData = {
assembly = "PUSHB[ ]	/* 3 values pushed */
0 7 8 
SRP1[ ]	/* SetRefPoint1 */
SRP2[ ]	/* SetRefPoint2 */
IP[ ]	/* InterpolatePts */
SVTCA[0]	/* SetFreedomAndProjectionVectorToAxis */
PUSHB[ ]	/* 1 value pushed */
0 
RCVT[ ]	/* ReadCVT */
IF[ ]	/* If */
PUSHB[ ]	/* 1 value pushed */
3 
MDAP[1]	/* MoveDirectAbsPt */
ELSE[ ]	/* Else */
PUSHB[ ]	/* 2 values pushed */
3 30 
MIAP[0]	/* MoveIndirectAbsPt */
EIF[ ]	/* EndIf */
PUSHB[ ]	/* 1 value pushed */
0 
MDRP[10000]	/* MoveDirectRelPt */
PUSHB[ ]	/* 3 values pushed */
1 7 3 
SRP1[ ]	/* SetRefPoint1 */
SRP2[ ]	/* SetRefPoint2 */
IP[ ]	/* InterpolatePts */
PUSHB[ ]	/* 1 value pushed */
1 
MDAP[1]	/* MoveDirectAbsPt */
PUSHB[ ]	/* 1 value pushed */
5 
MDRP[10000]	/* MoveDirectRelPt */
IUP[0]	/* InterpolateUntPts */
IUP[1]	/* InterpolateUntPts */";
};
width = 856;
}
);
note = uni005E;
unicode = 005E;
},
{
glyphname = underscore;
layers = (
{
layerId = "A9B054E9-1A63-4AEF-9EE1-561B1DFE8422";
paths = (
{
closed = 1;
nodes = (
"920 0 LINE",
"4 0 LINE",
"4 -151 LINE",
"920 -151 LINE",
"920 -151 LINE"
);
}
);
userData = {
assembly = "SVTCA[0]	/* SetFreedomAndProjectionVectorToAxis */
PUSHB[ ]	/* 1 value pushed */
0 
RCVT[ ]	/* ReadCVT */
IF[ ]	/* If */
PUSHB[ ]	/* 1 value pushed */
3 
MDAP[1]	/* MoveDirectAbsPt */
ELSE[ ]	/* Else */
PUSHB[ ]	/* 2 values pushed */
3 18 
MIAP[0]	/* MoveIndirectAbsPt */
EIF[ ]	/* EndIf */
PUSHB[ ]	/* 2 values pushed */
0 1 
PUSHB[ ]	/* 1 value pushed */
10 
CALL[ ]	/* CallFunction */
IF[ ]	/* If */
POP[ ]	/* PopTopStack */
MDRP[11000]	/* MoveDirectRelPt */
ELSE[ ]	/* Else */
MIRP[10100]	/* MoveIndirectRelPt */
EIF[ ]	/* EndIf */
IUP[0]	/* InterpolateUntPts */
IUP[1]	/* InterpolateUntPts */";
};
width = 924;
}
);
note = uni005F;
unicode = 005F;
},
{
glyphname = grave;
layers = (
{
layerId = "A9B054E9-1A63-4AEF-9EE1-561B1DFE8422";
paths = (
{
closed = 1;
nodes = (
"280 1536 LINE",
"57 1536 LINE",
"315 1242 LINE",
"474 1242 LINE",
"474 1242 LINE"
);
}
);
userData = {
assembly = "SVTCA[0]	/* SetFreedomAndProjectionVectorToAxis */
PUSHB[ ]	/* 1 value pushed */
1 
MDAP[1]	/* MoveDirectAbsPt */
PUSHB[ ]	/* 3 values pushed */
15 1 1 
DELTAP1[ ]	/* DeltaExceptionP1 */
PUSHB[ ]	/* 1 value pushed */
0 
MDRP[10000]	/* MoveDirectRelPt */
RTHG[ ]	/* RoundToHalfGrid */
PUSHB[ ]	/* 1 value pushed */
0 
MDAP[1]	/* MoveDirectAbsPt */
RTG[ ]	/* RoundToGrid */
PUSHB[ ]	/* 1 value pushed */
1 
SRP0[ ]	/* SetRefPoint0 */
PUSHB[ ]	/* 1 value pushed */
2 
MDRP[10000]	/* MoveDirectRelPt */
PUSHB[ ]	/* 1 value pushed */
2 
MDAP[1]	/* MoveDirectAbsPt */
PUSHB[ ]	/* 5 values pushed */
15 2 31 2 2 
DELTAP1[ ]	/* DeltaExceptionP1 */
IUP[0]	/* InterpolateUntPts */
IUP[1]	/* InterpolateUntPts */";
};
width = 633;
}
);
note = uni0060;
unicode = 0060;
},
{
glyphname = a;
layers = (
{
layerId = "A9B054E9-1A63-4AEF-9EE1-561B1DFE8422";
paths = (
{
closed = 1;
nodes = (
"1002 0 LINE",
"1002 16 LINE",
"964 104 OFFCURVE",
"964 253 QCURVE SMOOTH",
"964 751 LINE SMOOTH",
"960 915 OFFCURVE",
"748 1102 OFFCURVE",
"561 1102 QCURVE SMOOTH",
"443 1102 OFFCURVE",
"246 1014 OFFCURVE",
"131 863 OFFCURVE",
"131 782 QCURVE",
"317 782 LINE",
"317 853 OFFCURVE",
"451 953 OFFCURVE",
"550 953 QCURVE SMOOTH",
"663 953 OFFCURVE",
"779 838 OFFCURVE",
"779 741 QCURVE SMOOTH",
"779 656 LINE",
"599 656 LINE SMOOTH",
"366 656 OFFCURVE",
"109 469 OFFCURVE",
"109 300 QCURVE SMOOTH",
"109 161 OFFCURVE",
"314 -20 OFFCURVE",
"474 -20 QCURVE SMOOTH",
"653 -20 OFFCURVE",
"782 114 QCURVE",
"792 32 OFFCURVE",
"808 0 QCURVE",
"808 0 LINE"
);
},
{
closed = 1;
nodes = (
"410 141 OFFCURVE",
"294 239 OFFCURVE",
"294 326 QCURVE SMOOTH",
"294 525 OFFCURVE",
"634 525 QCURVE SMOOTH",
"779 525 LINE",
"779 303 LINE",
"744 231 OFFCURVE",
"588 141 OFFCURVE",
"501 141 QCURVE",
"501 141 LINE"
);
}
);
userData = {
assembly = "PUSHB[ ]	/* 3 values pushed */
23 41 42 
SRP1[ ]	/* SetRefPoint1 */
SRP2[ ]	/* SetRefPoint2 */
IP[ ]	/* InterpolatePts */
PUSHB[ ]	/* 1 value pushed */
23 
SRP0[ ]	/* SetRefPoint0 */
PUSHB[ ]	/* 1 value pushed */
32 
MDRP[10000]	/* MoveDirectRelPt */
SVTCA[0]	/* SetFreedomAndProjectionVectorToAxis */
PUSHB[ ]	/* 1 value pushed */
0 
RCVT[ ]	/* ReadCVT */
IF[ ]	/* If */
PUSHB[ ]	/* 1 value pushed */
23 
MDAP[1]	/* MoveDirectAbsPt */
ELSE[ ]	/* Else */
PUSHB[ ]	/* 2 values pushed */
23 26 
MIAP[0]	/* MoveIndirectAbsPt */
EIF[ ]	/* EndIf */
PUSHB[ ]	/* 1 value pushed */
0 
RCVT[ ]	/* ReadCVT */
IF[ ]	/* If */
PUSHB[ ]	/* 1 value pushed */
4 
MDAP[1]	/* MoveDirectAbsPt */
ELSE[ ]	/* Else */
PUSHB[ ]	/* 2 values pushed */
4 18 
MIAP[0]	/* MoveIndirectAbsPt */
EIF[ ]	/* EndIf */
PUSHB[ ]	/* 1 value pushed */
0 
RCVT[ ]	/* ReadCVT */
IF[ ]	/* If */
PUSHB[ ]	/* 1 value pushed */
0 
MDAP[1]	/* MoveDirectAbsPt */
ELSE[ ]	/* Else */
PUSHB[ ]	/* 2 values pushed */
0 18 
MIAP[0]	/* MoveIndirectAbsPt */
EIF[ ]	/* EndIf */
PUSHB[ ]	/* 3 values pushed */
2 23 4 
SRP1[ ]	/* SetRefPoint1 */
SRP2[ ]	/* SetRefPoint2 */
IP[ ]	/* InterpolatePts */
PUSHB[ ]	/* 3 values pushed */
11 23 4 
SRP1[ ]	/* SetRefPoint1 */
SRP2[ ]	/* SetRefPoint2 */
IP[ ]	/* InterpolatePts */
PUSHB[ ]	/* 1 value pushed */
11 
MDAP[1]	/* MoveDirectAbsPt */
PUSHB[ ]	/* 1 value pushed */
23 
SRP0[ ]	/* SetRefPoint0 */
PUSHB[ ]	/* 2 values pushed */
15 1 
PUSHB[ ]	/* 1 value pushed */
10 
CALL[ ]	/* CallFunction */
IF[ ]	/* If */
POP[ ]	/* PopTopStack */
MDRP[11000]	/* MoveDirectRelPt */
ELSE[ ]	/* Else */
MIRP[10100]	/* MoveIndirectRelPt */
EIF[ ]	/* EndIf */
PUSHB[ ]	/* 3 values pushed */
18 11 23 
SRP1[ ]	/* SetRefPoint1 */
SRP2[ ]	/* SetRefPoint2 */
IP[ ]	/* InterpolatePts */
PUSHB[ ]	/* 1 value pushed */
4 
SRP0[ ]	/* SetRefPoint0 */
PUSHB[ ]	/* 2 values pushed */
31 1 
PUSHB[ ]	/* 1 value pushed */
10 
CALL[ ]	/* CallFunction */
IF[ ]	/* If */
POP[ ]	/* PopTopStack */
MDRP[11000]	/* MoveDirectRelPt */
ELSE[ ]	/* Else */
MIRP[10100]	/* MoveIndirectRelPt */
EIF[ ]	/* EndIf */
PUSHB[ ]	/* 1 value pushed */
11 
SRP0[ ]	/* SetRefPoint0 */
PUSHB[ ]	/* 2 values pushed */
35 1 
PUSHB[ ]	/* 1 value pushed */
10 
CALL[ ]	/* CallFunction */
IF[ ]	/* If */
POP[ ]	/* PopTopStack */
MDRP[11000]	/* MoveDirectRelPt */
ELSE[ ]	/* Else */
MIRP[10100]	/* MoveIndirectRelPt */
EIF[ ]	/* EndIf */
IUP[0]	/* InterpolateUntPts */
IUP[1]	/* InterpolateUntPts */";
};
width = 1114;
}
);
leftKerningGroup = a;
note = uni0061;
rightKerningGroup = a;
unicode = 0061;
},
{
glyphname = b;
layers = (
{
layerId = "A9B054E9-1A63-4AEF-9EE1-561B1DFE8422";
paths = (
{
closed = 1;
nodes = (
"1056 545 LINE SMOOTH",
"1056 804 OFFCURVE",
"831 1102 OFFCURVE",
"437 1102 OFFCURVE",
"325 963 QCURVE",
"325 1536 LINE",
"140 1536 LINE",
"140 0 LINE",
"310 0 LINE",
"319 125 LINE",
"431 -20 OFFCURVE",
"636 -20 QCURVE SMOOTH",
"828 -20 OFFCURVE",
"1056 281 OFFCURVE",
"1056 529 QCURVE",
"1056 529 LINE"
);
},
{
closed = 1;
nodes = (
"871 343 OFFCURVE",
"723 137 OFFCURVE",
"590 137 QCURVE SMOOTH",
"410 137 OFFCURVE",
"325 307 QCURVE",
"325 775 LINE",
"405 945 OFFCURVE",
"588 945 QCURVE SMOOTH",
"725 945 OFFCURVE",
"871 739 OFFCURVE",
"871 550 QCURVE",
"871 550 LINE"
);
}
);
userData = {
assembly = "PUSHB[ ]	/* 3 values pushed */
18 26 27 
SRP1[ ]	/* SetRefPoint1 */
SRP2[ ]	/* SetRefPoint2 */
IP[ ]	/* InterpolatePts */
PUSHB[ ]	/* 1 value pushed */
18 
SRP0[ ]	/* SetRefPoint0 */
PUSHB[ ]	/* 1 value pushed */
3 
MDRP[10000]	/* MoveDirectRelPt */
SVTCA[0]	/* SetFreedomAndProjectionVectorToAxis */
PUSHB[ ]	/* 1 value pushed */
8 
MDAP[1]	/* MoveDirectAbsPt */
PUSHB[ ]	/* 1 value pushed */
0 
RCVT[ ]	/* ReadCVT */
IF[ ]	/* If */
PUSHB[ ]	/* 1 value pushed */
12 
MDAP[1]	/* MoveDirectAbsPt */
ELSE[ ]	/* Else */
PUSHB[ ]	/* 2 values pushed */
12 26 
MIAP[0]	/* MoveIndirectAbsPt */
EIF[ ]	/* EndIf */
PUSHB[ ]	/* 1 value pushed */
0 
RCVT[ ]	/* ReadCVT */
IF[ ]	/* If */
PUSHB[ ]	/* 1 value pushed */
3 
MDAP[1]	/* MoveDirectAbsPt */
ELSE[ ]	/* Else */
PUSHB[ ]	/* 2 values pushed */
3 18 
MIAP[0]	/* MoveIndirectAbsPt */
EIF[ ]	/* EndIf */
PUSHB[ ]	/* 1 value pushed */
0 
RCVT[ ]	/* ReadCVT */
IF[ ]	/* If */
PUSHB[ ]	/* 1 value pushed */
6 
MDAP[1]	/* MoveDirectAbsPt */
ELSE[ ]	/* Else */
PUSHB[ ]	/* 2 values pushed */
6 18 
MIAP[0]	/* MoveIndirectAbsPt */
EIF[ ]	/* EndIf */
PUSHB[ ]	/* 3 values pushed */
5 8 3 
SRP1[ ]	/* SetRefPoint1 */
SRP2[ ]	/* SetRefPoint2 */
IP[ ]	/* InterpolatePts */
PUSHB[ ]	/* 3 values pushed */
10 12 3 
SRP1[ ]	/* SetRefPoint1 */
SRP2[ ]	/* SetRefPoint2 */
IP[ ]	/* InterpolatePts */
PUSHB[ ]	/* 1 value pushed */
12 
SRP0[ ]	/* SetRefPoint0 */
PUSHB[ ]	/* 2 values pushed */
18 1 
PUSHB[ ]	/* 1 value pushed */
10 
CALL[ ]	/* CallFunction */
IF[ ]	/* If */
POP[ ]	/* PopTopStack */
MDRP[11000]	/* MoveDirectRelPt */
ELSE[ ]	/* Else */
MIRP[10100]	/* MoveIndirectRelPt */
EIF[ ]	/* EndIf */
PUSHB[ ]	/* 1 value pushed */
3 
SRP0[ ]	/* SetRefPoint0 */
PUSHB[ ]	/* 2 values pushed */
23 1 
PUSHB[ ]	/* 1 value pushed */
10 
CALL[ ]	/* CallFunction */
IF[ ]	/* If */
POP[ ]	/* PopTopStack */
MDRP[11000]	/* MoveDirectRelPt */
ELSE[ ]	/* Else */
MIRP[10100]	/* MoveIndirectRelPt */
EIF[ ]	/* EndIf */
IUP[0]	/* InterpolateUntPts */
IUP[1]	/* InterpolateUntPts */";
};
width = 1149;
}
);
note = uni0062;
rightKerningGroup = b;
unicode = 0062;
},
{
glyphname = c;
layers = (
{
layerId = "A9B054E9-1A63-4AEF-9EE1-561B1DFE8422";
paths = (
{
closed = 1;
nodes = (
"431 131 OFFCURVE",
"277 333 OFFCURVE",
"277 520 QCURVE SMOOTH",
"277 555 LINE SMOOTH",
"277 747 OFFCURVE",
"432 950 OFFCURVE",
"573 950 QCURVE SMOOTH",
"678 950 OFFCURVE",
"821 815 OFFCURVE",
"829 710 QCURVE",
"1004 710 LINE",
"996 884 OFFCURVE",
"755 1102 OFFCURVE",
"573 1102 QCURVE SMOOTH",
"425 1102 OFFCURVE",
"208 966 OFFCURVE",
"92 720 OFFCURVE",
"92 562 QCURVE SMOOTH",
"92 531 LINE SMOOTH",
"92 275 OFFCURVE",
"353 -20 OFFCURVE",
"574 -20 QCURVE SMOOTH",
"684 -20 OFFCURVE",
"881 80 OFFCURVE",
"999 248 OFFCURVE",
"1004 341 QCURVE",
"829 341 LINE",
"821 251 OFFCURVE",
"673 131 OFFCURVE",
"574 131 QCURVE",
"574 131 LINE"
);
}
);
userData = {
assembly = "PUSHB[ ]	/* 3 values pushed */
16 30 31 
SRP1[ ]	/* SetRefPoint1 */
SRP2[ ]	/* SetRefPoint2 */
IP[ ]	/* InterpolatePts */
SVTCA[0]	/* SetFreedomAndProjectionVectorToAxis */
PUSHB[ ]	/* 1 value pushed */
0 
RCVT[ ]	/* ReadCVT */
IF[ ]	/* If */
PUSHB[ ]	/* 1 value pushed */
16 
MDAP[1]	/* MoveDirectAbsPt */
ELSE[ ]	/* Else */
PUSHB[ ]	/* 2 values pushed */
16 26 
MIAP[0]	/* MoveIndirectAbsPt */
EIF[ ]	/* EndIf */
PUSHB[ ]	/* 1 value pushed */
0 
RCVT[ ]	/* ReadCVT */
IF[ ]	/* If */
PUSHB[ ]	/* 1 value pushed */
8 
MDAP[1]	/* MoveDirectAbsPt */
ELSE[ ]	/* Else */
PUSHB[ ]	/* 2 values pushed */
8 18 
MIAP[0]	/* MoveIndirectAbsPt */
EIF[ ]	/* EndIf */
PUSHB[ ]	/* 2 values pushed */
0 1 
PUSHB[ ]	/* 1 value pushed */
10 
CALL[ ]	/* CallFunction */
IF[ ]	/* If */
POP[ ]	/* PopTopStack */
MDRP[11000]	/* MoveDirectRelPt */
ELSE[ ]	/* Else */
MIRP[10100]	/* MoveIndirectRelPt */
EIF[ ]	/* EndIf */
PUSHB[ ]	/* 1 value pushed */
8 
SRP0[ ]	/* SetRefPoint0 */
PUSHB[ ]	/* 1 value pushed */
3 
MDRP[10000]	/* MoveDirectRelPt */
PUSHB[ ]	/* 1 value pushed */
16 
SRP0[ ]	/* SetRefPoint0 */
PUSHB[ ]	/* 1 value pushed */
20 
MDRP[10000]	/* MoveDirectRelPt */
PUSHB[ ]	/* 1 value pushed */
16 
SRP0[ ]	/* SetRefPoint0 */
PUSHB[ ]	/* 2 values pushed */
23 1 
PUSHB[ ]	/* 1 value pushed */
10 
CALL[ ]	/* CallFunction */
IF[ ]	/* If */
POP[ ]	/* PopTopStack */
MDRP[11000]	/* MoveDirectRelPt */
ELSE[ ]	/* Else */
MIRP[10100]	/* MoveIndirectRelPt */
EIF[ ]	/* EndIf */
IUP[0]	/* InterpolateUntPts */
IUP[1]	/* InterpolateUntPts */";
};
width = 1072;
}
);
leftKerningGroup = c;
note = uni0063;
rightKerningGroup = c;
unicode = 0063;
},
{
glyphname = d;
layers = (
{
layerId = "A9B054E9-1A63-4AEF-9EE1-561B1DFE8422";
paths = (
{
closed = 1;
nodes = (
"95 536 LINE SMOOTH",
"95 288 OFFCURVE",
"332 -20 OFFCURVE",
"520 -20 QCURVE SMOOTH",
"718 -20 OFFCURVE",
"829 116 QCURVE",
"838 0 LINE",
"1008 0 LINE",
"1008 1536 LINE",
"823 1536 LINE",
"823 972 LINE",
"712 1102 OFFCURVE",
"522 1102 QCURVE SMOOTH",
"331 1102 OFFCURVE",
"95 799 OFFCURVE",
"95 550 QCURVE",
"95 550 LINE"
);
},
{
closed = 1;
nodes = (
"280 735 OFFCURVE",
"432 945 OFFCURVE",
"568 945 QCURVE SMOOTH",
"740 945 OFFCURVE",
"823 792 QCURVE",
"823 295 LINE",
"742 137 OFFCURVE",
"566 137 QCURVE SMOOTH",
"432 137 OFFCURVE",
"280 345 OFFCURVE",
"280 529 QCURVE",
"280 529 LINE"
);
}
);
userData = {
assembly = "PUSHB[ ]	/* 3 values pushed */
24 27 28 
SRP1[ ]	/* SetRefPoint1 */
SRP2[ ]	/* SetRefPoint2 */
IP[ ]	/* InterpolatePts */
PUSHB[ ]	/* 1 value pushed */
24 
SRP0[ ]	/* SetRefPoint0 */
PUSHB[ ]	/* 1 value pushed */
3 
MDRP[10000]	/* MoveDirectRelPt */
SVTCA[0]	/* SetFreedomAndProjectionVectorToAxis */
PUSHB[ ]	/* 1 value pushed */
6 
MDAP[1]	/* MoveDirectAbsPt */
PUSHB[ ]	/* 1 value pushed */
0 
RCVT[ ]	/* ReadCVT */
IF[ ]	/* If */
PUSHB[ ]	/* 1 value pushed */
3 
MDAP[1]	/* MoveDirectAbsPt */
ELSE[ ]	/* Else */
PUSHB[ ]	/* 2 values pushed */
3 26 
MIAP[0]	/* MoveIndirectAbsPt */
EIF[ ]	/* EndIf */
PUSHB[ ]	/* 1 value pushed */
0 
RCVT[ ]	/* ReadCVT */
IF[ ]	/* If */
PUSHB[ ]	/* 1 value pushed */
12 
MDAP[1]	/* MoveDirectAbsPt */
ELSE[ ]	/* Else */
PUSHB[ ]	/* 2 values pushed */
12 18 
MIAP[0]	/* MoveIndirectAbsPt */
EIF[ ]	/* EndIf */
PUSHB[ ]	/* 1 value pushed */
0 
RCVT[ ]	/* ReadCVT */
IF[ ]	/* If */
PUSHB[ ]	/* 1 value pushed */
8 
MDAP[1]	/* MoveDirectAbsPt */
ELSE[ ]	/* Else */
PUSHB[ ]	/* 2 values pushed */
8 18 
MIAP[0]	/* MoveIndirectAbsPt */
EIF[ ]	/* EndIf */
PUSHB[ ]	/* 3 values pushed */
5 3 12 
SRP1[ ]	/* SetRefPoint1 */
SRP2[ ]	/* SetRefPoint2 */
IP[ ]	/* InterpolatePts */
PUSHB[ ]	/* 3 values pushed */
10 3 12 
SRP1[ ]	/* SetRefPoint1 */
SRP2[ ]	/* SetRefPoint2 */
IP[ ]	/* InterpolatePts */
PUSHB[ ]	/* 1 value pushed */
12 
SRP0[ ]	/* SetRefPoint0 */
PUSHB[ ]	/* 2 values pushed */
19 1 
PUSHB[ ]	/* 1 value pushed */
10 
CALL[ ]	/* CallFunction */
IF[ ]	/* If */
POP[ ]	/* PopTopStack */
MDRP[11000]	/* MoveDirectRelPt */
ELSE[ ]	/* Else */
MIRP[10100]	/* MoveIndirectRelPt */
EIF[ ]	/* EndIf */
PUSHB[ ]	/* 1 value pushed */
3 
SRP0[ ]	/* SetRefPoint0 */
PUSHB[ ]	/* 2 values pushed */
24 1 
PUSHB[ ]	/* 1 value pushed */
10 
CALL[ ]	/* CallFunction */
IF[ ]	/* If */
POP[ ]	/* PopTopStack */
MDRP[11000]	/* MoveDirectRelPt */
ELSE[ ]	/* Else */
MIRP[10100]	/* MoveIndirectRelPt */
EIF[ ]	/* EndIf */
IUP[0]	/* InterpolateUntPts */
IUP[1]	/* InterpolateUntPts */";
};
width = 1155;
}
);
leftKerningGroup = c;
note = uni0064;
unicode = 0064;
},
{
glyphname = e;
layers = (
{
layerId = "A9B054E9-1A63-4AEF-9EE1-561B1DFE8422";
paths = (
{
closed = 1;
nodes = (
"861 -20 OFFCURVE",
"997 189 QCURVE",
"884 277 LINE",
"833 211 OFFCURVE",
"697 131 OFFCURVE",
"599 131 QCURVE SMOOTH",
"461 131 OFFCURVE",
"282 328 OFFCURVE",
"278 488 QCURVE",
"1011 488 LINE",
"1011 565 LINE SMOOTH",
"1011 824 OFFCURVE",
"777 1102 OFFCURVE",
"566 1102 QCURVE SMOOTH",
"437 1102 OFFCURVE",
"216 959 OFFCURVE",
"93 706 OFFCURVE",
"93 545 QCURVE SMOOTH",
"93 511 LINE SMOOTH",
"93 269 OFFCURVE",
"369 -20 OFFCURVE",
"589 -20 QCURVE",
"589 -20 LINE"
);
},
{
closed = 1;
nodes = (
"682 950 OFFCURVE",
"818 795 OFFCURVE",
"826 654 QCURVE SMOOTH",
"826 640 LINE",
"284 640 LINE",
"302 787 OFFCURVE",
"454 950 OFFCURVE",
"566 950 QCURVE",
"566 950 LINE"
);
}
);
userData = {
assembly = "PUSHB[ ]	/* 3 values pushed */
8 30 31 
SRP1[ ]	/* SetRefPoint1 */
SRP2[ ]	/* SetRefPoint2 */
IP[ ]	/* InterpolatePts */
PUSHB[ ]	/* 1 value pushed */
8 
SRP0[ ]	/* SetRefPoint0 */
PUSHB[ ]	/* 1 value pushed */
22 
MDRP[10000]	/* MoveDirectRelPt */
SVTCA[0]	/* SetFreedomAndProjectionVectorToAxis */
PUSHB[ ]	/* 1 value pushed */
0 
RCVT[ ]	/* ReadCVT */
IF[ ]	/* If */
PUSHB[ ]	/* 1 value pushed */
8 
MDAP[1]	/* MoveDirectAbsPt */
ELSE[ ]	/* Else */
PUSHB[ ]	/* 2 values pushed */
8 26 
MIAP[0]	/* MoveIndirectAbsPt */
EIF[ ]	/* EndIf */
PUSHB[ ]	/* 1 value pushed */
0 
RCVT[ ]	/* ReadCVT */
IF[ ]	/* If */
PUSHB[ ]	/* 1 value pushed */
0 
MDAP[1]	/* MoveDirectAbsPt */
ELSE[ ]	/* Else */
PUSHB[ ]	/* 2 values pushed */
0 18 
MIAP[0]	/* MoveIndirectAbsPt */
EIF[ ]	/* EndIf */
PUSHB[ ]	/* 3 values pushed */
26 8 0 
SRP1[ ]	/* SetRefPoint1 */
SRP2[ ]	/* SetRefPoint2 */
IP[ ]	/* InterpolatePts */
PUSHB[ ]	/* 1 value pushed */
26 
MDAP[1]	/* MoveDirectAbsPt */
PUSHB[ ]	/* 5 values pushed */
191 26 207 26 2 
DELTAP1[ ]	/* DeltaExceptionP1 */
PUSHB[ ]	/* 2 values pushed */
12 1 
PUSHB[ ]	/* 1 value pushed */
10 
CALL[ ]	/* CallFunction */
IF[ ]	/* If */
POP[ ]	/* PopTopStack */
MDRP[11000]	/* MoveDirectRelPt */
ELSE[ ]	/* Else */
MIRP[10100]	/* MoveIndirectRelPt */
EIF[ ]	/* EndIf */
PUSHB[ ]	/* 1 value pushed */
0 
SRP0[ ]	/* SetRefPoint0 */
PUSHB[ ]	/* 2 values pushed */
16 1 
PUSHB[ ]	/* 1 value pushed */
10 
CALL[ ]	/* CallFunction */
IF[ ]	/* If */
POP[ ]	/* PopTopStack */
MDRP[11000]	/* MoveDirectRelPt */
ELSE[ ]	/* Else */
MIRP[10100]	/* MoveIndirectRelPt */
EIF[ ]	/* EndIf */
PUSHB[ ]	/* 3 values pushed */
19 8 0 
SRP1[ ]	/* SetRefPoint1 */
SRP2[ ]	/* SetRefPoint2 */
IP[ ]	/* InterpolatePts */
PUSHB[ ]	/* 1 value pushed */
8 
SRP0[ ]	/* SetRefPoint0 */
PUSHB[ ]	/* 2 values pushed */
22 1 
PUSHB[ ]	/* 1 value pushed */
10 
CALL[ ]	/* CallFunction */
IF[ ]	/* If */
POP[ ]	/* PopTopStack */
MDRP[11000]	/* MoveDirectRelPt */
ELSE[ ]	/* Else */
MIRP[10100]	/* MoveIndirectRelPt */
EIF[ ]	/* EndIf */
IUP[0]	/* InterpolateUntPts */
IUP[1]	/* InterpolateUntPts */";
};
width = 1085;
}
);
leftKerningGroup = c;
note = uni0065;
rightKerningGroup = e;
unicode = 0065;
},
{
glyphname = f;
layers = (
{
layerId = "A9B054E9-1A63-4AEF-9EE1-561B1DFE8422";
paths = (
{
closed = 1;
nodes = (
"416 0 LINE",
"416 939 LINE",
"647 939 LINE",
"647 1082 LINE",
"416 1082 LINE",
"416 1196 LINE SMOOTH",
"416 1294 OFFCURVE",
"514 1399 OFFCURVE",
"604 1399 QCURVE SMOOTH",
"657 1399 OFFCURVE",
"704 1390 QCURVE",
"714 1540 LINE",
"651 1557 OFFCURVE",
"587 1557 QCURVE SMOOTH",
"417 1557 OFFCURVE",
"231 1367 OFFCURVE",
"231 1193 QCURVE SMOOTH",
"231 1082 LINE",
"60 1082 LINE",
"60 939 LINE",
"231 939 LINE",
"231 0 LINE",
"231 0 LINE"
);
}
);
userData = {
assembly = "PUSHB[ ]	/* 3 values pushed */
15 22 23 
SRP1[ ]	/* SetRefPoint1 */
SRP2[ ]	/* SetRefPoint2 */
IP[ ]	/* InterpolatePts */
SVTCA[0]	/* SetFreedomAndProjectionVectorToAxis */
PUSHB[ ]	/* 1 value pushed */
0 
RCVT[ ]	/* ReadCVT */
IF[ ]	/* If */
PUSHB[ ]	/* 1 value pushed */
8 
MDAP[1]	/* MoveDirectAbsPt */
ELSE[ ]	/* Else */
PUSHB[ ]	/* 2 values pushed */
8 32 
MIAP[0]	/* MoveIndirectAbsPt */
EIF[ ]	/* EndIf */
PUSHB[ ]	/* 1 value pushed */
0 
RCVT[ ]	/* ReadCVT */
IF[ ]	/* If */
PUSHB[ ]	/* 1 value pushed */
3 
MDAP[1]	/* MoveDirectAbsPt */
ELSE[ ]	/* Else */
PUSHB[ ]	/* 2 values pushed */
3 26 
MIAP[0]	/* MoveIndirectAbsPt */
EIF[ ]	/* EndIf */
PUSHB[ ]	/* 1 value pushed */
0 
RCVT[ ]	/* ReadCVT */
IF[ ]	/* If */
PUSHB[ ]	/* 1 value pushed */
17 
MDAP[1]	/* MoveDirectAbsPt */
ELSE[ ]	/* Else */
PUSHB[ ]	/* 2 values pushed */
17 26 
MIAP[0]	/* MoveIndirectAbsPt */
EIF[ ]	/* EndIf */
PUSHB[ ]	/* 1 value pushed */
0 
RCVT[ ]	/* ReadCVT */
IF[ ]	/* If */
PUSHB[ ]	/* 1 value pushed */
0 
MDAP[1]	/* MoveDirectAbsPt */
ELSE[ ]	/* Else */
PUSHB[ ]	/* 2 values pushed */
0 18 
MIAP[0]	/* MoveIndirectAbsPt */
EIF[ ]	/* EndIf */
PUSHB[ ]	/* 1 value pushed */
3 
SRP0[ ]	/* SetRefPoint0 */
PUSHB[ ]	/* 2 values pushed */
1 1 
PUSHB[ ]	/* 1 value pushed */
10 
CALL[ ]	/* CallFunction */
IF[ ]	/* If */
POP[ ]	/* PopTopStack */
MDRP[11000]	/* MoveDirectRelPt */
ELSE[ ]	/* Else */
MIRP[10100]	/* MoveIndirectRelPt */
EIF[ ]	/* EndIf */
PUSHB[ ]	/* 1 value pushed */
8 
SRP0[ ]	/* SetRefPoint0 */
PUSHB[ ]	/* 2 values pushed */
13 1 
PUSHB[ ]	/* 1 value pushed */
10 
CALL[ ]	/* CallFunction */
IF[ ]	/* If */
POP[ ]	/* PopTopStack */
MDRP[11000]	/* MoveDirectRelPt */
ELSE[ ]	/* Else */
MIRP[10100]	/* MoveIndirectRelPt */
EIF[ ]	/* EndIf */
PUSHB[ ]	/* 1 value pushed */
1 
SRP0[ ]	/* SetRefPoint0 */
PUSHB[ ]	/* 1 value pushed */
19 
MDRP[10000]	/* MoveDirectRelPt */
PUSHB[ ]	/* 1 value pushed */
20 
MDRP[10000]	/* MoveDirectRelPt */
IUP[0]	/* InterpolateUntPts */
IUP[1]	/* InterpolateUntPts */";
};
width = 711;
}
);
note = uni0066;
unicode = 0066;
},
{
glyphname = g;
layers = (
{
layerId = "A9B054E9-1A63-4AEF-9EE1-561B1DFE8422";
paths = (
{
closed = 1;
nodes = (
"96 286 OFFCURVE",
"331 -20 OFFCURVE",
"521 -20 QCURVE SMOOTH",
"713 -20 OFFCURVE",
"824 108 QCURVE",
"824 15 LINE SMOOTH",
"824 -123 OFFCURVE",
"673 -275 OFFCURVE",
"538 -275 QCURVE SMOOTH",
"366 -275 OFFCURVE",
"247 -128 QCURVE",
"151 -239 LINE",
"210 -326 OFFCURVE",
"434 -426 OFFCURVE",
"551 -426 QCURVE SMOOTH",
"761 -426 OFFCURVE",
"1010 -184 OFFCURVE",
"1010 26 QCURVE SMOOTH",
"1010 1082 LINE",
"841 1082 LINE",
"832 962 LINE",
"721 1102 OFFCURVE",
"523 1102 QCURVE SMOOTH",
"330 1102 OFFCURVE",
"96 803 OFFCURVE",
"96 550 QCURVE",
"96 550 LINE"
);
},
{
closed = 1;
nodes = (
"282 735 OFFCURVE",
"434 945 OFFCURVE",
"569 945 QCURVE SMOOTH",
"739 945 OFFCURVE",
"824 790 QCURVE",
"824 296 LINE",
"742 137 OFFCURVE",
"567 137 QCURVE SMOOTH",
"432 137 OFFCURVE",
"282 346 OFFCURVE",
"282 529 QCURVE",
"282 529 LINE"
);
}
);
userData = {
assembly = "PUSHB[ ]	/* 3 values pushed */
34 37 38 
SRP1[ ]	/* SetRefPoint1 */
SRP2[ ]	/* SetRefPoint2 */
IP[ ]	/* InterpolatePts */
PUSHB[ ]	/* 1 value pushed */
34 
SRP0[ ]	/* SetRefPoint0 */
PUSHB[ ]	/* 1 value pushed */
11 
MDRP[10000]	/* MoveDirectRelPt */
SVTCA[0]	/* SetFreedomAndProjectionVectorToAxis */
PUSHB[ ]	/* 1 value pushed */
0 
RCVT[ ]	/* ReadCVT */
IF[ ]	/* If */
PUSHB[ ]	/* 1 value pushed */
3 
MDAP[1]	/* MoveDirectAbsPt */
ELSE[ ]	/* Else */
PUSHB[ ]	/* 2 values pushed */
3 26 
MIAP[0]	/* MoveIndirectAbsPt */
EIF[ ]	/* EndIf */
PUSHB[ ]	/* 1 value pushed */
0 
RCVT[ ]	/* ReadCVT */
IF[ ]	/* If */
PUSHB[ ]	/* 1 value pushed */
6 
MDAP[1]	/* MoveDirectAbsPt */
ELSE[ ]	/* Else */
PUSHB[ ]	/* 2 values pushed */
6 26 
MIAP[0]	/* MoveIndirectAbsPt */
EIF[ ]	/* EndIf */
PUSHB[ ]	/* 1 value pushed */
0 
RCVT[ ]	/* ReadCVT */
IF[ ]	/* If */
PUSHB[ ]	/* 1 value pushed */
11 
MDAP[1]	/* MoveDirectAbsPt */
ELSE[ ]	/* Else */
PUSHB[ ]	/* 2 values pushed */
11 20 
MIAP[0]	/* MoveIndirectAbsPt */
EIF[ ]	/* EndIf */
PUSHB[ ]	/* 1 value pushed */
0 
RCVT[ ]	/* ReadCVT */
IF[ ]	/* If */
PUSHB[ ]	/* 1 value pushed */
23 
MDAP[1]	/* MoveDirectAbsPt */
ELSE[ ]	/* Else */
PUSHB[ ]	/* 2 values pushed */
23 18 
MIAP[0]	/* MoveIndirectAbsPt */
EIF[ ]	/* EndIf */
PUSHB[ ]	/* 3 values pushed */
5 3 23 
SRP1[ ]	/* SetRefPoint1 */
SRP2[ ]	/* SetRefPoint2 */
IP[ ]	/* InterpolatePts */
PUSHB[ ]	/* 3 values pushed */
15 23 11 
SRP1[ ]	/* SetRefPoint1 */
SRP2[ ]	/* SetRefPoint2 */
IP[ ]	/* InterpolatePts */
PUSHB[ ]	/* 1 value pushed */
11 
SRP0[ ]	/* SetRefPoint0 */
PUSHB[ ]	/* 2 values pushed */
17 1 
PUSHB[ ]	/* 1 value pushed */
10 
CALL[ ]	/* CallFunction */
IF[ ]	/* If */
POP[ ]	/* PopTopStack */
MDRP[11000]	/* MoveDirectRelPt */
ELSE[ ]	/* Else */
MIRP[10100]	/* MoveIndirectRelPt */
EIF[ ]	/* EndIf */
PUSHB[ ]	/* 3 values pushed */
21 3 23 
SRP1[ ]	/* SetRefPoint1 */
SRP2[ ]	/* SetRefPoint2 */
IP[ ]	/* InterpolatePts */
PUSHB[ ]	/* 1 value pushed */
23 
SRP0[ ]	/* SetRefPoint0 */
PUSHB[ ]	/* 2 values pushed */
29 1 
PUSHB[ ]	/* 1 value pushed */
10 
CALL[ ]	/* CallFunction */
IF[ ]	/* If */
POP[ ]	/* PopTopStack */
MDRP[11000]	/* MoveDirectRelPt */
ELSE[ ]	/* Else */
MIRP[10100]	/* MoveIndirectRelPt */
EIF[ ]	/* EndIf */
PUSHB[ ]	/* 1 value pushed */
3 
SRP0[ ]	/* SetRefPoint0 */
PUSHB[ ]	/* 2 values pushed */
34 1 
PUSHB[ ]	/* 1 value pushed */
10 
CALL[ ]	/* CallFunction */
IF[ ]	/* If */
POP[ ]	/* PopTopStack */
MDRP[11000]	/* MoveDirectRelPt */
ELSE[ ]	/* Else */
MIRP[10100]	/* MoveIndirectRelPt */
EIF[ ]	/* EndIf */
IUP[0]	/* InterpolateUntPts */
IUP[1]	/* InterpolateUntPts */";
};
width = 1149;
}
);
leftKerningGroup = c;
note = uni0067;
unicode = 0067;
},
{
glyphname = h;
layers = (
{
layerId = "A9B054E9-1A63-4AEF-9EE1-561B1DFE8422";
paths = (
{
closed = 1;
nodes = (
"325 1536 LINE",
"140 1536 LINE",
"140 0 LINE",
"325 0 LINE",
"325 771 LINE",
"363 849 OFFCURVE",
"499 945 OFFCURVE",
"589 945 QCURVE SMOOTH",
"700 945 OFFCURVE",
"805 833 OFFCURVE",
"806 716 QCURVE SMOOTH",
"806 0 LINE",
"991 0 LINE",
"991 715 LINE SMOOTH",
"988 1102 OFFCURVE",
"645 1102 QCURVE SMOOTH",
"448 1102 OFFCURVE",
"325 951 QCURVE",
"325 951 LINE"
);
}
);
userData = {
assembly = "PUSHB[ ]	/* 3 values pushed */
10 18 19 
SRP1[ ]	/* SetRefPoint1 */
SRP2[ ]	/* SetRefPoint2 */
IP[ ]	/* InterpolatePts */
SVTCA[0]	/* SetFreedomAndProjectionVectorToAxis */
PUSHB[ ]	/* 1 value pushed */
16 
MDAP[1]	/* MoveDirectAbsPt */
PUSHB[ ]	/* 1 value pushed */
0 
RCVT[ ]	/* ReadCVT */
IF[ ]	/* If */
PUSHB[ ]	/* 1 value pushed */
2 
MDAP[1]	/* MoveDirectAbsPt */
ELSE[ ]	/* Else */
PUSHB[ ]	/* 2 values pushed */
2 26 
MIAP[0]	/* MoveIndirectAbsPt */
EIF[ ]	/* EndIf */
PUSHB[ ]	/* 1 value pushed */
0 
RCVT[ ]	/* ReadCVT */
IF[ ]	/* If */
PUSHB[ ]	/* 1 value pushed */
5 
MDAP[1]	/* MoveDirectAbsPt */
ELSE[ ]	/* Else */
PUSHB[ ]	/* 2 values pushed */
5 18 
MIAP[0]	/* MoveIndirectAbsPt */
EIF[ ]	/* EndIf */
PUSHB[ ]	/* 1 value pushed */
0 
RCVT[ ]	/* ReadCVT */
IF[ ]	/* If */
PUSHB[ ]	/* 1 value pushed */
14 
MDAP[1]	/* MoveDirectAbsPt */
ELSE[ ]	/* Else */
PUSHB[ ]	/* 2 values pushed */
14 18 
MIAP[0]	/* MoveIndirectAbsPt */
EIF[ ]	/* EndIf */
PUSHB[ ]	/* 3 values pushed */
0 2 5 
SRP1[ ]	/* SetRefPoint1 */
SRP2[ ]	/* SetRefPoint2 */
IP[ ]	/* InterpolatePts */
PUSHB[ ]	/* 1 value pushed */
2 
SRP0[ ]	/* SetRefPoint0 */
PUSHB[ ]	/* 2 values pushed */
10 1 
PUSHB[ ]	/* 1 value pushed */
10 
CALL[ ]	/* CallFunction */
IF[ ]	/* If */
POP[ ]	/* PopTopStack */
MDRP[11000]	/* MoveDirectRelPt */
ELSE[ ]	/* Else */
MIRP[10100]	/* MoveIndirectRelPt */
EIF[ ]	/* EndIf */
IUP[0]	/* InterpolateUntPts */
IUP[1]	/* InterpolateUntPts */";
};
width = 1128;
}
);
note = uni0068;
rightKerningGroup = h;
unicode = 0068;
},
{
glyphname = i;
layers = (
{
layerId = "A9B054E9-1A63-4AEF-9EE1-561B1DFE8422";
paths = (
{
closed = 1;
nodes = (
"341 1082 LINE",
"156 1082 LINE",
"156 0 LINE",
"341 0 LINE",
"341 0 LINE"
);
},
{
closed = 1;
nodes = (
"141 1324 OFFCURVE",
"196 1264 OFFCURVE",
"304 1264 OFFCURVE",
"360 1324 OFFCURVE",
"360 1414 OFFCURVE",
"304 1476 OFFCURVE",
"196 1476 OFFCURVE",
"141 1414 OFFCURVE",
"141 1369 QCURVE",
"141 1369 LINE"
);
}
);
userData = {
assembly = "PUSHB[ ]	/* 3 values pushed */
6 13 14 
SRP1[ ]	/* SetRefPoint1 */
SRP2[ ]	/* SetRefPoint2 */
IP[ ]	/* InterpolatePts */
PUSHB[ ]	/* 1 value pushed */
6 
SRP0[ ]	/* SetRefPoint0 */
PUSHB[ ]	/* 1 value pushed */
1 
MDRP[10000]	/* MoveDirectRelPt */
SVTCA[0]	/* SetFreedomAndProjectionVectorToAxis */
PUSHB[ ]	/* 1 value pushed */
0 
RCVT[ ]	/* ReadCVT */
IF[ ]	/* If */
PUSHB[ ]	/* 1 value pushed */
2 
MDAP[1]	/* MoveDirectAbsPt */
ELSE[ ]	/* Else */
PUSHB[ ]	/* 2 values pushed */
2 26 
MIAP[0]	/* MoveIndirectAbsPt */
EIF[ ]	/* EndIf */
PUSHB[ ]	/* 1 value pushed */
0 
RCVT[ ]	/* ReadCVT */
IF[ ]	/* If */
PUSHB[ ]	/* 1 value pushed */
0 
MDAP[1]	/* MoveDirectAbsPt */
ELSE[ ]	/* Else */
PUSHB[ ]	/* 2 values pushed */
0 18 
MIAP[0]	/* MoveIndirectAbsPt */
EIF[ ]	/* EndIf */
PUSHB[ ]	/* 1 value pushed */
2 
SRP0[ ]	/* SetRefPoint0 */
PUSHB[ ]	/* 1 value pushed */
10 
MDRP[10000]	/* MoveDirectRelPt */
PUSHB[ ]	/* 1 value pushed */
10 
MDAP[1]	/* MoveDirectAbsPt */
PUSHB[ ]	/* 2 values pushed */
6 5 
PUSHB[ ]	/* 1 value pushed */
10 
CALL[ ]	/* CallFunction */
IF[ ]	/* If */
POP[ ]	/* PopTopStack */
MDRP[11000]	/* MoveDirectRelPt */
ELSE[ ]	/* Else */
MIRP[10100]	/* MoveIndirectRelPt */
EIF[ ]	/* EndIf */
IUP[0]	/* InterpolateUntPts */
IUP[1]	/* InterpolateUntPts */";
};
width = 497;
}
);
note = uni0069;
unicode = 0069;
},
{
glyphname = j;
layers = (
{
layerId = "A9B054E9-1A63-4AEF-9EE1-561B1DFE8422";
paths = (
{
closed = 1;
nodes = (
"146 1082 LINE",
"146 -129 LINE SMOOTH",
"146 -212 OFFCURVE",
"81 -279 OFFCURVE",
"19 -279 QCURVE SMOOTH",
"-33 -279 OFFCURVE",
"-65 -271 QCURVE",
"-65 -419 LINE",
"-13 -437 OFFCURVE",
"48 -437 QCURVE SMOOTH",
"331 -437 OFFCURVE",
"331 -125 QCURVE SMOOTH",
"331 1082 LINE",
"331 1082 LINE"
);
},
{
closed = 1;
nodes = (
"127 1324 OFFCURVE",
"181 1264 OFFCURVE",
"289 1264 OFFCURVE",
"345 1324 OFFCURVE",
"345 1414 OFFCURVE",
"289 1476 OFFCURVE",
"235 1476 QCURVE SMOOTH",
"182 1476 OFFCURVE",
"127 1413 OFFCURVE",
"127 1369 QCURVE",
"127 1369 LINE"
);
}
);
userData = {
assembly = "PUSHB[ ]	/* 3 values pushed */
16 23 24 
SRP1[ ]	/* SetRefPoint1 */
SRP2[ ]	/* SetRefPoint2 */
IP[ ]	/* InterpolatePts */
PUSHB[ ]	/* 1 value pushed */
16 
SRP0[ ]	/* SetRefPoint0 */
PUSHB[ ]	/* 1 value pushed */
0 
MDRP[10000]	/* MoveDirectRelPt */
SVTCA[0]	/* SetFreedomAndProjectionVectorToAxis */
PUSHB[ ]	/* 1 value pushed */
0 
RCVT[ ]	/* ReadCVT */
IF[ ]	/* If */
PUSHB[ ]	/* 1 value pushed */
12 
MDAP[1]	/* MoveDirectAbsPt */
ELSE[ ]	/* Else */
PUSHB[ ]	/* 2 values pushed */
12 26 
MIAP[0]	/* MoveIndirectAbsPt */
EIF[ ]	/* EndIf */
PUSHB[ ]	/* 1 value pushed */
0 
RCVT[ ]	/* ReadCVT */
IF[ ]	/* If */
PUSHB[ ]	/* 1 value pushed */
3 
MDAP[1]	/* MoveDirectAbsPt */
ELSE[ ]	/* Else */
PUSHB[ ]	/* 2 values pushed */
3 20 
MIAP[0]	/* MoveIndirectAbsPt */
EIF[ ]	/* EndIf */
PUSHB[ ]	/* 2 values pushed */
8 1 
PUSHB[ ]	/* 1 value pushed */
10 
CALL[ ]	/* CallFunction */
IF[ ]	/* If */
POP[ ]	/* PopTopStack */
MDRP[11000]	/* MoveDirectRelPt */
ELSE[ ]	/* Else */
MIRP[10100]	/* MoveIndirectRelPt */
EIF[ ]	/* EndIf */
PUSHB[ ]	/* 1 value pushed */
12 
SRP0[ ]	/* SetRefPoint0 */
PUSHB[ ]	/* 1 value pushed */
21 
MDRP[10000]	/* MoveDirectRelPt */
PUSHB[ ]	/* 1 value pushed */
21 
MDAP[1]	/* MoveDirectAbsPt */
PUSHB[ ]	/* 2 values pushed */
16 5 
PUSHB[ ]	/* 1 value pushed */
10 
CALL[ ]	/* CallFunction */
IF[ ]	/* If */
POP[ ]	/* PopTopStack */
MDRP[11000]	/* MoveDirectRelPt */
ELSE[ ]	/* Else */
MIRP[10100]	/* MoveIndirectRelPt */
EIF[ ]	/* EndIf */
IUP[0]	/* InterpolateUntPts */
IUP[1]	/* InterpolateUntPts */";
};
width = 489;
}
);
note = uni006A;
unicode = 006A;
},
{
glyphname = k;
layers = (
{
layerId = "A9B054E9-1A63-4AEF-9EE1-561B1DFE8422";
paths = (
{
closed = 1;
nodes = (
"819 0 LINE",
"1036 0 LINE",
"566 630 LINE",
"987 1082 LINE",
"762 1082 LINE",
"425 726 LINE",
"326 607 LINE",
"326 1536 LINE",
"141 1536 LINE",
"141 0 LINE",
"326 0 LINE",
"326 380 LINE",
"442 501 LINE",
"442 501 LINE"
);
}
);
userData = {
assembly = "SVTCA[0]	/* SetFreedomAndProjectionVectorToAxis */
PUSHB[ ]	/* 1 value pushed */
0 
RCVT[ ]	/* ReadCVT */
IF[ ]	/* If */
PUSHB[ ]	/* 1 value pushed */
4 
MDAP[1]	/* MoveDirectAbsPt */
ELSE[ ]	/* Else */
PUSHB[ ]	/* 2 values pushed */
4 32 
MIAP[0]	/* MoveIndirectAbsPt */
EIF[ ]	/* EndIf */
PUSHB[ ]	/* 1 value pushed */
0 
RCVT[ ]	/* ReadCVT */
IF[ ]	/* If */
PUSHB[ ]	/* 1 value pushed */
8 
MDAP[1]	/* MoveDirectAbsPt */
ELSE[ ]	/* Else */
PUSHB[ ]	/* 2 values pushed */
8 26 
MIAP[0]	/* MoveIndirectAbsPt */
EIF[ ]	/* EndIf */
PUSHB[ ]	/* 1 value pushed */
0 
RCVT[ ]	/* ReadCVT */
IF[ ]	/* If */
PUSHB[ ]	/* 1 value pushed */
2 
MDAP[1]	/* MoveDirectAbsPt */
ELSE[ ]	/* Else */
PUSHB[ ]	/* 2 values pushed */
2 18 
MIAP[0]	/* MoveIndirectAbsPt */
EIF[ ]	/* EndIf */
PUSHB[ ]	/* 1 value pushed */
0 
RCVT[ ]	/* ReadCVT */
IF[ ]	/* If */
PUSHB[ ]	/* 1 value pushed */
11 
MDAP[1]	/* MoveDirectAbsPt */
ELSE[ ]	/* Else */
PUSHB[ ]	/* 2 values pushed */
11 18 
MIAP[0]	/* MoveIndirectAbsPt */
EIF[ ]	/* EndIf */
PUSHB[ ]	/* 3 values pushed */
0 8 2 
SRP1[ ]	/* SetRefPoint1 */
SRP2[ ]	/* SetRefPoint2 */
IP[ ]	/* InterpolatePts */
NPUSHB[ ]	/* 21 values pushed */
58 0 74 0 90 0 106 0 122 0 138 0 154 0 170 0 186 0 202 0 10 
DELTAP1[ ]	/* DeltaExceptionP1 */
PUSHB[ ]	/* 3 values pushed */
6 8 2 
SRP1[ ]	/* SetRefPoint1 */
SRP2[ ]	/* SetRefPoint2 */
IP[ ]	/* InterpolatePts */
NPUSHB[ ]	/* 21 values pushed */
54 6 70 6 86 6 102 6 118 6 134 6 150 6 166 6 182 6 198 6 10 
DELTAP1[ ]	/* DeltaExceptionP1 */
IUP[0]	/* InterpolateUntPts */
IUP[1]	/* InterpolateUntPts */";
};
width = 1038;
}
);
note = uni006B;
unicode = 006B;
},
{
glyphname = l;
layers = (
{
layerId = "A9B054E9-1A63-4AEF-9EE1-561B1DFE8422";
paths = (
{
closed = 1;
nodes = (
"341 1536 LINE",
"156 1536 LINE",
"156 0 LINE",
"341 0 LINE",
"341 0 LINE"
);
}
);
userData = {
assembly = "SVTCA[0]	/* SetFreedomAndProjectionVectorToAxis */
PUSHB[ ]	/* 1 value pushed */
0 
RCVT[ ]	/* ReadCVT */
IF[ ]	/* If */
PUSHB[ ]	/* 1 value pushed */
2 
MDAP[1]	/* MoveDirectAbsPt */
ELSE[ ]	/* Else */
PUSHB[ ]	/* 2 values pushed */
2 32 
MIAP[0]	/* MoveIndirectAbsPt */
EIF[ ]	/* EndIf */
PUSHB[ ]	/* 1 value pushed */
0 
RCVT[ ]	/* ReadCVT */
IF[ ]	/* If */
PUSHB[ ]	/* 1 value pushed */
0 
MDAP[1]	/* MoveDirectAbsPt */
ELSE[ ]	/* Else */
PUSHB[ ]	/* 2 values pushed */
0 18 
MIAP[0]	/* MoveIndirectAbsPt */
EIF[ ]	/* EndIf */
IUP[0]	/* InterpolateUntPts */
IUP[1]	/* InterpolateUntPts */";
};
width = 497;
}
);
note = uni006C;
unicode = 006C;
},
{
glyphname = m;
layers = (
{
layerId = "A9B054E9-1A63-4AEF-9EE1-561B1DFE8422";
paths = (
{
closed = 1;
nodes = (
"139 1082 LINE",
"139 0 LINE",
"324 0 LINE",
"324 790 LINE",
"391 945 OFFCURVE",
"573 945 QCURVE SMOOTH",
"804 945 OFFCURVE",
"804 709 QCURVE SMOOTH",
"804 0 LINE",
"990 0 LINE",
"990 718 LINE",
"1001 822 OFFCURVE",
"1137 945 OFFCURVE",
"1240 945 QCURVE SMOOTH",
"1365 945 OFFCURVE",
"1471 830 OFFCURVE",
"1471 714 QCURVE SMOOTH",
"1471 0 LINE",
"1656 0 LINE",
"1656 725 LINE SMOOTH",
"1650 1102 OFFCURVE",
"1294 1102 QCURVE SMOOTH",
"1176 1102 OFFCURVE",
"1003 1006 OFFCURVE",
"949 928 QCURVE",
"867 1102 OFFCURVE",
"640 1102 QCURVE SMOOTH",
"438 1102 OFFCURVE",
"319 962 QCURVE",
"314 1082 LINE",
"314 1082 LINE"
);
}
);
userData = {
assembly = "PUSHB[ ]	/* 3 values pushed */
4 30 31 
SRP1[ ]	/* SetRefPoint1 */
SRP2[ ]	/* SetRefPoint2 */
IP[ ]	/* InterpolatePts */
SVTCA[0]	/* SetFreedomAndProjectionVectorToAxis */
PUSHB[ ]	/* 1 value pushed */
0 
RCVT[ ]	/* ReadCVT */
IF[ ]	/* If */
PUSHB[ ]	/* 1 value pushed */
3 
MDAP[1]	/* MoveDirectAbsPt */
ELSE[ ]	/* Else */
PUSHB[ ]	/* 2 values pushed */
3 26 
MIAP[0]	/* MoveIndirectAbsPt */
EIF[ ]	/* EndIf */
PUSHB[ ]	/* 1 value pushed */
0 
RCVT[ ]	/* ReadCVT */
IF[ ]	/* If */
PUSHB[ ]	/* 1 value pushed */
8 
MDAP[1]	/* MoveDirectAbsPt */
ELSE[ ]	/* Else */
PUSHB[ ]	/* 2 values pushed */
8 26 
MIAP[0]	/* MoveIndirectAbsPt */
EIF[ ]	/* EndIf */
PUSHB[ ]	/* 1 value pushed */
0 
RCVT[ ]	/* ReadCVT */
IF[ ]	/* If */
PUSHB[ ]	/* 1 value pushed */
0 
MDAP[1]	/* MoveDirectAbsPt */
ELSE[ ]	/* Else */
PUSHB[ ]	/* 2 values pushed */
0 26 
MIAP[0]	/* MoveIndirectAbsPt */
EIF[ ]	/* EndIf */
PUSHB[ ]	/* 1 value pushed */
0 
RCVT[ ]	/* ReadCVT */
IF[ ]	/* If */
PUSHB[ ]	/* 1 value pushed */
11 
MDAP[1]	/* MoveDirectAbsPt */
ELSE[ ]	/* Else */
PUSHB[ ]	/* 2 values pushed */
11 18 
MIAP[0]	/* MoveIndirectAbsPt */
EIF[ ]	/* EndIf */
PUSHB[ ]	/* 1 value pushed */
0 
RCVT[ ]	/* ReadCVT */
IF[ ]	/* If */
PUSHB[ ]	/* 1 value pushed */
20 
MDAP[1]	/* MoveDirectAbsPt */
ELSE[ ]	/* Else */
PUSHB[ ]	/* 2 values pushed */
20 18 
MIAP[0]	/* MoveIndirectAbsPt */
EIF[ ]	/* EndIf */
PUSHB[ ]	/* 1 value pushed */
0 
RCVT[ ]	/* ReadCVT */
IF[ ]	/* If */
PUSHB[ ]	/* 1 value pushed */
27 
MDAP[1]	/* MoveDirectAbsPt */
ELSE[ ]	/* Else */
PUSHB[ ]	/* 2 values pushed */
27 18 
MIAP[0]	/* MoveIndirectAbsPt */
EIF[ ]	/* EndIf */
PUSHB[ ]	/* 3 values pushed */
1 8 11 
SRP1[ ]	/* SetRefPoint1 */
SRP2[ ]	/* SetRefPoint2 */
IP[ ]	/* InterpolatePts */
PUSHB[ ]	/* 3 values pushed */
5 8 11 
SRP1[ ]	/* SetRefPoint1 */
SRP2[ ]	/* SetRefPoint2 */
IP[ ]	/* InterpolatePts */
PUSHB[ ]	/* 1 value pushed */
8 
SRP0[ ]	/* SetRefPoint0 */
PUSHB[ ]	/* 2 values pushed */
16 1 
PUSHB[ ]	/* 1 value pushed */
10 
CALL[ ]	/* CallFunction */
IF[ ]	/* If */
POP[ ]	/* PopTopStack */
MDRP[11000]	/* MoveDirectRelPt */
ELSE[ ]	/* Else */
MIRP[10100]	/* MoveIndirectRelPt */
EIF[ ]	/* EndIf */
PUSHB[ ]	/* 1 value pushed */
24 
MDRP[10000]	/* MoveDirectRelPt */
IUP[0]	/* InterpolateUntPts */
IUP[1]	/* InterpolateUntPts */";
};
width = 1795;
}
);
leftKerningGroup = m;
note = uni006D;
rightKerningGroup = h;
unicode = 006D;
},
{
glyphname = n;
layers = (
{
layerId = "A9B054E9-1A63-4AEF-9EE1-561B1DFE8422";
paths = (
{
closed = 1;
nodes = (
"140 1082 LINE",
"140 0 LINE",
"325 0 LINE",
"325 771 LINE",
"363 849 OFFCURVE",
"499 945 OFFCURVE",
"589 945 QCURVE SMOOTH",
"700 945 OFFCURVE",
"805 833 OFFCURVE",
"806 716 QCURVE SMOOTH",
"806 0 LINE",
"991 0 LINE",
"991 715 LINE SMOOTH",
"988 1102 OFFCURVE",
"645 1102 QCURVE SMOOTH",
"445 1102 OFFCURVE",
"321 946 QCURVE",
"315 1082 LINE",
"315 1082 LINE"
);
}
);
userData = {
assembly = "PUSHB[ ]	/* 3 values pushed */
11 18 19 
SRP1[ ]	/* SetRefPoint1 */
SRP2[ ]	/* SetRefPoint2 */
IP[ ]	/* InterpolatePts */
SVTCA[0]	/* SetFreedomAndProjectionVectorToAxis */
PUSHB[ ]	/* 1 value pushed */
0 
RCVT[ ]	/* ReadCVT */
IF[ ]	/* If */
PUSHB[ ]	/* 1 value pushed */
3 
MDAP[1]	/* MoveDirectAbsPt */
ELSE[ ]	/* Else */
PUSHB[ ]	/* 2 values pushed */
3 26 
MIAP[0]	/* MoveIndirectAbsPt */
EIF[ ]	/* EndIf */
PUSHB[ ]	/* 1 value pushed */
0 
RCVT[ ]	/* ReadCVT */
IF[ ]	/* If */
PUSHB[ ]	/* 1 value pushed */
0 
MDAP[1]	/* MoveDirectAbsPt */
ELSE[ ]	/* Else */
PUSHB[ ]	/* 2 values pushed */
0 26 
MIAP[0]	/* MoveIndirectAbsPt */
EIF[ ]	/* EndIf */
PUSHB[ ]	/* 1 value pushed */
0 
RCVT[ ]	/* ReadCVT */
IF[ ]	/* If */
PUSHB[ ]	/* 1 value pushed */
6 
MDAP[1]	/* MoveDirectAbsPt */
ELSE[ ]	/* Else */
PUSHB[ ]	/* 2 values pushed */
6 18 
MIAP[0]	/* MoveIndirectAbsPt */
EIF[ ]	/* EndIf */
PUSHB[ ]	/* 1 value pushed */
0 
RCVT[ ]	/* ReadCVT */
IF[ ]	/* If */
PUSHB[ ]	/* 1 value pushed */
15 
MDAP[1]	/* MoveDirectAbsPt */
ELSE[ ]	/* Else */
PUSHB[ ]	/* 2 values pushed */
15 18 
MIAP[0]	/* MoveIndirectAbsPt */
EIF[ ]	/* EndIf */
PUSHB[ ]	/* 3 values pushed */
1 3 6 
SRP1[ ]	/* SetRefPoint1 */
SRP2[ ]	/* SetRefPoint2 */
IP[ ]	/* InterpolatePts */
PUSHB[ ]	/* 1 value pushed */
3 
SRP0[ ]	/* SetRefPoint0 */
PUSHB[ ]	/* 2 values pushed */
11 1 
PUSHB[ ]	/* 1 value pushed */
10 
CALL[ ]	/* CallFunction */
IF[ ]	/* If */
POP[ ]	/* PopTopStack */
MDRP[11000]	/* MoveDirectRelPt */
ELSE[ ]	/* Else */
MIRP[10100]	/* MoveIndirectRelPt */
EIF[ ]	/* EndIf */
IUP[0]	/* InterpolateUntPts */
IUP[1]	/* InterpolateUntPts */";
};
width = 1130;
}
);
leftKerningGroup = m;
note = uni006E;
rightKerningGroup = h;
unicode = 006E;
},
{
glyphname = o;
layers = (
{
layerId = "A9B054E9-1A63-4AEF-9EE1-561B1DFE8422";
paths = (
{
closed = 1;
nodes = (
"91 538 LINE SMOOTH",
"91 286 OFFCURVE",
"364 -20 OFFCURVE",
"584 -20 QCURVE SMOOTH",
"730 -20 OFFCURVE",
"955 120 OFFCURVE",
"1076 371 OFFCURVE",
"1076 529 QCURVE SMOOTH",
"1076 542 LINE SMOOTH",
"1076 796 OFFCURVE",
"803 1102 OFFCURVE",
"582 1102 QCURVE SMOOTH",
"439 1102 OFFCURVE",
"216 964 OFFCURVE",
"91 710 OFFCURVE",
"91 551 QCURVE",
"91 551 LINE"
);
},
{
closed = 1;
nodes = (
"277 732 OFFCURVE",
"445 950 OFFCURVE",
"582 950 QCURVE SMOOTH",
"722 950 OFFCURVE",
"891 729 OFFCURVE",
"891 551 QCURVE SMOOTH",
"891 352 OFFCURVE",
"725 131 OFFCURVE",
"584 131 QCURVE SMOOTH",
"444 131 OFFCURVE",
"277 349 OFFCURVE",
"277 529 QCURVE",
"277 529 LINE"
);
}
);
userData = {
assembly = "PUSHB[ ]	/* 3 values pushed */
12 28 29 
SRP1[ ]	/* SetRefPoint1 */
SRP2[ ]	/* SetRefPoint2 */
IP[ ]	/* InterpolatePts */
PUSHB[ ]	/* 1 value pushed */
12 
SRP0[ ]	/* SetRefPoint0 */
PUSHB[ ]	/* 1 value pushed */
19 
MDRP[10000]	/* MoveDirectRelPt */
SVTCA[0]	/* SetFreedomAndProjectionVectorToAxis */
PUSHB[ ]	/* 1 value pushed */
0 
RCVT[ ]	/* ReadCVT */
IF[ ]	/* If */
PUSHB[ ]	/* 1 value pushed */
4 
MDAP[1]	/* MoveDirectAbsPt */
ELSE[ ]	/* Else */
PUSHB[ ]	/* 2 values pushed */
4 26 
MIAP[0]	/* MoveIndirectAbsPt */
EIF[ ]	/* EndIf */
PUSHB[ ]	/* 1 value pushed */
0 
RCVT[ ]	/* ReadCVT */
IF[ ]	/* If */
PUSHB[ ]	/* 1 value pushed */
12 
MDAP[1]	/* MoveDirectAbsPt */
ELSE[ ]	/* Else */
PUSHB[ ]	/* 2 values pushed */
12 18 
MIAP[0]	/* MoveIndirectAbsPt */
EIF[ ]	/* EndIf */
PUSHB[ ]	/* 2 values pushed */
19 1 
PUSHB[ ]	/* 1 value pushed */
10 
CALL[ ]	/* CallFunction */
IF[ ]	/* If */
POP[ ]	/* PopTopStack */
MDRP[11000]	/* MoveDirectRelPt */
ELSE[ ]	/* Else */
MIRP[10100]	/* MoveIndirectRelPt */
EIF[ ]	/* EndIf */
PUSHB[ ]	/* 1 value pushed */
4 
SRP0[ ]	/* SetRefPoint0 */
PUSHB[ ]	/* 2 values pushed */
25 1 
PUSHB[ ]	/* 1 value pushed */
10 
CALL[ ]	/* CallFunction */
IF[ ]	/* If */
POP[ ]	/* PopTopStack */
MDRP[11000]	/* MoveDirectRelPt */
ELSE[ ]	/* Else */
MIRP[10100]	/* MoveIndirectRelPt */
EIF[ ]	/* EndIf */
IUP[0]	/* InterpolateUntPts */
IUP[1]	/* InterpolateUntPts */";
};
width = 1168;
}
);
leftKerningGroup = o;
note = uni006F;
rightKerningGroup = o;
unicode = 006F;
},
{
glyphname = p;
layers = (
{
layerId = "A9B054E9-1A63-4AEF-9EE1-561B1DFE8422";
paths = (
{
closed = 1;
nodes = (
"1054 546 LINE SMOOTH",
"1054 808 OFFCURVE",
"827 1102 OFFCURVE",
"632 1102 QCURVE SMOOTH",
"431 1102 OFFCURVE",
"318 962 QCURVE",
"309 1082 LINE",
"140 1082 LINE",
"140 -416 LINE",
"325 -416 LINE",
"325 105 LINE",
"438 -20 OFFCURVE",
"635 -20 QCURVE SMOOTH",
"828 -20 OFFCURVE",
"1054 282 OFFCURVE",
"1054 529 QCURVE",
"1054 529 LINE"
);
},
{
closed = 1;
nodes = (
"869 342 OFFCURVE",
"712 131 OFFCURVE",
"579 131 QCURVE SMOOTH",
"408 131 OFFCURVE",
"325 279 QCURVE",
"325 796 LINE",
"409 945 OFFCURVE",
"577 945 QCURVE SMOOTH",
"713 945 OFFCURVE",
"869 733 OFFCURVE",
"869 550 QCURVE",
"869 550 LINE"
);
}
);
userData = {
assembly = "PUSHB[ ]	/* 3 values pushed */
19 27 28 
SRP1[ ]	/* SetRefPoint1 */
SRP2[ ]	/* SetRefPoint2 */
IP[ ]	/* InterpolatePts */
PUSHB[ ]	/* 1 value pushed */
19 
SRP0[ ]	/* SetRefPoint0 */
PUSHB[ ]	/* 1 value pushed */
12 
MDRP[10000]	/* MoveDirectRelPt */
SVTCA[0]	/* SetFreedomAndProjectionVectorToAxis */
PUSHB[ ]	/* 1 value pushed */
0 
RCVT[ ]	/* ReadCVT */
IF[ ]	/* If */
PUSHB[ ]	/* 1 value pushed */
12 
MDAP[1]	/* MoveDirectAbsPt */
ELSE[ ]	/* Else */
PUSHB[ ]	/* 2 values pushed */
12 26 
MIAP[0]	/* MoveIndirectAbsPt */
EIF[ ]	/* EndIf */
PUSHB[ ]	/* 1 value pushed */
0 
RCVT[ ]	/* ReadCVT */
IF[ ]	/* If */
PUSHB[ ]	/* 1 value pushed */
9 
MDAP[1]	/* MoveDirectAbsPt */
ELSE[ ]	/* Else */
PUSHB[ ]	/* 2 values pushed */
9 26 
MIAP[0]	/* MoveIndirectAbsPt */
EIF[ ]	/* EndIf */
PUSHB[ ]	/* 1 value pushed */
0 
RCVT[ ]	/* ReadCVT */
IF[ ]	/* If */
PUSHB[ ]	/* 1 value pushed */
6 
MDAP[1]	/* MoveDirectAbsPt */
ELSE[ ]	/* Else */
PUSHB[ ]	/* 2 values pushed */
6 20 
MIAP[0]	/* MoveIndirectAbsPt */
EIF[ ]	/* EndIf */
PUSHB[ ]	/* 1 value pushed */
0 
RCVT[ ]	/* ReadCVT */
IF[ ]	/* If */
PUSHB[ ]	/* 1 value pushed */
3 
MDAP[1]	/* MoveDirectAbsPt */
ELSE[ ]	/* Else */
PUSHB[ ]	/* 2 values pushed */
3 18 
MIAP[0]	/* MoveIndirectAbsPt */
EIF[ ]	/* EndIf */
PUSHB[ ]	/* 3 values pushed */
5 12 3 
SRP1[ ]	/* SetRefPoint1 */
SRP2[ ]	/* SetRefPoint2 */
IP[ ]	/* InterpolatePts */
PUSHB[ ]	/* 3 values pushed */
10 12 3 
SRP1[ ]	/* SetRefPoint1 */
SRP2[ ]	/* SetRefPoint2 */
IP[ ]	/* InterpolatePts */
PUSHB[ ]	/* 1 value pushed */
12 
SRP0[ ]	/* SetRefPoint0 */
PUSHB[ ]	/* 2 values pushed */
19 1 
PUSHB[ ]	/* 1 value pushed */
10 
CALL[ ]	/* CallFunction */
IF[ ]	/* If */
POP[ ]	/* PopTopStack */
MDRP[11000]	/* MoveDirectRelPt */
ELSE[ ]	/* Else */
MIRP[10100]	/* MoveIndirectRelPt */
EIF[ ]	/* EndIf */
PUSHB[ ]	/* 1 value pushed */
3 
SRP0[ ]	/* SetRefPoint0 */
PUSHB[ ]	/* 2 values pushed */
24 1 
PUSHB[ ]	/* 1 value pushed */
10 
CALL[ ]	/* CallFunction */
IF[ ]	/* If */
POP[ ]	/* PopTopStack */
MDRP[11000]	/* MoveDirectRelPt */
ELSE[ ]	/* Else */
MIRP[10100]	/* MoveIndirectRelPt */
EIF[ ]	/* EndIf */
IUP[0]	/* InterpolateUntPts */
IUP[1]	/* InterpolateUntPts */";
};
width = 1149;
}
);
leftKerningGroup = m;
note = uni0070;
rightKerningGroup = b;
unicode = 0070;
},
{
glyphname = q;
layers = (
{
layerId = "A9B054E9-1A63-4AEF-9EE1-561B1DFE8422";
paths = (
{
closed = 1;
nodes = (
"95 537 LINE SMOOTH",
"95 285 OFFCURVE",
"328 -20 OFFCURVE",
"524 -20 QCURVE SMOOTH",
"710 -20 OFFCURVE",
"822 100 QCURVE",
"822 -416 LINE",
"1007 -416 LINE",
"1007 1082 LINE",
"837 1082 LINE",
"829 973 LINE",
"718 1102 OFFCURVE",
"526 1102 QCURVE SMOOTH",
"329 1102 OFFCURVE",
"95 805 OFFCURVE",
"95 550 QCURVE",
"95 550 LINE"
);
},
{
closed = 1;
nodes = (
"280 737 OFFCURVE",
"438 950 OFFCURVE",
"572 950 QCURVE SMOOTH",
"734 950 OFFCURVE",
"822 807 QCURVE",
"822 277 LINE",
"735 131 OFFCURVE",
"570 131 QCURVE SMOOTH",
"437 131 OFFCURVE",
"280 343 OFFCURVE",
"280 529 QCURVE",
"280 529 LINE"
);
}
);
userData = {
assembly = "PUSHB[ ]	/* 3 values pushed */
24 27 28 
SRP1[ ]	/* SetRefPoint1 */
SRP2[ ]	/* SetRefPoint2 */
IP[ ]	/* InterpolatePts */
PUSHB[ ]	/* 1 value pushed */
24 
SRP0[ ]	/* SetRefPoint0 */
PUSHB[ ]	/* 1 value pushed */
3 
MDRP[10000]	/* MoveDirectRelPt */
SVTCA[0]	/* SetFreedomAndProjectionVectorToAxis */
PUSHB[ ]	/* 1 value pushed */
0 
RCVT[ ]	/* ReadCVT */
IF[ ]	/* If */
PUSHB[ ]	/* 1 value pushed */
3 
MDAP[1]	/* MoveDirectAbsPt */
ELSE[ ]	/* Else */
PUSHB[ ]	/* 2 values pushed */
3 26 
MIAP[0]	/* MoveIndirectAbsPt */
EIF[ ]	/* EndIf */
PUSHB[ ]	/* 1 value pushed */
0 
RCVT[ ]	/* ReadCVT */
IF[ ]	/* If */
PUSHB[ ]	/* 1 value pushed */
6 
MDAP[1]	/* MoveDirectAbsPt */
ELSE[ ]	/* Else */
PUSHB[ ]	/* 2 values pushed */
6 26 
MIAP[0]	/* MoveIndirectAbsPt */
EIF[ ]	/* EndIf */
PUSHB[ ]	/* 1 value pushed */
0 
RCVT[ ]	/* ReadCVT */
IF[ ]	/* If */
PUSHB[ ]	/* 1 value pushed */
8 
MDAP[1]	/* MoveDirectAbsPt */
ELSE[ ]	/* Else */
PUSHB[ ]	/* 2 values pushed */
8 20 
MIAP[0]	/* MoveIndirectAbsPt */
EIF[ ]	/* EndIf */
PUSHB[ ]	/* 1 value pushed */
0 
RCVT[ ]	/* ReadCVT */
IF[ ]	/* If */
PUSHB[ ]	/* 1 value pushed */
12 
MDAP[1]	/* MoveDirectAbsPt */
ELSE[ ]	/* Else */
PUSHB[ ]	/* 2 values pushed */
12 18 
MIAP[0]	/* MoveIndirectAbsPt */
EIF[ ]	/* EndIf */
PUSHB[ ]	/* 3 values pushed */
5 3 12 
SRP1[ ]	/* SetRefPoint1 */
SRP2[ ]	/* SetRefPoint2 */
IP[ ]	/* InterpolatePts */
PUSHB[ ]	/* 3 values pushed */
10 3 12 
SRP1[ ]	/* SetRefPoint1 */
SRP2[ ]	/* SetRefPoint2 */
IP[ ]	/* InterpolatePts */
PUSHB[ ]	/* 2 values pushed */
19 1 
PUSHB[ ]	/* 1 value pushed */
10 
CALL[ ]	/* CallFunction */
IF[ ]	/* If */
POP[ ]	/* PopTopStack */
MDRP[11000]	/* MoveDirectRelPt */
ELSE[ ]	/* Else */
MIRP[10100]	/* MoveIndirectRelPt */
EIF[ ]	/* EndIf */
PUSHB[ ]	/* 1 value pushed */
3 
SRP0[ ]	/* SetRefPoint0 */
PUSHB[ ]	/* 2 values pushed */
24 1 
PUSHB[ ]	/* 1 value pushed */
10 
CALL[ ]	/* CallFunction */
IF[ ]	/* If */
POP[ ]	/* PopTopStack */
MDRP[11000]	/* MoveDirectRelPt */
ELSE[ ]	/* Else */
MIRP[10100]	/* MoveIndirectRelPt */
EIF[ ]	/* EndIf */
IUP[0]	/* InterpolateUntPts */
IUP[1]	/* InterpolateUntPts */";
};
width = 1164;
}
);
leftKerningGroup = c;
note = uni0071;
unicode = 0071;
},
{
glyphname = r;
layers = (
{
layerId = "A9B054E9-1A63-4AEF-9EE1-561B1DFE8422";
paths = (
{
closed = 1;
nodes = (
"663 1088 LINE",
"635 1102 OFFCURVE",
"581 1102 QCURVE SMOOTH",
"414 1102 OFFCURVE",
"323 957 QCURVE",
"320 1082 LINE",
"140 1082 LINE",
"140 0 LINE",
"325 0 LINE",
"325 768 LINE",
"390 923 OFFCURVE",
"572 923 QCURVE SMOOTH",
"621 923 OFFCURVE",
"663 916 QCURVE",
"663 916 LINE"
);
}
);
userData = {
assembly = "PUSHB[ ]	/* 3 values pushed */
4 14 15 
SRP1[ ]	/* SetRefPoint1 */
SRP2[ ]	/* SetRefPoint2 */
IP[ ]	/* InterpolatePts */
SVTCA[0]	/* SetFreedomAndProjectionVectorToAxis */
PUSHB[ ]	/* 1 value pushed */
0 
RCVT[ ]	/* ReadCVT */
IF[ ]	/* If */
PUSHB[ ]	/* 1 value pushed */
11 
MDAP[1]	/* MoveDirectAbsPt */
ELSE[ ]	/* Else */
PUSHB[ ]	/* 2 values pushed */
11 26 
MIAP[0]	/* MoveIndirectAbsPt */
EIF[ ]	/* EndIf */
PUSHB[ ]	/* 1 value pushed */
0 
RCVT[ ]	/* ReadCVT */
IF[ ]	/* If */
PUSHB[ ]	/* 1 value pushed */
8 
MDAP[1]	/* MoveDirectAbsPt */
ELSE[ ]	/* Else */
PUSHB[ ]	/* 2 values pushed */
8 26 
MIAP[0]	/* MoveIndirectAbsPt */
EIF[ ]	/* EndIf */
PUSHB[ ]	/* 1 value pushed */
0 
RCVT[ ]	/* ReadCVT */
IF[ ]	/* If */
PUSHB[ ]	/* 1 value pushed */
5 
MDAP[1]	/* MoveDirectAbsPt */
ELSE[ ]	/* Else */
PUSHB[ ]	/* 2 values pushed */
5 18 
MIAP[0]	/* MoveIndirectAbsPt */
EIF[ ]	/* EndIf */
PUSHB[ ]	/* 1 value pushed */
11 
SRP0[ ]	/* SetRefPoint0 */
PUSHB[ ]	/* 2 values pushed */
2 1 
PUSHB[ ]	/* 1 value pushed */
10 
CALL[ ]	/* CallFunction */
IF[ ]	/* If */
POP[ ]	/* PopTopStack */
MDRP[11000]	/* MoveDirectRelPt */
ELSE[ ]	/* Else */
MIRP[10100]	/* MoveIndirectRelPt */
EIF[ ]	/* EndIf */
PUSHB[ ]	/* 3 values pushed */
9 11 5 
SRP1[ ]	/* SetRefPoint1 */
SRP2[ ]	/* SetRefPoint2 */
IP[ ]	/* InterpolatePts */
IUP[0]	/* InterpolateUntPts */
IUP[1]	/* InterpolateUntPts */";
};
width = 693;
}
);
note = uni0072;
rightKerningGroup = r;
unicode = 0072;
},
{
glyphname = s;
layers = (
{
layerId = "A9B054E9-1A63-4AEF-9EE1-561B1DFE8422";
paths = (
{
closed = 1;
nodes = (
"770 216 OFFCURVE",
"643 131 OFFCURVE",
"538 131 QCURVE SMOOTH",
"424 131 OFFCURVE",
"285 240 OFFCURVE",
"280 333 QCURVE",
"95 333 LINE",
"95 237 OFFCURVE",
"208 72 OFFCURVE",
"408 -20 OFFCURVE",
"538 -20 QCURVE SMOOTH",
"723 -20 OFFCURVE",
"955 155 OFFCURVE",
"955 300 QCURVE SMOOTH",
"955 387 OFFCURVE",
"872 508 OFFCURVE",
"700 594 OFFCURVE",
"423 656 OFFCURVE",
"317 724 OFFCURVE",
"317 791 QCURVE SMOOTH",
"317 862 OFFCURVE",
"431 950 OFFCURVE",
"532 950 QCURVE SMOOTH",
"630 950 OFFCURVE",
"759 840 OFFCURVE",
"759 764 QCURVE",
"945 764 LINE",
"945 912 OFFCURVE",
"716 1102 OFFCURVE",
"532 1102 QCURVE SMOOTH",
"357 1102 OFFCURVE",
"132 918 OFFCURVE",
"132 785 QCURVE SMOOTH",
"132 705 OFFCURVE",
"211 589 OFFCURVE",
"376 505 OFFCURVE",
"657 445 OFFCURVE",
"770 362 OFFCURVE",
"770 287 QCURVE",
"770 287 LINE"
);
}
);
userData = {
assembly = "PUSHB[ ]	/* 3 values pushed */
9 39 40 
SRP1[ ]	/* SetRefPoint1 */
SRP2[ ]	/* SetRefPoint2 */
IP[ ]	/* InterpolatePts */
SVTCA[0]	/* SetFreedomAndProjectionVectorToAxis */
PUSHB[ ]	/* 1 value pushed */
0 
RCVT[ ]	/* ReadCVT */
IF[ ]	/* If */
PUSHB[ ]	/* 1 value pushed */
9 
MDAP[1]	/* MoveDirectAbsPt */
ELSE[ ]	/* Else */
PUSHB[ ]	/* 2 values pushed */
9 26 
MIAP[0]	/* MoveIndirectAbsPt */
EIF[ ]	/* EndIf */
PUSHB[ ]	/* 1 value pushed */
0 
RCVT[ ]	/* ReadCVT */
IF[ ]	/* If */
PUSHB[ ]	/* 1 value pushed */
28 
MDAP[1]	/* MoveDirectAbsPt */
ELSE[ ]	/* Else */
PUSHB[ ]	/* 2 values pushed */
28 18 
MIAP[0]	/* MoveIndirectAbsPt */
EIF[ ]	/* EndIf */
PUSHB[ ]	/* 3 values pushed */
3 28 9 
SRP1[ ]	/* SetRefPoint1 */
SRP2[ ]	/* SetRefPoint2 */
IP[ ]	/* InterpolatePts */
PUSHB[ ]	/* 1 value pushed */
9 
SRP0[ ]	/* SetRefPoint0 */
PUSHB[ ]	/* 1 value pushed */
13 
MDRP[10000]	/* MoveDirectRelPt */
PUSHB[ ]	/* 1 value pushed */
9 
SRP0[ ]	/* SetRefPoint0 */
PUSHB[ ]	/* 2 values pushed */
16 1 
PUSHB[ ]	/* 1 value pushed */
10 
CALL[ ]	/* CallFunction */
IF[ ]	/* If */
POP[ ]	/* PopTopStack */
MDRP[11000]	/* MoveDirectRelPt */
ELSE[ ]	/* Else */
MIRP[10100]	/* MoveIndirectRelPt */
EIF[ ]	/* EndIf */
PUSHB[ ]	/* 1 value pushed */
3 
SRP0[ ]	/* SetRefPoint0 */
PUSHB[ ]	/* 2 values pushed */
21 1 
PUSHB[ ]	/* 1 value pushed */
10 
CALL[ ]	/* CallFunction */
IF[ ]	/* If */
POP[ ]	/* PopTopStack */
MDRP[11000]	/* MoveDirectRelPt */
ELSE[ ]	/* Else */
MIRP[10100]	/* MoveIndirectRelPt */
EIF[ ]	/* EndIf */
PUSHB[ ]	/* 1 value pushed */
28 
SRP0[ ]	/* SetRefPoint0 */
PUSHB[ ]	/* 1 value pushed */
33 
MDRP[10000]	/* MoveDirectRelPt */
PUSHB[ ]	/* 1 value pushed */
28 
SRP0[ ]	/* SetRefPoint0 */
PUSHB[ ]	/* 2 values pushed */
36 1 
PUSHB[ ]	/* 1 value pushed */
10 
CALL[ ]	/* CallFunction */
IF[ ]	/* If */
POP[ ]	/* PopTopStack */
MDRP[11000]	/* MoveDirectRelPt */
ELSE[ ]	/* Else */
MIRP[10100]	/* MoveIndirectRelPt */
EIF[ ]	/* EndIf */
IUP[0]	/* InterpolateUntPts */
IUP[1]	/* InterpolateUntPts */";
};
width = 1056;
}
);
leftKerningGroup = s;
note = uni0073;
unicode = 0073;
},
{
glyphname = t;
layers = (
{
layerId = "A9B054E9-1A63-4AEF-9EE1-561B1DFE8422";
paths = (
{
closed = 1;
nodes = (
"206 1344 LINE",
"206 1082 LINE",
"9 1082 LINE",
"9 939 LINE",
"206 939 LINE",
"206 268 LINE SMOOTH",
"206 130 OFFCURVE",
"332 -20 OFFCURVE",
"456 -20 QCURVE SMOOTH",
"525 -20 OFFCURVE",
"598 0 QCURVE",
"598 150 LINE",
"542 138 OFFCURVE",
"510 138 QCURVE SMOOTH",
"445 138 OFFCURVE",
"391 203 OFFCURVE",
"391 268 QCURVE SMOOTH",
"391 939 LINE",
"593 939 LINE",
"593 1082 LINE",
"391 1082 LINE",
"391 1344 LINE",
"391 1344 LINE"
);
}
);
userData = {
assembly = "PUSHB[ ]	/* 3 values pushed */
14 22 23 
SRP1[ ]	/* SetRefPoint1 */
SRP2[ ]	/* SetRefPoint2 */
IP[ ]	/* InterpolatePts */
SVTCA[0]	/* SetFreedomAndProjectionVectorToAxis */
PUSHB[ ]	/* 1 value pushed */
0 
RCVT[ ]	/* ReadCVT */
IF[ ]	/* If */
PUSHB[ ]	/* 1 value pushed */
1 
MDAP[1]	/* MoveDirectAbsPt */
ELSE[ ]	/* Else */
PUSHB[ ]	/* 2 values pushed */
1 26 
MIAP[0]	/* MoveIndirectAbsPt */
EIF[ ]	/* EndIf */
PUSHB[ ]	/* 1 value pushed */
0 
RCVT[ ]	/* ReadCVT */
IF[ ]	/* If */
PUSHB[ ]	/* 1 value pushed */
19 
MDAP[1]	/* MoveDirectAbsPt */
ELSE[ ]	/* Else */
PUSHB[ ]	/* 2 values pushed */
19 26 
MIAP[0]	/* MoveIndirectAbsPt */
EIF[ ]	/* EndIf */
PUSHB[ ]	/* 1 value pushed */
0 
RCVT[ ]	/* ReadCVT */
IF[ ]	/* If */
PUSHB[ ]	/* 1 value pushed */
13 
MDAP[1]	/* MoveDirectAbsPt */
ELSE[ ]	/* Else */
PUSHB[ ]	/* 2 values pushed */
13 18 
MIAP[0]	/* MoveIndirectAbsPt */
EIF[ ]	/* EndIf */
PUSHB[ ]	/* 1 value pushed */
1 
SRP0[ ]	/* SetRefPoint0 */
PUSHB[ ]	/* 1 value pushed */
0 
MDRP[10000]	/* MoveDirectRelPt */
PUSHB[ ]	/* 1 value pushed */
0 
MDAP[1]	/* MoveDirectAbsPt */
PUSHB[ ]	/* 1 value pushed */
1 
SRP0[ ]	/* SetRefPoint0 */
PUSHB[ ]	/* 2 values pushed */
3 1 
PUSHB[ ]	/* 1 value pushed */
10 
CALL[ ]	/* CallFunction */
IF[ ]	/* If */
POP[ ]	/* PopTopStack */
MDRP[11000]	/* MoveDirectRelPt */
ELSE[ ]	/* Else */
MIRP[10100]	/* MoveIndirectRelPt */
EIF[ ]	/* EndIf */
PUSHB[ ]	/* 1 value pushed */
13 
SRP0[ ]	/* SetRefPoint0 */
PUSHB[ ]	/* 2 values pushed */
8 1 
PUSHB[ ]	/* 1 value pushed */
10 
CALL[ ]	/* CallFunction */
IF[ ]	/* If */
POP[ ]	/* PopTopStack */
MDRP[11000]	/* MoveDirectRelPt */
ELSE[ ]	/* Else */
MIRP[10100]	/* MoveIndirectRelPt */
EIF[ ]	/* EndIf */
PUSHB[ ]	/* 1 value pushed */
3 
SRP0[ ]	/* SetRefPoint0 */
PUSHB[ ]	/* 1 value pushed */
17 
MDRP[10000]	/* MoveDirectRelPt */
PUSHB[ ]	/* 1 value pushed */
18 
MDRP[10000]	/* MoveDirectRelPt */
IUP[0]	/* InterpolateUntPts */
IUP[1]	/* InterpolateUntPts */";
};
width = 669;
}
);
note = uni0074;
unicode = 0074;
},
{
glyphname = u;
layers = (
{
layerId = "A9B054E9-1A63-4AEF-9EE1-561B1DFE8422";
paths = (
{
closed = 1;
nodes = (
"812 0 LINE",
"988 0 LINE",
"988 1082 LINE",
"803 1082 LINE",
"803 295 LINE",
"733 137 OFFCURVE",
"521 137 QCURVE SMOOTH",
"321 137 OFFCURVE",
"321 383 QCURVE SMOOTH",
"321 1082 LINE",
"136 1082 LINE",
"136 378 LINE SMOOTH",
"137 181 OFFCURVE",
"318 -20 OFFCURVE",
"491 -20 QCURVE SMOOTH",
"700 -20 OFFCURVE",
"808 107 QCURVE",
"808 107 LINE"
);
}
);
userData = {
assembly = "PUSHB[ ]	/* 3 values pushed */
10 17 18 
SRP1[ ]	/* SetRefPoint1 */
SRP2[ ]	/* SetRefPoint2 */
IP[ ]	/* InterpolatePts */
SVTCA[0]	/* SetFreedomAndProjectionVectorToAxis */
PUSHB[ ]	/* 1 value pushed */
0 
RCVT[ ]	/* ReadCVT */
IF[ ]	/* If */
PUSHB[ ]	/* 1 value pushed */
6 
MDAP[1]	/* MoveDirectAbsPt */
ELSE[ ]	/* Else */
PUSHB[ ]	/* 2 values pushed */
6 26 
MIAP[0]	/* MoveIndirectAbsPt */
EIF[ ]	/* EndIf */
PUSHB[ ]	/* 1 value pushed */
0 
RCVT[ ]	/* ReadCVT */
IF[ ]	/* If */
PUSHB[ ]	/* 1 value pushed */
13 
MDAP[1]	/* MoveDirectAbsPt */
ELSE[ ]	/* Else */
PUSHB[ ]	/* 2 values pushed */
13 26 
MIAP[0]	/* MoveIndirectAbsPt */
EIF[ ]	/* EndIf */
PUSHB[ ]	/* 1 value pushed */
0 
RCVT[ ]	/* ReadCVT */
IF[ ]	/* If */
PUSHB[ ]	/* 1 value pushed */
2 
MDAP[1]	/* MoveDirectAbsPt */
ELSE[ ]	/* Else */
PUSHB[ ]	/* 2 values pushed */
2 18 
MIAP[0]	/* MoveIndirectAbsPt */
EIF[ ]	/* EndIf */
PUSHB[ ]	/* 1 value pushed */
0 
RCVT[ ]	/* ReadCVT */
IF[ ]	/* If */
PUSHB[ ]	/* 1 value pushed */
16 
MDAP[1]	/* MoveDirectAbsPt */
ELSE[ ]	/* Else */
PUSHB[ ]	/* 2 values pushed */
16 18 
MIAP[0]	/* MoveIndirectAbsPt */
EIF[ ]	/* EndIf */
PUSHB[ ]	/* 3 values pushed */
0 13 2 
SRP1[ ]	/* SetRefPoint1 */
SRP2[ ]	/* SetRefPoint2 */
IP[ ]	/* InterpolatePts */
PUSHB[ ]	/* 1 value pushed */
2 
SRP0[ ]	/* SetRefPoint0 */
PUSHB[ ]	/* 2 values pushed */
10 1 
PUSHB[ ]	/* 1 value pushed */
10 
CALL[ ]	/* CallFunction */
IF[ ]	/* If */
POP[ ]	/* PopTopStack */
MDRP[11000]	/* MoveDirectRelPt */
ELSE[ ]	/* Else */
MIRP[10100]	/* MoveIndirectRelPt */
EIF[ ]	/* EndIf */
IUP[0]	/* InterpolateUntPts */
IUP[1]	/* InterpolateUntPts */";
};
width = 1129;
}
);
leftKerningGroup = u;
note = uni0075;
unicode = 0075;
},
{
glyphname = v;
layers = (
{
layerId = "A9B054E9-1A63-4AEF-9EE1-561B1DFE8422";
paths = (
{
closed = 1;
nodes = (
"222 1082 LINE",
"33 1082 LINE",
"425 0 LINE",
"566 0 LINE",
"954 1082 LINE",
"765 1082 LINE",
"497 251 LINE",
"497 251 LINE"
);
}
);
userData = {
assembly = "PUSHB[ ]	/* 3 values pushed */
0 7 8 
SRP1[ ]	/* SetRefPoint1 */
SRP2[ ]	/* SetRefPoint2 */
IP[ ]	/* InterpolatePts */
SVTCA[0]	/* SetFreedomAndProjectionVectorToAxis */
PUSHB[ ]	/* 1 value pushed */
0 
RCVT[ ]	/* ReadCVT */
IF[ ]	/* If */
PUSHB[ ]	/* 1 value pushed */
1 
MDAP[1]	/* MoveDirectAbsPt */
ELSE[ ]	/* Else */
PUSHB[ ]	/* 2 values pushed */
1 26 
MIAP[0]	/* MoveIndirectAbsPt */
EIF[ ]	/* EndIf */
PUSHB[ ]	/* 1 value pushed */
0 
RCVT[ ]	/* ReadCVT */
IF[ ]	/* If */
PUSHB[ ]	/* 1 value pushed */
5 
MDAP[1]	/* MoveDirectAbsPt */
ELSE[ ]	/* Else */
PUSHB[ ]	/* 2 values pushed */
5 26 
MIAP[0]	/* MoveIndirectAbsPt */
EIF[ ]	/* EndIf */
PUSHB[ ]	/* 1 value pushed */
0 
RCVT[ ]	/* ReadCVT */
IF[ ]	/* If */
PUSHB[ ]	/* 1 value pushed */
3 
MDAP[1]	/* MoveDirectAbsPt */
ELSE[ ]	/* Else */
PUSHB[ ]	/* 2 values pushed */
3 18 
MIAP[0]	/* MoveIndirectAbsPt */
EIF[ ]	/* EndIf */
PUSHB[ ]	/* 3 values pushed */
0 5 3 
SRP1[ ]	/* SetRefPoint1 */
SRP2[ ]	/* SetRefPoint2 */
IP[ ]	/* InterpolatePts */
IUP[0]	/* InterpolateUntPts */
IUP[1]	/* InterpolateUntPts */";
};
width = 992;
}
);
leftKerningGroup = v;
note = uni0076;
rightKerningGroup = v;
unicode = 0076;
},
{
glyphname = w;
layers = (
{
layerId = "A9B054E9-1A63-4AEF-9EE1-561B1DFE8422";
paths = (
{
closed = 1;
nodes = (
"841 1082 LINE",
"692 1082 LINE",
"440 272 LINE",
"227 1082 LINE",
"43 1082 LINE",
"357 0 LINE",
"507 0 LINE",
"763 820 LINE",
"1026 0 LINE",
"1176 0 LINE",
"1491 1082 LINE",
"1306 1082 LINE",
"1098 255 LINE",
"1098 255 LINE"
);
}
);
userData = {
assembly = "PUSHB[ ]	/* 3 values pushed */
5 13 14 
SRP1[ ]	/* SetRefPoint1 */
SRP2[ ]	/* SetRefPoint2 */
IP[ ]	/* InterpolatePts */
SVTCA[0]	/* SetFreedomAndProjectionVectorToAxis */
PUSHB[ ]	/* 1 value pushed */
0 
RCVT[ ]	/* ReadCVT */
IF[ ]	/* If */
PUSHB[ ]	/* 1 value pushed */
1 
MDAP[1]	/* MoveDirectAbsPt */
ELSE[ ]	/* Else */
PUSHB[ ]	/* 2 values pushed */
1 26 
MIAP[0]	/* MoveIndirectAbsPt */
EIF[ ]	/* EndIf */
PUSHB[ ]	/* 1 value pushed */
0 
RCVT[ ]	/* ReadCVT */
IF[ ]	/* If */
PUSHB[ ]	/* 1 value pushed */
8 
MDAP[1]	/* MoveDirectAbsPt */
ELSE[ ]	/* Else */
PUSHB[ ]	/* 2 values pushed */
8 26 
MIAP[0]	/* MoveIndirectAbsPt */
EIF[ ]	/* EndIf */
PUSHB[ ]	/* 1 value pushed */
0 
RCVT[ ]	/* ReadCVT */
IF[ ]	/* If */
PUSHB[ ]	/* 1 value pushed */
11 
MDAP[1]	/* MoveDirectAbsPt */
ELSE[ ]	/* Else */
PUSHB[ ]	/* 2 values pushed */
11 26 
MIAP[0]	/* MoveIndirectAbsPt */
EIF[ ]	/* EndIf */
PUSHB[ ]	/* 1 value pushed */
0 
RCVT[ ]	/* ReadCVT */
IF[ ]	/* If */
PUSHB[ ]	/* 1 value pushed */
3 
MDAP[1]	/* MoveDirectAbsPt */
ELSE[ ]	/* Else */
PUSHB[ ]	/* 2 values pushed */
3 18 
MIAP[0]	/* MoveIndirectAbsPt */
EIF[ ]	/* EndIf */
PUSHB[ ]	/* 1 value pushed */
0 
RCVT[ ]	/* ReadCVT */
IF[ ]	/* If */
PUSHB[ ]	/* 1 value pushed */
6 
MDAP[1]	/* MoveDirectAbsPt */
ELSE[ ]	/* Else */
PUSHB[ ]	/* 2 values pushed */
6 18 
MIAP[0]	/* MoveIndirectAbsPt */
EIF[ ]	/* EndIf */
PUSHB[ ]	/* 3 values pushed */
0 11 3 
SRP1[ ]	/* SetRefPoint1 */
SRP2[ ]	/* SetRefPoint2 */
IP[ ]	/* InterpolatePts */
PUSHB[ ]	/* 3 values pushed */
5 11 3 
SRP1[ ]	/* SetRefPoint1 */
SRP2[ ]	/* SetRefPoint2 */
IP[ ]	/* InterpolatePts */
PUSHB[ ]	/* 3 values pushed */
10 11 3 
SRP1[ ]	/* SetRefPoint1 */
SRP2[ ]	/* SetRefPoint2 */
IP[ ]	/* InterpolatePts */
IUP[0]	/* InterpolateUntPts */
IUP[1]	/* InterpolateUntPts */";
};
width = 1539;
}
);
note = uni0077;
unicode = 0077;
},
{
glyphname = x;
layers = (
{
layerId = "A9B054E9-1A63-4AEF-9EE1-561B1DFE8422";
paths = (
{
closed = 1;
nodes = (
"266 1082 LINE",
"52 1082 LINE",
"406 547 LINE",
"41 0 LINE",
"256 0 LINE",
"506 405 LINE",
"756 0 LINE",
"970 0 LINE",
"605 547 LINE",
"959 1082 LINE",
"743 1082 LINE",
"503 687 LINE",
"503 687 LINE"
);
}
);
userData = {
assembly = "SVTCA[0]	/* SetFreedomAndProjectionVectorToAxis */
PUSHB[ ]	/* 1 value pushed */
0 
RCVT[ ]	/* ReadCVT */
IF[ ]	/* If */
PUSHB[ ]	/* 1 value pushed */
1 
MDAP[1]	/* MoveDirectAbsPt */
ELSE[ ]	/* Else */
PUSHB[ ]	/* 2 values pushed */
1 26 
MIAP[0]	/* MoveIndirectAbsPt */
EIF[ ]	/* EndIf */
PUSHB[ ]	/* 1 value pushed */
0 
RCVT[ ]	/* ReadCVT */
IF[ ]	/* If */
PUSHB[ ]	/* 1 value pushed */
10 
MDAP[1]	/* MoveDirectAbsPt */
ELSE[ ]	/* Else */
PUSHB[ ]	/* 2 values pushed */
10 26 
MIAP[0]	/* MoveIndirectAbsPt */
EIF[ ]	/* EndIf */
PUSHB[ ]	/* 1 value pushed */
0 
RCVT[ ]	/* ReadCVT */
IF[ ]	/* If */
PUSHB[ ]	/* 1 value pushed */
4 
MDAP[1]	/* MoveDirectAbsPt */
ELSE[ ]	/* Else */
PUSHB[ ]	/* 2 values pushed */
4 18 
MIAP[0]	/* MoveIndirectAbsPt */
EIF[ ]	/* EndIf */
PUSHB[ ]	/* 1 value pushed */
0 
RCVT[ ]	/* ReadCVT */
IF[ ]	/* If */
PUSHB[ ]	/* 1 value pushed */
7 
MDAP[1]	/* MoveDirectAbsPt */
ELSE[ ]	/* Else */
PUSHB[ ]	/* 2 values pushed */
7 18 
MIAP[0]	/* MoveIndirectAbsPt */
EIF[ ]	/* EndIf */
PUSHB[ ]	/* 3 values pushed */
0 10 4 
SRP1[ ]	/* SetRefPoint1 */
SRP2[ ]	/* SetRefPoint2 */
IP[ ]	/* InterpolatePts */
PUSHB[ ]	/* 3 values pushed */
6 10 4 
SRP1[ ]	/* SetRefPoint1 */
SRP2[ ]	/* SetRefPoint2 */
IP[ ]	/* InterpolatePts */
PUSHB[ ]	/* 3 values pushed */
3 0 6 
SRP1[ ]	/* SetRefPoint1 */
SRP2[ ]	/* SetRefPoint2 */
IP[ ]	/* InterpolatePts */
PUSHB[ ]	/* 3 values pushed */
9 6 0 
SRP1[ ]	/* SetRefPoint1 */
SRP2[ ]	/* SetRefPoint2 */
IP[ ]	/* InterpolatePts */
IUP[0]	/* InterpolateUntPts */
IUP[1]	/* InterpolateUntPts */";
};
width = 1015;
}
);
leftKerningGroup = x;
note = uni0078;
rightKerningGroup = x;
unicode = 0078;
},
{
glyphname = y;
layers = (
{
layerId = "A9B054E9-1A63-4AEF-9EE1-561B1DFE8422";
paths = (
{
closed = 1;
nodes = (
"224 1082 LINE",
"22 1082 LINE",
"408 12 LINE",
"367 -98 LINE SMOOTH",
"333 -199 OFFCURVE",
"228 -275 OFFCURVE",
"134 -275 QCURVE",
"84 -271 LINE",
"84 -421 LINE",
"153 -434 LINE",
"188 -437 LINE",
"408 -437 OFFCURVE",
"509 -167 QCURVE",
"944 1082 LINE",
"746 1082 LINE",
"494 271 LINE",
"494 271 LINE"
);
}
);
userData = {
assembly = "PUSHB[ ]	/* 3 values pushed */
0 16 17 
SRP1[ ]	/* SetRefPoint1 */
SRP2[ ]	/* SetRefPoint2 */
IP[ ]	/* InterpolatePts */
SVTCA[0]	/* SetFreedomAndProjectionVectorToAxis */
PUSHB[ ]	/* 1 value pushed */
0 
RCVT[ ]	/* ReadCVT */
IF[ ]	/* If */
PUSHB[ ]	/* 1 value pushed */
1 
MDAP[1]	/* MoveDirectAbsPt */
ELSE[ ]	/* Else */
PUSHB[ ]	/* 2 values pushed */
1 26 
MIAP[0]	/* MoveIndirectAbsPt */
EIF[ ]	/* EndIf */
PUSHB[ ]	/* 1 value pushed */
0 
RCVT[ ]	/* ReadCVT */
IF[ ]	/* If */
PUSHB[ ]	/* 1 value pushed */
14 
MDAP[1]	/* MoveDirectAbsPt */
ELSE[ ]	/* Else */
PUSHB[ ]	/* 2 values pushed */
14 26 
MIAP[0]	/* MoveIndirectAbsPt */
EIF[ ]	/* EndIf */
PUSHB[ ]	/* 1 value pushed */
0 
RCVT[ ]	/* ReadCVT */
IF[ ]	/* If */
PUSHB[ ]	/* 1 value pushed */
5 
MDAP[1]	/* MoveDirectAbsPt */
ELSE[ ]	/* Else */
PUSHB[ ]	/* 2 values pushed */
5 20 
MIAP[0]	/* MoveIndirectAbsPt */
EIF[ ]	/* EndIf */
PUSHB[ ]	/* 3 values pushed */
0 14 5 
SRP1[ ]	/* SetRefPoint1 */
SRP2[ ]	/* SetRefPoint2 */
IP[ ]	/* InterpolatePts */
PUSHB[ ]	/* 2 values pushed */
9 1 
PUSHB[ ]	/* 1 value pushed */
10 
CALL[ ]	/* CallFunction */
IF[ ]	/* If */
POP[ ]	/* PopTopStack */
MDRP[11000]	/* MoveDirectRelPt */
ELSE[ ]	/* Else */
MIRP[10100]	/* MoveIndirectRelPt */
EIF[ ]	/* EndIf */
PUSHB[ ]	/* 1 value pushed */
0 
SRP0[ ]	/* SetRefPoint0 */
PUSHB[ ]	/* 1 value pushed */
13 
MDRP[10000]	/* MoveDirectRelPt */
IUP[0]	/* InterpolateUntPts */
IUP[1]	/* InterpolateUntPts */";
};
width = 969;
}
);
leftKerningGroup = v;
note = uni0079;
rightKerningGroup = v;
unicode = 0079;
},
{
glyphname = z;
layers = (
{
layerId = "A9B054E9-1A63-4AEF-9EE1-561B1DFE8422";
paths = (
{
closed = 1;
nodes = (
"917 951 LINE",
"917 1082 LINE",
"97 1082 LINE",
"97 929 LINE",
"685 929 LINE",
"88 136 LINE",
"88 0 LINE",
"947 0 LINE",
"947 151 LINE",
"314 151 LINE",
"314 151 LINE"
);
}
);
userData = {
assembly = "SVTCA[0]	/* SetFreedomAndProjectionVectorToAxis */
PUSHB[ ]	/* 1 value pushed */
0 
RCVT[ ]	/* ReadCVT */
IF[ ]	/* If */
PUSHB[ ]	/* 1 value pushed */
7 
MDAP[1]	/* MoveDirectAbsPt */
ELSE[ ]	/* Else */
PUSHB[ ]	/* 2 values pushed */
7 26 
MIAP[0]	/* MoveIndirectAbsPt */
EIF[ ]	/* EndIf */
PUSHB[ ]	/* 1 value pushed */
0 
RCVT[ ]	/* ReadCVT */
IF[ ]	/* If */
PUSHB[ ]	/* 1 value pushed */
2 
MDAP[1]	/* MoveDirectAbsPt */
ELSE[ ]	/* Else */
PUSHB[ ]	/* 2 values pushed */
2 18 
MIAP[0]	/* MoveIndirectAbsPt */
EIF[ ]	/* EndIf */
PUSHB[ ]	/* 2 values pushed */
0 1 
PUSHB[ ]	/* 1 value pushed */
10 
CALL[ ]	/* CallFunction */
IF[ ]	/* If */
POP[ ]	/* PopTopStack */
MDRP[11000]	/* MoveDirectRelPt */
ELSE[ ]	/* Else */
MIRP[10100]	/* MoveIndirectRelPt */
EIF[ ]	/* EndIf */
PUSHB[ ]	/* 3 values pushed */
4 0 2 
SRP1[ ]	/* SetRefPoint1 */
SRP2[ ]	/* SetRefPoint2 */
IP[ ]	/* InterpolatePts */
PUSHB[ ]	/* 1 value pushed */
7 
SRP0[ ]	/* SetRefPoint0 */
PUSHB[ ]	/* 2 values pushed */
5 1 
PUSHB[ ]	/* 1 value pushed */
10 
CALL[ ]	/* CallFunction */
IF[ ]	/* If */
POP[ ]	/* PopTopStack */
MDRP[11000]	/* MoveDirectRelPt */
ELSE[ ]	/* Else */
MIRP[10100]	/* MoveIndirectRelPt */
EIF[ ]	/* EndIf */
PUSHB[ ]	/* 3 values pushed */
9 5 7 
SRP1[ ]	/* SetRefPoint1 */
SRP2[ ]	/* SetRefPoint2 */
IP[ ]	/* InterpolatePts */
IUP[0]	/* InterpolateUntPts */
IUP[1]	/* InterpolateUntPts */";
};
width = 1015;
}
);
leftKerningGroup = z;
note = uni007A;
rightKerningGroup = z;
unicode = 007A;
},
{
glyphname = braceleft;
layers = (
{
layerId = "A9B054E9-1A63-4AEF-9EE1-561B1DFE8422";
paths = (
{
closed = 1;
nodes = (
"670 -251 LINE",
"464 -185 OFFCURVE",
"461 90 QCURVE SMOOTH",
"461 296 LINE SMOOTH",
"461 525 OFFCURVE",
"294 615 QCURVE",
"461 704 OFFCURVE",
"461 931 QCURVE SMOOTH",
"461 1133 LINE SMOOTH",
"461 1415 OFFCURVE",
"670 1482 QCURVE",
"632 1597 LINE",
"453 1546 OFFCURVE",
"278 1321 OFFCURVE",
"276 1138 QCURVE SMOOTH",
"276 930 LINE SMOOTH",
"276 688 OFFCURVE",
"64 688 QCURVE",
"64 543 LINE",
"276 543 OFFCURVE",
"276 300 QCURVE SMOOTH",
"276 101 LINE SMOOTH",
"276 -87 OFFCURVE",
"455 -316 OFFCURVE",
"632 -366 QCURVE",
"632 -366 LINE"
);
}
);
userData = {
assembly = "PUSHB[ ]	/* 3 values pushed */
19 25 26 
SRP1[ ]	/* SetRefPoint1 */
SRP2[ ]	/* SetRefPoint2 */
IP[ ]	/* InterpolatePts */
SVTCA[0]	/* SetFreedomAndProjectionVectorToAxis */
PUSHB[ ]	/* 1 value pushed */
13 
MDAP[1]	/* MoveDirectAbsPt */
PUSHB[ ]	/* 1 value pushed */
0 
MDAP[1]	/* MoveDirectAbsPt */
PUSHB[ ]	/* 3 values pushed */
7 13 0 
SRP1[ ]	/* SetRefPoint1 */
SRP2[ ]	/* SetRefPoint2 */
IP[ ]	/* InterpolatePts */
PUSHB[ ]	/* 1 value pushed */
7 
MDAP[1]	/* MoveDirectAbsPt */
PUSHB[ ]	/* 3 values pushed */
31 7 1 
DELTAP1[ ]	/* DeltaExceptionP1 */
PUSHB[ ]	/* 2 values pushed */
6 3 
PUSHB[ ]	/* 1 value pushed */
10 
CALL[ ]	/* CallFunction */
IF[ ]	/* If */
POP[ ]	/* PopTopStack */
MDRP[11000]	/* MoveDirectRelPt */
ELSE[ ]	/* Else */
MIRP[10100]	/* MoveIndirectRelPt */
EIF[ ]	/* EndIf */
PUSHB[ ]	/* 3 values pushed */
19 6 7 
SRP1[ ]	/* SetRefPoint1 */
SRP2[ ]	/* SetRefPoint2 */
IP[ ]	/* InterpolatePts */
IUP[0]	/* InterpolateUntPts */
IUP[1]	/* InterpolateUntPts */";
};
width = 693;
}
);
note = uni007B;
unicode = 007B;
},
{
glyphname = bar;
layers = (
{
layerId = "A9B054E9-1A63-4AEF-9EE1-561B1DFE8422";
paths = (
{
closed = 1;
nodes = (
"324 1456 LINE",
"175 1456 LINE",
"175 -270 LINE",
"324 -270 LINE",
"324 -270 LINE"
);
}
);
userData = {
assembly = "SVTCA[0]	/* SetFreedomAndProjectionVectorToAxis */
PUSHB[ ]	/* 1 value pushed */
0 
MDAP[1]	/* MoveDirectAbsPt */
PUSHB[ ]	/* 1 value pushed */
0 
RCVT[ ]	/* ReadCVT */
IF[ ]	/* If */
PUSHB[ ]	/* 1 value pushed */
2 
MDAP[1]	/* MoveDirectAbsPt */
ELSE[ ]	/* Else */
PUSHB[ ]	/* 2 values pushed */
2 30 
MIAP[0]	/* MoveIndirectAbsPt */
EIF[ ]	/* EndIf */
IUP[0]	/* InterpolateUntPts */
IUP[1]	/* InterpolateUntPts */";
};
width = 499;
}
);
note = uni007C;
unicode = 007C;
},
{
glyphname = braceright;
layers = (
{
layerId = "A9B054E9-1A63-4AEF-9EE1-561B1DFE8422";
paths = (
{
closed = 1;
nodes = (
"58 -366 LINE",
"233 -316 OFFCURVE",
"414 -90 OFFCURVE",
"414 98 QCURVE SMOOTH",
"414 300 LINE SMOOTH",
"414 543 OFFCURVE",
"626 543 QCURVE",
"626 688 LINE",
"414 688 OFFCURVE",
"414 927 QCURVE SMOOTH",
"414 1137 LINE SMOOTH",
"413 1322 OFFCURVE",
"235 1547 OFFCURVE",
"58 1597 QCURVE",
"20 1482 LINE",
"229 1415 OFFCURVE",
"229 1133 QCURVE SMOOTH",
"229 930 LINE SMOOTH",
"229 697 OFFCURVE",
"410 615 QCURVE",
"229 531 OFFCURVE",
"229 300 QCURVE SMOOTH",
"229 80 LINE SMOOTH",
"222 -186 OFFCURVE",
"19 -251 QCURVE",
"19 -251 LINE"
);
}
);
userData = {
assembly = "PUSHB[ ]	/* 3 values pushed */
5 25 26 
SRP1[ ]	/* SetRefPoint1 */
SRP2[ ]	/* SetRefPoint2 */
IP[ ]	/* InterpolatePts */
SVTCA[0]	/* SetFreedomAndProjectionVectorToAxis */
PUSHB[ ]	/* 1 value pushed */
11 
MDAP[1]	/* MoveDirectAbsPt */
PUSHB[ ]	/* 1 value pushed */
24 
MDAP[1]	/* MoveDirectAbsPt */
PUSHB[ ]	/* 3 values pushed */
17 11 24 
SRP1[ ]	/* SetRefPoint1 */
SRP2[ ]	/* SetRefPoint2 */
IP[ ]	/* InterpolatePts */
PUSHB[ ]	/* 1 value pushed */
17 
MDAP[1]	/* MoveDirectAbsPt */
PUSHB[ ]	/* 3 values pushed */
31 17 1 
DELTAP1[ ]	/* DeltaExceptionP1 */
PUSHB[ ]	/* 2 values pushed */
18 3 
PUSHB[ ]	/* 1 value pushed */
10 
CALL[ ]	/* CallFunction */
IF[ ]	/* If */
POP[ ]	/* PopTopStack */
MDRP[11000]	/* MoveDirectRelPt */
ELSE[ ]	/* Else */
MIRP[10100]	/* MoveIndirectRelPt */
EIF[ ]	/* EndIf */
PUSHB[ ]	/* 3 values pushed */
5 18 17 
SRP1[ ]	/* SetRefPoint1 */
SRP2[ ]	/* SetRefPoint2 */
IP[ ]	/* InterpolatePts */
IUP[0]	/* InterpolateUntPts */
IUP[1]	/* InterpolateUntPts */";
};
width = 693;
}
);
note = uni007D;
unicode = 007D;
},
{
glyphname = asciitilde;
layers = (
{
layerId = "A9B054E9-1A63-4AEF-9EE1-561B1DFE8422";
paths = (
{
closed = 1;
nodes = (
"1110 776 LINE",
"1110 681 OFFCURVE",
"1015 565 OFFCURVE",
"939 565 QCURVE",
"910 567 LINE",
"846 577 OFFCURVE",
"670 738 OFFCURVE",
"530 802 OFFCURVE",
"454 802 QCURVE SMOOTH",
"315 802 OFFCURVE",
"131 596 OFFCURVE",
"131 436 QCURVE",
"292 438 LINE",
"292 532 OFFCURVE",
"376 639 OFFCURVE",
"454 639 QCURVE SMOOTH",
"496 639 OFFCURVE",
"570 603 OFFCURVE",
"739 455 OFFCURVE",
"867 402 OFFCURVE",
"939 402 QCURVE SMOOTH",
"1076 402 OFFCURVE",
"1263 619 OFFCURVE",
"1263 777 QCURVE",
"1263 777 LINE"
);
}
);
userData = {
assembly = "PUSHB[ ]	/* 3 values pushed */
17 24 25 
SRP1[ ]	/* SetRefPoint1 */
SRP2[ ]	/* SetRefPoint2 */
IP[ ]	/* InterpolatePts */
SVTCA[0]	/* SetFreedomAndProjectionVectorToAxis */
PUSHB[ ]	/* 1 value pushed */
0 
RCVT[ ]	/* ReadCVT */
IF[ ]	/* If */
PUSHB[ ]	/* 1 value pushed */
15 
MDAP[1]	/* MoveDirectAbsPt */
ELSE[ ]	/* Else */
PUSHB[ ]	/* 2 values pushed */
15 24 
MIAP[0]	/* MoveIndirectAbsPt */
EIF[ ]	/* EndIf */
PUSHB[ ]	/* 1 value pushed */
0 
MDRP[10000]	/* MoveDirectRelPt */
PUSHB[ ]	/* 1 value pushed */
15 
SRP0[ ]	/* SetRefPoint0 */
PUSHB[ ]	/* 1 value pushed */
20 
MDRP[10000]	/* MoveDirectRelPt */
PUSHB[ ]	/* 1 value pushed */
20 
MDAP[1]	/* MoveDirectAbsPt */
PUSHB[ ]	/* 2 values pushed */
3 1 
PUSHB[ ]	/* 1 value pushed */
10 
CALL[ ]	/* CallFunction */
IF[ ]	/* If */
POP[ ]	/* PopTopStack */
MDRP[11000]	/* MoveDirectRelPt */
ELSE[ ]	/* Else */
MIRP[10100]	/* MoveIndirectRelPt */
EIF[ ]	/* EndIf */
PUSHB[ ]	/* 1 value pushed */
15 
SRP0[ ]	/* SetRefPoint0 */
PUSHB[ ]	/* 2 values pushed */
8 1 
PUSHB[ ]	/* 1 value pushed */
10 
CALL[ ]	/* CallFunction */
IF[ ]	/* If */
POP[ ]	/* PopTopStack */
MDRP[11000]	/* MoveDirectRelPt */
ELSE[ ]	/* Else */
MIRP[10100]	/* MoveIndirectRelPt */
EIF[ ]	/* EndIf */
PUSHB[ ]	/* 1 value pushed */
3 
SRP0[ ]	/* SetRefPoint0 */
PUSHB[ ]	/* 1 value pushed */
11 
MDRP[10000]	/* MoveDirectRelPt */
IUP[0]	/* InterpolateUntPts */
IUP[1]	/* InterpolateUntPts */";
};
width = 1393;
}
);
note = uni007E;
unicode = 007E;
},
{
glyphname = exclamdown;
layers = (
{
layerId = "A9B054E9-1A63-4AEF-9EE1-561B1DFE8422";
paths = (
{
closed = 1;
nodes = (
"157 -360 LINE",
"351 -360 LINE",
"338 684 LINE",
"170 684 LINE",
"170 684 LINE"
);
},
{
closed = 1;
nodes = (
"358 1041 OFFCURVE",
"303 1101 OFFCURVE",
"195 1101 OFFCURVE",
"139 1041 OFFCURVE",
"139 951 OFFCURVE",
"195 889 OFFCURVE",
"303 889 OFFCURVE",
"358 951 OFFCURVE",
"358 996 QCURVE",
"358 996 LINE"
);
}
);
userData = {
assembly = "PUSHB[ ]	/* 3 values pushed */
6 13 14 
SRP1[ ]	/* SetRefPoint1 */
SRP2[ ]	/* SetRefPoint2 */
IP[ ]	/* InterpolatePts */
PUSHB[ ]	/* 1 value pushed */
6 
SRP0[ ]	/* SetRefPoint0 */
PUSHB[ ]	/* 1 value pushed */
0 
MDRP[10000]	/* MoveDirectRelPt */
SVTCA[0]	/* SetFreedomAndProjectionVectorToAxis */
PUSHB[ ]	/* 1 value pushed */
2 
MDAP[1]	/* MoveDirectAbsPt */
PUSHB[ ]	/* 1 value pushed */
0 
RCVT[ ]	/* ReadCVT */
IF[ ]	/* If */
PUSHB[ ]	/* 1 value pushed */
11 
MDAP[1]	/* MoveDirectAbsPt */
ELSE[ ]	/* Else */
PUSHB[ ]	/* 2 values pushed */
11 26 
MIAP[0]	/* MoveIndirectAbsPt */
EIF[ ]	/* EndIf */
PUSHB[ ]	/* 2 values pushed */
6 5 
PUSHB[ ]	/* 1 value pushed */
10 
CALL[ ]	/* CallFunction */
IF[ ]	/* If */
POP[ ]	/* PopTopStack */
MDRP[11000]	/* MoveDirectRelPt */
ELSE[ ]	/* Else */
MIRP[10100]	/* MoveIndirectRelPt */
EIF[ ]	/* EndIf */
PUSHB[ ]	/* 3 values pushed */
1 2 6 
SRP1[ ]	/* SetRefPoint1 */
SRP2[ ]	/* SetRefPoint2 */
IP[ ]	/* InterpolatePts */
IUP[0]	/* InterpolateUntPts */
IUP[1]	/* InterpolateUntPts */";
};
width = 499;
}
);
note = uni00A1;
unicode = 00A1;
},
{
glyphname = cent;
layers = (
{
layerId = "A9B054E9-1A63-4AEF-9EE1-561B1DFE8422";
paths = (
{
closed = 1;
nodes = (
"445 131 OFFCURVE",
"290 333 OFFCURVE",
"290 520 QCURVE SMOOTH",
"290 555 LINE SMOOTH",
"290 747 OFFCURVE",
"445 950 OFFCURVE",
"586 950 QCURVE SMOOTH",
"691 950 OFFCURVE",
"834 815 OFFCURVE",
"842 710 QCURVE",
"1017 710 LINE",
"1011 860 OFFCURVE",
"819 1072 OFFCURVE",
"669 1095 QCURVE",
"669 1318 LINE",
"484 1318 LINE",
"484 1092 LINE",
"307 1059 OFFCURVE",
"105 774 OFFCURVE",
"105 562 QCURVE SMOOTH",
"105 527 LINE SMOOTH",
"105 307 OFFCURVE",
"305 23 OFFCURVE",
"484 -11 QCURVE",
"484 -245 LINE",
"669 -245 LINE",
"669 -12 LINE",
"813 14 OFFCURVE",
"1011 215 OFFCURVE",
"1017 341 QCURVE",
"842 341 LINE",
"834 252 OFFCURVE",
"686 131 OFFCURVE",
"586 131 QCURVE",
"586 131 LINE"
);
}
);
userData = {
assembly = "PUSHB[ ]	/* 3 values pushed */
0 34 35 
SRP1[ ]	/* SetRefPoint1 */
SRP2[ ]	/* SetRefPoint2 */
IP[ ]	/* InterpolatePts */
SVTCA[0]	/* SetFreedomAndProjectionVectorToAxis */
PUSHB[ ]	/* 1 value pushed */
0 
RCVT[ ]	/* ReadCVT */
IF[ ]	/* If */
PUSHB[ ]	/* 1 value pushed */
20 
MDAP[1]	/* MoveDirectAbsPt */
ELSE[ ]	/* Else */
PUSHB[ ]	/* 2 values pushed */
20 26 
MIAP[0]	/* MoveIndirectAbsPt */
EIF[ ]	/* EndIf */
PUSHB[ ]	/* 1 value pushed */
0 
RCVT[ ]	/* ReadCVT */
IF[ ]	/* If */
PUSHB[ ]	/* 1 value pushed */
10 
MDAP[1]	/* MoveDirectAbsPt */
ELSE[ ]	/* Else */
PUSHB[ ]	/* 2 values pushed */
10 18 
MIAP[0]	/* MoveIndirectAbsPt */
EIF[ ]	/* EndIf */
PUSHB[ ]	/* 1 value pushed */
7 
MDRP[10000]	/* MoveDirectRelPt */
PUSHB[ ]	/* 2 values pushed */
0 1 
PUSHB[ ]	/* 1 value pushed */
10 
CALL[ ]	/* CallFunction */
IF[ ]	/* If */
POP[ ]	/* PopTopStack */
MDRP[11000]	/* MoveDirectRelPt */
ELSE[ ]	/* Else */
MIRP[10100]	/* MoveIndirectRelPt */
EIF[ ]	/* EndIf */
PUSHB[ ]	/* 1 value pushed */
10 
SRP0[ ]	/* SetRefPoint0 */
PUSHB[ ]	/* 1 value pushed */
3 
MDRP[10000]	/* MoveDirectRelPt */
PUSHB[ ]	/* 1 value pushed */
20 
SRP0[ ]	/* SetRefPoint0 */
PUSHB[ ]	/* 1 value pushed */
17 
MDRP[10000]	/* MoveDirectRelPt */
PUSHB[ ]	/* 1 value pushed */
20 
SRP0[ ]	/* SetRefPoint0 */
PUSHB[ ]	/* 1 value pushed */
24 
MDRP[10000]	/* MoveDirectRelPt */
PUSHB[ ]	/* 1 value pushed */
20 
SRP0[ ]	/* SetRefPoint0 */
PUSHB[ ]	/* 2 values pushed */
27 1 
PUSHB[ ]	/* 1 value pushed */
10 
CALL[ ]	/* CallFunction */
IF[ ]	/* If */
POP[ ]	/* PopTopStack */
MDRP[11000]	/* MoveDirectRelPt */
ELSE[ ]	/* Else */
MIRP[10100]	/* MoveIndirectRelPt */
EIF[ ]	/* EndIf */
IUP[0]	/* InterpolateUntPts */
IUP[1]	/* InterpolateUntPts */";
};
width = 1120;
}
);
note = uni00A2;
unicode = 00A2;
},
